<mxfile host="app.diagrams.net" modified="2023-09-18T18:01:04.104Z" agent="Mozilla/5.0 (X11; Linux x86_64) AppleWebKit/537.36 (KHTML, like Gecko) Chrome/116.0.0.0 Safari/537.36" etag="RTmasprgJq3fLk04VyR3" version="21.7.5" type="github">
  <diagram name="Page-1" id="b1FBF4GC-2dQwN0yETdb">
    <mxGraphModel dx="1974" dy="2270" grid="1" gridSize="10" guides="1" tooltips="1" connect="1" arrows="1" fold="1" page="1" pageScale="1" pageWidth="827" pageHeight="1169" math="0" shadow="0">
      <root>
        <mxCell id="0" />
        <mxCell id="1" parent="0" />
        <mxCell id="Qwoamr_3QCn3Z3wZJS8W-1" value="" style="shape=image;verticalLabelPosition=bottom;labelBackgroundColor=default;verticalAlign=top;aspect=fixed;imageAspect=0;image=data:image/png,iVBORw0KGgoAAAANSUhEUgAABI8AAAI9CAYAAACzJ1hGAAAABHNCSVQICAgIfAhkiAAAABl0RVh0U29mdHdhcmUAZ25vbWUtc2NyZWVuc2hvdO8Dvz4AAABQaVRYdENyZWF0aW9uIFRpbWUAAAAAANC/0L7QvdC10LTQtdGZ0LDQuiwgMTguINGB0LXQv9GC0LXQvNCx0LDRgCAyMDIzLiAyMDowMDo1NyBDRVNUx3PzXAAAIABJREFUeJzsnXecFPX5x9/fmd0rXKEqvQkoxQJEAUuiWCmCBSOJHSWiKCpETCyxFyyx+zNWLIA1YqEZNDFWoiBVQHovR7s7Dq7sznx/f0zZ2b3dvTuOYnnevJa93Z35tvnO7DyffZ7nqw7v+VsNAIqhl17EdVcOJYhSCuGXjUaDTrOBAoXMA2HfonW6SSjXol8LMg+EA418Jwog1yLhp4HMQ0HmgLC30cq5zTG0Dcp2XlSUY0crMDLCYGbw8suv8PqEN+Lmn9aakPdi0MAzKwlHgiAIgiAIgiAIgiAIws8bTzhycITHXTu2s2bGR9QtmkXDOjlkHn0Gl18xmMKiYj6cNClufwOgdatW/O2mUfux2YIgCIIgCIIgCIIgCML+QGkw3AcoiETYOHMqDXZ8RT1rOda2mdgzX4Hdaxk1cjgtW7aM7asUBiiuHnIphjIOVB8EQRAEQRAEQRAEQRCE/YRt2eiSAg6KFpBplxM2w0R37YLSrWBYXHLZZXGhkUbrVi3pd/qpB7DJgiAIgiAIgiAIgiAIwr5Hg7IwQmHM/LoUqzpYysRAk5GdDRmZoE1OOfkUWrSIeR8Zp/U+8QA2WhAEQRAEQRAEQRAEQdgvKHAEJEWTbn3RBx9JRXYLzLrN4TdnQlZLwEAp+N2JJ/neR6Ee3btJlvZfOcpZOkYQDihyHRJA5oFw4JHvRAHkWiT8NJB5KMgcEPYJWgEmGIo69ZtR56ThYO2EsAIzF8w8LEKYNnQ76igmjH8dgFD7Q9oe2IYLgiAIgiAIgiAIgiAI+wlHmNSGws6qh6YBJhZK24ATwobSHNKmlbO1UoQaNqh/ABssCIIgCIIgCIIgCIIg7G8UYGrvlek8tCstKZu6Ab0oJKusCYIgCIIgCIIgCIIg/MrQafQgbRCUi0Q5EgRBEARBEARBEARBEOJQxHJviXgkCIIgCIIgCIIgCIIgxKECnkkiHgmCIAiCIAiCIAiCIAhJUUqJeCQIgiAIgiAIgiAIgiCkRsQjQRAEQRAEQRAEQRAEISUiHgmCIAiCIAiCIAiCIAgpEfFIEARBEARBEARBEARBqISstiYIgiAIgiAIgiAIgiBUiYhHgiAIgiAIgiAIgiAIQkpEPBIEQRAEQRAEQRAEQRCSopQS8UgQBEEQBEEQBEEQBEFIjYhHgiAIgiAIgiAIgiAIQkpEPBIEQRAEQRAEQRAEQRBSIuKRIAiCIAiCIAiCIAiCUAmlFCDikSAIgiAIgiAIgiAIgpAGEY8EQRAEQRAEQRAEQRCEpMhqa4IgCIIgCIIgCIIgCEJaRDwSBEEQBEEQBEEQBEEQUhI60A0QBEEQBEH4xaKSvKf3eysEQRAEQRBqhYhHgiAIQlo0GmWoxDedhyK5cZy+QOdJO/8pU6Ft501V48IEIHYMqho+77gJe5eE88CKWGzdto21a9awctVKNm7YSPHOYho2bEjjxo055JB2tGjRnLp16xLOCMfmv3LOBW9VE0EQBEEQhAONUgqttYhHgiAIQnoUin9/+m/mzp2L1tp/OOKRIpmdm8z4VUqRn5dPo4MaUb9eferWq0enTp3IMMKOOGXv+778kqmoqGDiexNZu3YtZsiMHSMXW9ucf/75tGrZ6sA18heIxhF7du/azddff83zzz/P559/zo7tO6iIVhCURHXggGSEM6hXrx7du3fn6quu5qSTTiK/bj7KVCLyCYIgCILwk0NpS8vtiSAIgpAaA4ZdOYznX3h+rxWpMDCUoknTJhx37HH87sQT6dunD+3at8O2bQzDEOO5JigoLS3l5N4nM+PbGSk3m/zRZPr167cfG/YLxlWEdpXsYvyE8Tz22OMsWfIjto6poIZy5rE3lXUahbRJ4yZceumlXDP8Glq2bukLSBqd2iPPAG07Yq5hVk5j6TVFGd7facoSBEEQBEFIwmlnnCaeR4IgCEL1MM0QCuVHqnkeFJ4hWhODVKPR2GhtsH7Det755zu8+893adSoEeeffz4jrh3BYR0Pc5Z0EG+k6qMhFE79ta5QGKa5Hxv0y2fGjBnccMMNzJo1i6gVJbaIrUKh4oQk5zPn7PFea1chUig2by7goYce5s0332TUqFFce821KEM5XnkpPJFsy8ayLFasWOGISJU2UhhK0ap1K7LrZINWIsoKgiAIglBjlFI/PfFIyw9iBwQlN5OCIKRDe4ZpcrHI9lWe1Bfx4CeGMhxvCQxs15rdsnULz/zfM7z55lsMHjyYxx97jHA4vBc78ctGayd8Kp2Qp21R42qNckSb9z94n8suu4ydJTtdqcgRhry5HfTyccI43VfaEYS8/AH+AxuFYvWa1Yy+cTQrV67kkUcewTRSC35KKcrLK+jTpw87duxI+nlWVjYffvghx/Q4OqhdCYIgCIIg1IifnHgk7H9EOBIEobbUNBRGuxHTTkhOfDnbtm/l2Wf/jzWrV/Pqa6/SoGEDyQFTFV5olIzRPkdrzZSpU7n0kksp2V2S9PPk78Xe17bGMAxs2/bD0oLnUCQa4YknnsQwDB544AEyMjPSHFtNcXExxcXFSfyOIBKJYEgCbkEQBEEQaknlAPkDjNLy2N8PQRCEfY1SquqHazwbyvlqmjRlEj179mT9uvVuIQeq9T8X5IK+z1GwYsVKRowYwa7duyqJPvGbxrz0nJDPmCeSJxyl2w80jz/+OJMnTY6rPxmeYGUoFfcAsG1NoEhBEARBEIQ9Yr94HgVD0aotVsgNjiAI1SWtqKCr2kDYDyTzxqjOtsuWL2Pw+YP5+F8fk5ObI98NaVEy1fclCmzb5vrrr2fV6pWYhukkd1dGXG4jL++QRpOXm0/HjofRpk0bdu/ezaaNm1i9ZjVbt20FYgm1U1apFMOuGkaPnj1o1qxZzT380ChF0tUPBUEQBEEQasL+EY+8/5WiVEGE2L1S8J5Jpfg7HXI7tHewST2WMsbC/iLdPEznJqmT/K1xLnCZWhEWwWGfo9FkZ2ajlMIwjJgB7eZzqaioQNs6kBuJuHxHkOzYOwlavvrmK0bfOJonn3rSSQgtaXsqo0D0gX3P//73PyZPmQQoP+TME46Cyaq7d+vOrbfeymmnnU5mRgYZWRloSxO1okQjURb/uJi33nyLV159lYKCzSnrs22bLVu3MHbsWG77221xFzvtxipWJczGCU46vp3VRVZoEwRBEARhn4tHtsJZn0cpXnj/cxZHG7M9VA9noTcbG41WSjJlHwhcNzAngapG60TjQyxuYf+hcUIubNtO+JVcBZ6rLysfXD+Hy06qwyEKEY/2E1ddfRWXX345EAjZMZzniooIBZs3s3bdWmZ/P5v/fPYfli1dRkU0+HNC/PH1gn408I/n/sH5g8/npJNO2g89+RmioQbOXcKeoOC99yZ6f7o+jQbx81dz/HEn8OYbb9CiVQu05SQxx3a8f8KhMOFwmG7du9GtWzcGDBjAJZdewqqVq1KKOgrFtGnTGHnDSHJycmIfJPkVzkuaHtzXOZHi39sTAUkQBEEQhF8n3iIf+1w8cm6unDj/2au282+asT6cgyYM2NjKCympoXiUcN8j0tOeoQHt+Xso9xdMWclXOBBo/BwdyX9Jr36KNqUUbSOZ9AVa7J3WCdWgWbNmHH7E4TEXMt/LwXnhCUnahpKSEj777D/c/rfbmTNvDgZGGuPZKWfEiOuYv2Ce82Yqt9XEz/YynrdHrcOAlOeVBYahYuNlO+PkeWwZRvqwpsTW7e2++3l6lNM2589YeJxzqmr/pqLGHirV2bw6faqqnFqOiwbKS8uYOfM7pzrlrq0WuFYpID+/Ls888wwtWrZw5kng2MaJPRow4PjfHs8TTzzBoEHnUREpTzl+CxcuZOu2rbHQTQPnPHPLjEtAr2P5lZRK8oWuqOTmqdJee5MQU89iglXCHE435tqfM25zbNu/Pvj5oQy1b70Mvba7A+Gf2247Kq1MV905VNPrUaAev9+uR5n3t23r1EnPVcKYu7fUtitcKk/flBs7QRAEoZbsc/FIuUvPAtgYlKlMdhvZaEz3+9Jmj/J2i1q0RyQbNl3VBoKwP9iTuNUgwdRGCkqBKI7tsYdXGaEaKNczyPFe1L5R6okKEHvWdiyULS8vlwEDBtC7d2+uv/56xo4dS2VrLb6eBT/M51/T/sXpZ5we/MA1eF0jyX2vEslipVNu5hqURsL2CpRWlZtZk/ka2M8xjjXbtm6jYEsB5eUVZGdn0bRpU/Lr5jtja7t9q1bh+zDnkQJlKiLlEbZs2cL27dtBQVZmFs2bNyc7JzsmVOypkV2LtlVrm1oYz0pBNBJlzZo1QEwwCXrxaDQtmrfgqKOOjAkqycbDa4t7rvTr14927Q5h8eLFKesvLS1l2dJltG7T2i/PE2wMM/nVLSggqcC10Xv4Amjg2plSFE3ohy9sALZls3bNWgoLC2l00EE0a9bUOU+qQnnjarFt21a2bt1KJBIhJyeHZk2bkZOXExPJ9hKemO1dK7YUbKGoqIiysjK01mRnZ9OgfgPq1a+HGTJjIml1zsNEkdDb2Ds86a5BBmhLs7lgM5s2bSYrK5NGjRrR6KBGzsdmGiEtKFIqWLd2Hdu2bQMgNzeXunXrOuV4oqEgCIIg7CH7XDzy7r2d7zQbU9uEtMYCYtmzg1afsC9RIF5bwi+SmH+Le73RAZ9G7wdZ+eV1r+MYm44HjeeZ4msYKQxIpZS/bW5OLs899xw5OTk89fRTsW2SXJkUipGjRvLDwh+cNzwj2lBM/9d0Nm/e7HvsBNFa06NHTzp16liN/sDiRT/y3czvfK8fTxzwPG7y8+tyZv/+MW8NW7N+w3r+85/PMI3KHlRaa3r3PtlJeKxg9+5SZs2ayZtvvsnkyVMoKiqkdHcp0WiUcDhMbm4ubdq2YeDAgfz+97+nfbv2hDJCaNtpX1Lj0zXE98YVXaOxbRvTMCktLWXRokVMmzqNt99+m42bNlJRUUFpaSkA4XCYvNw8mrdozplnnsk555xD506dCWeEvcKStnXFihV89dXXpGtyRkYm5557LqGQmbQcz0tj3Zp1fP7F5ylXLwNFXm4u/fr1IxwO13A0/MoAsCwrfm4mHA/TNOMvRJ4HieeZo+LLQzviT88ePfnxxyXY2nK98OKJRCLs2LEDgInvv09xcZEvmpaXlVFeXu42JyEkTUMkGmHq1Kn8uPhHNNrJPaZtQqEQ555zLhkZGaxauYovvvgSw135MIitNb17n0Tz5s2dIm1NeXk53333HWPHjuWTTz+loMA597Kysrj++hu4+567HG8Y36vHnZ8KSneVsmjxIqZOncoH73/AuvXr2LVrN2WlpY5LfDhETk4ubdu0oV///px7zjl07NiRjMyMmgsgga7s3rWbJUuWMHXaVD799FNWr1rNlq1biEQi2LZNNBolMyOTcEaY7Oxs8vLy6NKlCyeddBJnnHEGbdu2ddoAKc9FW9tMmTKFwsJC/3rhHRNDGdTJqcOZ/c90ri0Kdu4sYdasmTz//PP897+fU1JSQunu3YQznOtAXm4eAwYO4Nxzz+WYo48hu0527NC6Ap5t2Sxbuoxxr4/jnXffZePGDVSUV2DZNqZpkJmRSdu2bTn+hBO4+KKLOOqoo8jIzJR7P0EQBKFGKKX2Q8JsbaCVdu6hlELp4CK0yr8l31Pky69maJBBE36W7InwE/iRXagtKQbR1jr2UQ0G2hde0IRCIe655x6++uorZs+e7YdAJWPx4sWsXrWa1q1bx73/978/yvTp/4pb9SrI0089TafOHavlffLlV18xbNiVScsyDZOuXbsy4Mwz4/oya9YsLrn04kqil2fI//Pdf3LuoHOZ/f0c7rzzDj7++GPKKxyD30kc7tRlV9iUb69g2/ZtzJw1k8cfe5zLhlzGn0f9mabNmqVuv0709tpD3BCYaDTKf7/6L/fccw8zvplBWUWZ387gsvMVkQpnFbGCzcz6fhaPPvoYA848k9v+dhudOnXyxyBxXKyoxR133M6qVatThuNY2uK5fzzHlcOuTNothSIaiXLV1VczecqklH4hGs0Lz7/gJFuvzdAYCtM0UUo5c8MNXwyG7G3avIlVK1fTpk1rr5G+gAQk98ix4dxBgyjZVYJhmCjfcy/QB9umWbNmANxxx+0sXLjQrz9qR/3xSNb38ooKbrvtNt/rxnDDxbKzs+jbtx8ZmRl8991MLrn0YgxlYmurUjnjx43nggsvAGDNmjXcetutvP32O0SiFX7dCkVxpJidxcVe5e79n+P5VFER4csvv2DMmDF8/vkXlFeUxbXb09uiVpTSslK2bdvKd7O+45FHHmbAmQP42+2307lLp5p5I2nYXVrKpEkf8cwzzzDzu5nsLtsda7N77LzzNFoahVIoKipm06bNLF+2nInvT6Re3Xr07t2bm266iaOPPtoRCZMcS601t912G3PnzXMPffyBbNe2HX3O6EMoFGLR4kWMvnE006dPx0oYc6vMdsdgG088+QTPPPMMffv05YknnqB169YYIQOFIlIR4ZlnnuGhBx9i0+bNfp0ajYFBJKIpKytj9tzZzJ47mxdfeIEBAwdw55130blzJwllEwRBEGrEfo3k0Clu7CDeyKvJQxCEXwdaVfFIs6/S4nVUW1IHbMQMr8RVnapbrtaauvXq8sADY1ColAIQOL/sf/LJJ97OfvhPZmYGnglrKANDOcaV4X7NOd5OVbdHa9Da9sWAkBnCVKb/0Fon9XCxLMf4MwzDFcbixysrK4tPP/mUM8/sz4cffUikIuJ2wUg+fjjLuO8o3MGjjz1K//79+eST6Y64kyovjda1Mga9dmzevJkrrriCAQMGuEZ+ue9FEdzOa3/sb8XOkp1MeHMC/fr146WXXiISjcQJhV4ZHQ7twN13301mRgaWtrC1jaWtuIehTO64/Q7WrFqT/AvfgFdfeTWlcOQZ0ef//nyGDBlS6zxVhmGQl5eHre2U50PBlgJuvPFGVq1a7Q2KLzAF25RI/379eGPCG4wbN47x48YzYXz846233+K4E45D206YmGW745TS2yqG8p+Vf75pbCzLdoUkN7cW3r2V8rc33Pgu7/NvvvqG/v3788YbbxCNRvztAH/ex8L48PMorlu3jquuGsZZZ53F9E+mU1FRHrevV3dwfDwBpKysjLfffptTTzmFfzz7DyrKK5KOYSUMWLV6FX8YPJiLLrqIL774kt1lu/1rQnXGTWuNaZgUFxUz8f2J9O/fn0ce+XtM3Ate8txrhmEYriDqXIG8B7gCZMjknXffoX///kz71zR3rrvjrAxMwwyU6ZxjlmUxafJk+vTpw9JlS9GWZuuWrQwZMoQbb7yRzQWb8c7M+DRNOha+iEF5RTnvvPsOffv25d///nelPgiCIAhCOg5IGhCx4QRBEH4mVGFYxBlxe2iEeLlhTjj+eDpWI7Tss/98Fl+X4RqpaZL9GsqI5USqBo4RprEsR9hIZfTH7QBYtuWKO84bIcPxdpk7dy4XXnAhGzduBJy1Rg0MPxdNLDeN46XhiQ1KOQLYnHlzuOCPF/Dpp586nyXri1K1MgSVoVi+bDknnHAC4yeMp7ysPM4LxdaeEaoCRn+8/7BnMq9avZqrrrqKu+++2xHbjNhxBidB8vnnn8+g8wYF9oyVAApbW2wq2MS1116L7YZaBdm8aTPDrhrmv9YJ/0DRtk1bHn/8cQzDqNVqdBpNOBymTes2TiuD+YKIF0EmTnyPY44+mhuuH+mHilmWhTKUnycpEcMwCIVChEMhTNOs9PDrUU6YmyeOatcFp/qJymODYATmi3bH1hvjSkKmYfDjoh85++yzWbR4kT9fgzj7xsRVhdPWH374gT59+jD2lbHs2rUrTpxKRCX8s4mFoW7avInrRlzHLbfcWq3E3suXLue3v/0dkydPdsY/EELmezt5HmEJ/8A5HwzDwHaTUSsUO3bs4Pbbb+fBB8dUCln0QhMty3avGV5Gc+2fF87KeR9z6aWXsmbtGgycY+mNu/a91Lw2BuUgzdJlS7n6qqvZvn07f7rySsZPGI+2te895dUZDJmLtS/W1rVr1zB06FBWrV7lDbwgCIIgVMl+Fo8q/ypSk1seQRCEPUZcj/YDiSFb1cTVferk1uGcs8+p8lth2fJlVJRV+F4N4IRa+f900JiKeTHsSU/8/ZPkUorvQvLPLNsRX+655142b9kc8AJQ2NgxY10ZMTsxsSjliF9bt2/lkksuYc6cOUkbnCxfTbUwnP2XLVlG125dWbFyBeCIAZ6Xhk7wHQ6Oa7K+KxwPmTFjxvDQQw/F5cPyvHEyMjN44IExtG7ZGvxxiW3m1T1lyhRef/21OIHOsi0GDTrPHd+YKKNQmIaJgUFOdh2eevIpmjZtGp80eg9QKELhEAMGDnDHRvtCBAkOX7a22b59O088+ThHHnkkxx57LPfdfx+fTP+EHdt3EIlEHMHTGzuFfzeWTqS0LVeYSdBJY6OWvOWVzwFfsUw6X5J5zkWjUc46+ywKtm5xd4z3gPPEJNMwY+KLUsybM4/TTzudHxb+gOfJVLlOlbLPnveP97llWfz90Ud44P4HnDFLcRdbvHMn/fr1Y+OGDdiukJhYhXcuJoqOXn4mrZ1jqRRYdkxAjkQruO+++1m8KCHBuXLP4yR98VaXW79hAxdffBGRSATlhoHa2smHZGD4o24kVbqd4/LNjBmc9/vf8/4HE8G9jgQl3GTCmNuIuPasWrWKRx99tMprmyAIgiB47CfxKOCyHrxp0alvdwRBEISfL8l+KkiHcnaiZ69eVQo9a9asoWRXSfzy4Dq10V0TqhIYfCOr0napd1QoSt08KxA/KgpFRjjDr9cxBJMbcwYGGzZu4LrrrqOstGyvfoHu2LGDwX8Y7IwrXrhfzKgPGtkApoqF1qTLNWRZFnfccQdTpkyNLQ+vY15ILVu14Nl/PJtUNPGMe0vbjBo5irXr1jl1h0zGjx/PV19/5RcYHC/btrGxGTZsGKeffnqwwNphw4ABAzio0cGOGW8E723iPViCOaH+9+3/uOPOO+jbty9HHHkkg/8wmEf//hhz5sxxkrzbjvrkCBUq6XxWSrnioOGsAkYsr01stJLMGbeNoVCIkBki5p3iLv8eCJGKJyaaKhSvv/46Py750feG8VZOjA2NI4RatuXPy23btnHd9dezYdMGf2ycuV25jQojFjqnVNJD5e1vGiZ33HkHH37wYfKmK7jhhutZumwplrYCd6DxYxQOhTn1tFP5y01/5dn/e5ann3qaW26+hR5HH0M4nIHthlMGx8M7vrt2l/DQww/V6C5aa01p6W6Kior8Mr1zx/NuDG6bpARAU1Zexmf//U9AbFWYrmjliU7OGMb3V1N5jr7xxhusXbvWn8uCIAiCkI59nzA7geAPq/JVJQiCIATp3r2bu9pU8l/vQ2aI7du3O6tLqfjP9goq8UVlQSNuO9frJBh+lgzPqPPyyxx77HEMHXoFxx57HPXq1mXDhg188MEHvPDii6zfsK5SOTFjUvHV11/x8ksvM/za4W64nvOJXQsPgtGjR/P97O+ddrpf0I7Xh+dFAkcefiSXDbmMM844g4MPPphoNMqsWbN4+eWXmTx5CuXlZb5oEqQiUsEDD9zPCSccT926dWPD6j6feuqpjLxhJI89/pj/I1OiD9uOwh1ceOEFfPnVl6xZvYZRo/7syRiBrbQ/d5o3a87fbv8b4YywL4DUGgUHNz6Yhx96iCGXX+6GZ3lCUXKCnltRK8rGDRuY+P5EJr4/keysbFq1bEWHQzvwu9/9juOPP55u3bqRnZ2NbXuJyYlb1UspeO+994hEor77UcmuEk46qTclJTsr1a+1Ji83j1deeYXDDjsMw3By6njjFg6HUs4171iGQiE+/vhjnPxcdtLwP0MZbsotTyGEu++5m2++/to/JjEvLS+JtqJjx05cfvnlnHHG6TRp3ISKSAXz5s3nzTff4K233qK8vNxva3BuWbbFzX+9mdNPP4OsrMy4Y1xaWsrbb78d84ByvY6C5bRt05Zx48bRo0dPQmET7Fj5t912G9P/NZ2hfxrKlq1bkoYmKhRff/1NwmD7/1U537zp36RJEwYOHEiXLl0oKy3j+9nfM23aNAqLitKUoN3k9drvYbPmzejfrz8dO3XEtmwWLV7Ehx98yOYtm1OWojDYsX0HU6dOdcI/K1/uBEEQBAHAX2Bi/4tHilSrNwuCIAg/UfZLWIOG5s2aEwqHiUQqkm5i25pIRcQJ/bGJhftU0bx91Xwd+D8dXpLlevXqcc8993L11VdjmJ6XiSNKdO3elWuuvYYRI0bwz3/+EytqVTLovATHL7z4IpdedhnZ2Vm1E0YMWL5sOS+9/JLTk4RQF6UgIyOD22+/nb/c9BeUYUAgXLBv377069+P9997n6F/GkrhjsJKuYkMDL7++msmjJ/A1cOvxq3A71c4I8wtt9zC119/w/++nVGpN15bvvr6Kx556BE+/vhjtm3fGveZMzaO90pmZiaTJ0+mXr16sbwve+P4u2VccOEFzJgxgxdfepGoZZHu57A47yHi8+2UlZWxfMVyflz6I5MmTwKgQ/sOXDXsKi648AKaNG3ilGEHjomGNm3aOCu+2Y6nUklJCaZpJhXuvATvrVu3psvhXWLvW26ZZuWx8ZN7u3MhEo1iuCvMGU7yKrS2adK4Cd26d+Pggw+mQYMGRCIRtm7ZyuGHd+HHRT8ybtw4ola00pgYGGRmZTJ69GhuufkWMrMz/V8VbW3TtGlT+vQ9gwsvvJDBg/9AUVFh3PVH246HzaLFi3juuX9w/Q3Xx/qgYPr06ZSWluKFigXntEZjKpMJ4yfQ67hezjhonJxctsLWmszMTAaePZAhXw3hoUceqnQOekd7x44dlOwsITcnN/7DKtBAyDC56uqreeihh8jKyoyt2Gcoli1dRv/+/Vm6dGnS/f1wSRzPsSGXDeHhRx6hXv3qjWSxAAAgAElEQVS6YDued0bI4O677+aiiy7i039/muIaobG0zRdffOmIRyIcCYIgCFVwQBJmC4IgCD8T9qNBoQGU4w2RqlrbXYkLjZ//BfaTuJUMzzCtRkIdjebBMQ8ybNiV/vL0lhUTWrQN9evX54UXXuCUU07BxvY9m2LVOa+WLFnCjBnf+KE+NW62W6oVtbj99tvdd2M5k/zk2Epx7z33ctNNN4Fyw2S8xM+B5M9nn3s2D455EDNkVjp2XvDMK6++QklJifemL5yhoVGjRjz22KPUzaubss0Kxei/jOY/n/3HTxgdHHdbO949999/P0cdddQejUuVaCfc6e+P/p0RI0Zguu2oKV7b/VX6cMpZumwpfx79Z3r27MXLL73M7l27UUb8cvIehmkExJE08z8wztjOQxnKKddO4a2mg8Kcxna3sdHk5uZwxx138M2Mb5g8ZTJjXxnL3x/9O08+9SQT3pzAn678E/feey/bd2x3944Pv1NK8de//pXbbruNzOxMbPcc8MQe75iedvppPPvs/1VOzO2fF5oXXniBirKKOP1u8aLFcSGA3nh7zx0OPZSjjznabw/EBDrDTYyNhj59+xAyw5XFNfe5tHQ3RYVF1BQFDBo0iCeffILsrCynT66nGRrad2jPK6+8QjgcrqIcgxNOOIHHn3ic/Pw8ZxyVMy+0rWnSpAkvvPAirVq2Srq/163Vq1c5/ReLQBAEQagC+aoQBEEQUrI/JRnPKHOMpso1B4308opyx0jyQmx+4glfDQx69ujJpZdd6nuJoME0AyuuKTBNk9zcXB577DFysnOSlqWUorR0NxMnTtzjfiscT5Ly8nImvDEBlSCBKMDSFt26dWfYVcP8hNO2tl3Bwe+Yz+A/DKZ79+7E/LF0XHlz5sxh/vz5sdh1t89exb169uK666+rut3eal4BrxLPE6PPGX258sorY5PJW/BqL6LR1KlThzFjxjB27FiaNm2Gl4snMTdUujL8pd1VLKzLOQ4Ga9au5sorr2T48GvYumWrI+akFCirEK9SfZwkHCvYvtjujuuNqUzy8/L4+OOPueOOO2jVqpUj4rhjbFs2tmWztWAr73/wvhMel5BUGw2HH3E4w4cPJxwOY1u2m2SaOOHIKVdz5pln0rNHz4TuxHJx/bDwB+bNnxfXx8KiIo48/Ei6du3KkUcdyVFHHcWRRx3JEUc4f59z9tmEwqFYDi7l5q9y57KX/yccDmMYKpZwey8RDof5x3PPxQlaid5ePXr0oEWLFmnL0djceeed5OTmoJQRl3Rf4Zwbbdu04bTTTks6H70eFe4odM4lu9ImgiAIghCHiEeCIAjCTwKN8wt8KJT+F3dwlg5PcMnZZ+2qLUo5KyKNGTOGjMwM5z0vlCrJw7ZtOnbqyDnnnON4WSQYfl5X58+fT+nu0j1sFChlMH36dKdML+QpYRj/MHgwuXm5jmHvehzhrVwWyPuEhpycHC644AK/gkRRIhqJ8uYbb7qeMMmP11//ejOdO3dJK70kGtoedfPr8sQTj5OVnbVPVU9vnDLCGVx40UXMmzeX0TeO5uDGjR1RAk8QcLyJDMOI89QKemwlikhODiXHirdsm1dfe4VTTz2VwqJCX+hw+k5MKFBQK3Gjmrta2uLVV1+lV69e7vxxQ63cMgzDwDANpk6bSsmuErSdEEanHK+hPn360OigRs5bbhm2bcfl7/LcELOzsrn8isvTNn7c6+McwcfVeO6/7z7mzJnDrO9n8f33s/3H3DlzmD1nNvePuR87Gu/xp23tJy5HOefgRx9NIhKJBoe91mg0J/c+2Qkxi+tFTEiyLRszZNKly+EphUiNpmnjpo5Yq0ndRsMRopx9kqEoKy/zSxUEQRCEVCilRDwSBEEQfhoo1yCtKC9Pvx2K7Ozsn8XPH544UC+/Hj2O6ZEQDpQcL9zmkksv8cuINw0dI+/HH3+kuLh4TxuGUvDww48A+EmUEw3Vdu3bUbijkJ07d1K4o5CioiKKi4qc58Ji51HkPop30r59e+pk1yGZIWpjM3v27MrCkRdWpSA7O5u333qLenXrpW9+QhkGBk8++SQd2ndwxACvzH2MoRQNGzTkwTEPsmzZMt5++x2uHX4tXbp0ISMjjI27AhnxK2oFk0Z7r73wM+X/c+bKvHnzGDFihCMUel5q3jj45ezbfioUvU/qzYAzB4AiPg+T1xZ3wCdNmhTrU2AeOLmwFB0P60hRYRE7dhRSWFhIUZEzr4qKiij0/i4uori4iJ0lO+ncuXPatk2ZMsXPW4SnCfltjD1sHQtzNUIG7oKCKIUvXBUWFrJ0yVJGjhzJ4489hmnuvYuMN1bHn3B82u28eVu/Xr24/RJp07Yt+fn5KTUfb25555KRYpJoHRMwBUEQBCEd+yVhtgo8K703nX8FQRCEnyZ7sHSPG5pTXl6e1pAJh8JkhDP8fTB+umFrhjKwtc0xPY4hIzPDWR69CkvfCzk59NBDaXxwYzYXbKaS9xGawsJC1m9YT+MmTfagYc7T4kWL/FCw4FLe3vPIkSPJy81zc95or3JHCNHxy64r5XgXlZWV+6JGMImzQrFs+TK83DbJ0XTu0pkHHxzD8KuHB0SVwBaJr9EMHjyYCy640A858sQNrfa9SazRKFORlZXJWWcP5KyzB1KycxfLli7lgw8+4PMvvmDO7NlsL9we52nkETcWlXQ154233nqLU045lcsvH+Lsuzc6VYNTVKO55JJLMMOmk1tHE7+8uyvWKZwE7MG2+95W2pkP9913Hw8/8rCbt4gqG+HNzcQj6c2vNWvWULq7lOzs7JhY5eZEio2tckLQbBvLsti6dRsFBZsp2VnCunXrWLJ0CcuXLWfuvHnMmTvbL7/GA5WuH66y1aZ1m7TbmSHn5MzMykxbf15ubrz3XwoMw8BQJjpVXJrrCVidvG2CIAjCr5v9Ix65vyh6brXKj7MHWyOrrwmCIPzCUIH/q4sGSnfvdlZSS0HIDFG3Xj1n1a9gfcbe+yJxkhPvXdq2PSSWZ6UaKKVo2rQZ9erVY3NBQeXP3fCWDRs28Jujf1PzBrnfy7GQlcoeDhrNqtWralSsV4a3dHvMqnW8Y7Zt28bGjRtp1qxZ7KbABoLGq4bLLruMKZOn8MFHH6QUEj1BoUnjJjzzzDPOkuuxhrgOJ35c1z7DC2PzEzQryM7Oomv3rnTt3hVsKCouYtasWbz//vtMmTKF5SuW4+W9clYwi/UpaV81/P3vjzBw4EAaHdRw70QYud451RENDGXQt09f/2/f6y8QZqYUVJRXsGvXLrf4yl5JhjJifUdh4OUUStahoHyTuo2WbbFr9y6ys7P97bTSbhggVFRUsHTpUr784ksWLlzI1998TUFBAdu2bmN36e64MfcSsVf3CrAnhyEvL69ySF8QdxXJUChEMuHIa1vDRg3TN8Kdi+FwmJBpEokmv/ikF3MFQRAEIcbPwOlfEARB+DWgFPz3v5+nNdyiVpS2bdqQn58HsSgUyqsIdasJfh6XvWChe0Zz48YHO29U00bTWhMKmdSv3yCp34HGyROzY8eOWrUvGo0tpa6S/KvOZ4nt8qVDFdjP7UQ0arFly5bY/p73ScDJQwMZmRncdfddhIz0v3FpNMOHD6dBwwbOjm6KqKAxXOujGEwooyo/dHA7Pw+RiiXrVpCfn8/JvU/myaeeZNnyZWzdspW//uWvHN7lcGeFOp1i1TOvD9pm4aKFzJs3d9+npklSvmmaNG7aOJZkOsl2CuWEL+4sTjk/LG3FQu0gaU6vRNLNN3AEMG8ee3NJKUVZWRnvvfce7du356ijjuKq4Vfx5NNPMnPWTNatW0dZWVklz7jkTUnXvpofDNu204rdvtBmGGkvF9nZ2W4LUgiO7sllhsw0AqqudL4IgiAIQipEPBIEQRB+EmitmTVrZpW/+nfr1s1dsSxGVctaH2hCZsgP96kuSikyMzNcAzfhMxSWtiktLa2VmOAtFQ+xHDXBXDXpDPdkgpK3MldQDPFCtWxsJ7QtGo2JL653UNB49TxYnn/+eaK2lazquPofeOABVixfEfsg5uzkvt4LaosO5iVK/MwR8oJeOJ7Xiy8meY1xkzM3bNiQB8Y8wOzZs3n99df9FdviVhwL9tV975NPPol5Ke2jPDXJzj9fqAgmtU4ipFm2jW2nHu/gfPLqMTAwlRn3MFRs5TobO9Am5Q5pfLyk4XoiKve/4uJizv/9+Qw6bxDr1q3Dsi3fq8gLC7W17dYR63ewrvz8/CpFlWQhlD8pXAHXOc8TPQu9Z+2KoD+xtguCIAg/OfZL2JogCIIgpEXBrpJdjBs3zg15Sm3InHraqRimgbZiokrVv5xXO7mLny9nb+AZZGVlZZVXiKuiHeCIKIm5g7yPQ4bpiGh7Epnlbm8Ypi8gVc94TKyoZmOlteN54e0a9DrSaNezRTF16lSe+8dz+K47aSgrK+OCCy7gs88+IysrttKat5KX18rayCxz5s5lwoTxmIbpi16xnmtCoRCnnXYaJ554ov9ZpfoCnklejplQKMTgwYPp1asXPXr0oGBLQUx4SsKKFSsqv1nblDzVGJiMDCf/jufNkkq0CodDhEOhlOOdLHeRTdWiamxuxkRN71lrO+Z5qKCstIzevXvz/ezvnbfceeCNefDa4pVrGiaGYdCwYUM6duxI37596dq1KwMHDqSioiJVo3xRMdimnwq+SKc1tl1ZPBIEQRCE6uJ9f4p4JAiCIBxQPI+LadOm8eOSH4H0hli7du0rvWdb6ZMJBcOz0qJg69atlYzM2qBQrF23tlrJbYPtsKIWhUWFSQ1uQznJf/Pz65JGa6iSjHCYSKTCb2dcHYbBrbfcyqGHHYplWe6S88HKaiocOXloOnbsGJ/ryPDVIwDWr1/HlVde6XuGVIfvvv2Oe+65h/vuvy9Wlrua1t5wqNi4cYOT5DnQokSxbUvBFk486USi0SimaYKh3NBK9/gF2hLM7wTQuk1rHn30US66+KK08660tCzlZ7URB4KrviUm87a1TSjk5ZNK7hnlkZeXR25eHqnkOlOZ3HzLzRx22GGOJ1AV4VuJYxFMgI173TAMg+bNWzjikKG4+667+X727LhyvD55K76BJj83n9+d+DsGDBjA4YcfTpcuXahbr65/TObOmescx18ATuJ+8SwSBEEQaoeIR4IgCMIBRSlFwaYChg8fjrcyUyoD+pC2h9Cte9fK3h1V2M2FhUXVbs+WrVv26upthmEwZ84cIhURwqHqhdcppdiwYQMFmysnywbHCA6HwjRv1sx5Yw+aq22ok1OHkt0l/rgHsWybE086kd69e7teG0b1PZySOSjpQJiP57Hh5Q1ybXrLsrjqqqso2FJQY0+OBx98iAFnDqDXcb3icg/V+lhqqF+vvv8isTTPM2zBDwsAx4slmD8nGLKWCtuyGTBgIJkZmUk9Xbw++Em5k7An0lF1c9143mmGUslFUFcYC2eEnXxkKdBoevTowYCBAyqXUa0GB+oOXABs2walKNpRxIsvvZRUM/SOXG5ODmMeGMOVw4YRzghVzuOkHO/DcEa4yrnzkw71ChxaZ95UM1u/IAiCIKRAch4JgiAIBwYFGE5+kiGXD2HL1q0p88p4eXhuuGEk2tL+7h516uQkKT62xdo1a2J1psG2bNatW7/XjEIvv8qCHxawbdu2GiXMXrhwIdt2bEspotSvX5/DDjtszzxrNNi2RY8ePeLqDD5As3TpUtc7RDkxZ57RnvDQtvYf/vuJKLcO3O08wcrLe2Qo3nzjTSZPmUzIrNlvWxqNZUcZPnw4xUXFvgDg1VsrFDQ6qBF1suugMJwQp8DtkzdX5s+bT3lZue9Nk6r+ZIKN4QpzqTxdvDoaH3xw0v7saxHDyymkdfrjC9CpYye/Tck2m+16BdnRWPhiyoeXT8klOM+80m3b9vMZzZ49my1bC3wPquC544UDvvHGm1xzzTWOcOS2Oy6XE6AMRVFRcbXGplIjf4JIQmxBEARhb7BfxaNgxLp/7yHfZ4IgCD9rPMOkRpdzd+N1a9bRr18/pk2bBknCs4JkhDIYesUVKFPFlQFO+FU65i9Y4BvzSU1at6wtW7YwZ85s9629+wU1beq0uLpSohzjdfz48ck/dNt2yCHtyMvP37McTcoRBP785z/HcqMk/AP46KOPiEaiaNt2Q35SFOd6pCil2FywmSVLlrBsyTJWrljJyhWrWLFiBcuXL6egoKDyfHFFgpUrVnLTX25CYcQl8g7iJ0ZOJsBgMG/ePO677z6/j6jaH0fbtmnUqBGHHNIOjY1lW+4qYU7ZjnBhULKrhBHXjvA75odkpaneF0oNmDZtmpMAPQleH9q0bVOjtjtirPNXMo2jOqJCcPzsqlaFszX9z+zv7lV55G1tM2PGDHbvKsUwq84Bpm2IlEfYUrCFVatWsWLFSlasWMHKVStZuXIlq1atYt269Y7nkQHzF8xPXZbWdOvajf79+jkiZqrp7C4At2zZUiKRSOrGBebxT/5WVsQjQRAEoZYopfaPeGQHQvttBdp7sFdSEQiCIAj7iUQTRKFiooJnRQU9BoyEh/veqpWrGDFiBIcedijf/u/btMKEJ2Rcd911ZOdkx0KSAq3Jy89LKRIoFP/7dgbLli7zBY6knTJg0qRJrF612jd9ayo8JDPGPWP7T3/6E7tKdqXNv6S1Y+R/P2s24yaMS5o82QuT6tatK5lZGWnzxqRFw29/+1vCoXDSdpuGydSpU1m6ZClm2EkonM7DRSlFYVEhffv25bCOh9HhsA4c0u4QDmnXlnbt29G+Q3v+79n/i58fbvhaJBLh+uuvZ+OmjWmaq3nmmWdo2bJlSu80S1s89PBDfPafz5xx2QvOR4ZhkJ+fz/HHHxfra6BEJ6TPefflsWN5/rnnwXCPpeHvUOlh27YjhCrYtXMXN9xwQ8p+e7095ZRTatx+KxqlqKgovh376gZMw+mnnU5+bvLQNYXiiy++YNasmc4YVBEWphSUlZcx8KyBtD2kLe07OPOoXft2tG/fnraHtOW1117FCDkDvW3rtjRN03Tp0gVlKPec0dhW5QTg3g+bM76ZQdSqZq40QRAEQfgVIGFrgiAIQq1QOJ4Xr732OoPOGcS5557rPwadO8h/nH3W2Rx99NHUza9H23ZtefqZpykrK8OyrZQijUZjGibHHN2DO++6M6XR26VzF19oSSZwKBQPP/IwFeUV3hvxLgMKli1Zxl133Y2lLScx9F7wWgkStaP86co/pV/K3FRsLdjK5UOG+CFv8TjiUl5uHhdddFF8vpYaorXGNE2uGHqFs0R8QkG2bWMYBpdeeilFO4oco9sTmZLUuXt3KTfccAOz58yOE94875wmjZtw+eVX+J5VnlCmbc3YsWP5aNJHsT4m4fRTT2fYVcOYOHGiU24ab4p+/fqlFRJqimEYXHDBheTWyY29F5hvnoBk2VGGXTWMoVcMZcuWLUQrXPEhiXhkmAZW1OLbb7+lXbt2bNi4IaU4ZyqD7t260/GwjvGeZsGQrhTzvjxSzrx58+L3Uf5Oe4dAjqn8evlcfMnFKYpW7Nq1ixtvvJHNmzZjGCq1IKmgdHcpo0ePZsb/Zvi5pLxnQxlkZ9VhyJAhRCoibt6s9CfDmtVriEYtp62GE4oZJ367RSxftpyJ708kZEhqUEEQBEHwkG9FQRAEoZa4OV8WzGP+gnkYyvBz26TzBgLiEhonbusZlZkZmbz00kvk5ORUMnY9AaFrt64YpoEdtX1PjcSax44dS4P6DfjzjX/moEYH+T+f7CzeyaRJkxg9ejQbNmxw279nyWVThfR43kJvvPkGO3fu5PHHHqddh3bBzoJyVg0besVQ5i2Yl3TsPKHiiCOOoGfPnk4faiEgoeDWW27l2X88G9dOry7bsvlu1nf07NWTV8a+wjE9jsF0V95yciM5SZS//PJLx8j/dkasxwHxzdY2AwcOpFWrVo7RbjvHzrZsflzyIyNvGOnXn4ihDHLz8njr7bcA6N69OzeNvokHH36w0vbe6/Lycq677nrGjn2ZjIyMWoskWsPxxx3HGX3O4J/v/RON02/veHtL2DurWtm8/PLLjBs3jlNOOYUhlw2heYvm5OXlkZ2dzY4dOygtLWXRosW8+MILzJk7h0g0kvJ4GxhY2uLiiy8mLzEZtXLyJJlG6lXBFIpbb70NwzDo2bMnOTm5VFRUUFhYSO+TTqImTuiK2DnnCGYJbXaL+stNf+Hdd971k8/Hzkdnn2+/+5aTTurNiy+8wPEnHO+EnXlFmE4hM76ZwejRN/HlV18A+NtYthPSaGmLM8/sT/Nmzf3j0KRx47Tt/2bGN8yZM4euRx1FKBzCCBlu/qSY7lRcWMyVV17Jxk0bqxCP04fwCYIgCMIvDRGPBEEQhL2GwohbhjzOuNSVvSNSGV+ex5FlW7z00ksccfjhKQUAbWs6duxIo0aN2LRpM/HZdmN12rbNgw8/xNPPPE2HDh2oV7ceRcVFrFixgqLiIkc0ckUATxJw+lR9ZSbYv2T7KRSTJk/i44//xamnnkKH9h3Iyclhd2kp3333Ld9++62b7yd9naNGjnKSK+8F27V5y+b8ZfRfHDHGFUQ8EcnGRmGwdMlSjjv+ODp37syxxx5HgwYNsG2LHdt38P3s75k/fz5RKxros5drx6FRw0aMGjXK8TSxtO/VVV5ezh//8EdKy0uTiocKhWmavP7aa9SrWw87amOEDO6++25eH/c6GzdWDnNTyvGQmvDGeM4552zOO++8WnnaeAnEDcPgiSeeYPr06RTvLHbCzhLENk9AAqioqGDK1ClMmzYNW9vu+wrTMIhYsVw6XrLnWDxZbB4pDGxsunXtxhWXXxFXH4C2NBnhDLLr1IEdqT2tysvLGDlypCNGuQJXdlYdCjZvpk5OnWqPRVU5krTtjFXLVi0ZOnQo9z1wX3BvZxs3TGzxj4s48cQT6dixI8cedywHHXQQtmVTsKWABQsWMPv72UTtqLtnZQ+l3Jxc7rrrbsdDzhWcunXvlrJtpmESiUY4/fTTePrppzlv0HlkeGGfGirKK3j33Xe5/W+3s3q1G7qqVCxnVAKRSJSKior4lfAEQRAE4ReMiEeCIAjCXkG5xm8wLGtPfpn3jETDMHn33Xc5++yz0xr9CkXzFs3p3LkzmzdtRrnGcSy1joqFFqHYvXs3c+fOTdL2mOHvBVxVp/1Bo9EzzFP1yfMkiUQrmDptKh+rj5PWkc4M/eMf/sig8wY5G+2Jg5S7n5d8GuCee+/h039/ysxZM+PCzbQrIeH+/cPCH1i4cGGc94mH53GWiEYzatQoDj30sEohV4899hhz589NK9D169+Pvn37+gKOtjRmKMSHH37I0cccXane2N+KIUOGcMwxx9CqVSu/TzVFOUoXAM1bNGf8uPGcO2gQkagTAmm4Ao/XV3T8vr4Y565gF7XsuHbE2hs/dgZO6GRGKJNHHnmE3Ly8WHtcAUYrJ/SwXbtDWLd+bco+eF5CWhOYn7UXPRK9j4KhlnfeeSffzZzJv6Z/7J8X3jXC3xbNosWLWLRokT+Gfh+JP17e9t7zkCFD6NS5o5/gGgM6duxE08ZN2bR5UyXPR0/sKy4u5sKLLuTCiy5M2if/GpBGOAKIRiOUlZaJaCQIgiD8apCcR4IgCEKVOAbSvjOSguKKqUxatmjJtGnTOPucs9PmCApy3733Ec4IkyrVtSeEpMqxot38J3369PHfSyk2pPKC0jGDNVhPg/oNyMnOQWH4Rm3ynEbp6da1G089+VSN9qncSDcEKGbHE84IM2XKVJo1aRbzegnkQQp6wkDMG8f7zBPnknH+7wdz880347kieQmLZ347kwcfrBx6FuSgRgfx9NNPY4bMOMHKNA1+0/03XHP1NcnFOq1RQMmuEoYOHRp3XPYEf18Nffv15cMPP6B+vfp+343A7VS6pOLVxROk6tSpw7SPP6Z375OTpvPxhJQ//uGPVZaptcZQlc+OPU24nko08cozTIOXXnqRQ9sf6gtHycYmGOKaKkl93DmD5qwBZ/HkU0/Gn4ca6tbNZ8SIEb6HVbL6bNuOS0RvYAS8vwiIfW6hKbBtm0g0ElsMQBAEQRB+oXjf+fJ1JwiCIKRkf/yo7hiGMUPvlltvYf68+Zx8Sm+sqF09k19Dz149GTVylC8mJHotpNnVFwFOPflUHn300ep7EyQz6AP7ahzPjCMOP4LXx41LK16lQ6Pp2rUbEydOpOFBDR0PHk8z8Vaxq25ZnreIF93nNqdRo4YsWLCA3/32xJinVkIibR30sIGkxn5QCLzi8it45ZVX4nLaaK0pLizmhpE3UFxSnLSvhuEY8/fdfx/NWzQPRiE63ke2c7wefuRh2rZpm7KvCsUnn37CY489XmtRx/P4MU2T008/nWlTp9G0cdM4AWlPVuhLho1N29Zt+eSTT/jtb3/rlJim+YPOG8Rxxx5fZR99D6Q0Yl9tUSi07QgwLVq04JtvvuHUU06tJLJ57akOhpvAHuDiiy5hwoQJlTdy58jNt95Mh/YdnFDBFLe5nkAU9Er02q6UwtIWx/bqRcuWLVO2SWvN8mXLnb/3LEWaIAiCIPys2C/ikQo879vfrgVBEISfG57BdurJp7Jq5SruuvMuJ0RHg2kY1RZytIa77rqLUaNG+QZ99ep36NunL2+/8w45dXKcZM5VGbbV8D7yiFpRBgwYwKSPJpGVkeXuXn3j/aQTT+Ljj6fRokULtJUkUXENdIBKiY7dfZVS1G9Qn08//ZSb/3pzLP9RJQEpdWXedjl1cnjisSd48qknya6TFR/KpRQPP/wwX3/9ddIyDGVg2RYnnngiQ/801BEiTJU0WXpWVhavvfpanCdJMm7/29+YP3/B3rkBcdvRo1cPlq9YwV133IUX1pfKu6amDL96OPPmz6Nnr56YISNtuxWK+vXrM378ODp17FQtAaCSBVUAACAASURBVCnWlVoKaqm8jwJ5zxo0aMBHH33EnXfcSXadbL/emtSttSZkhrj33nt59ZVXyMrOihM+g9hRm++//54O7Tv44m1NsLXNHwf/kX//5990PKxj6jahA+Gv+0CIq2aRe3NFSEEQBEFIx37JeaTcX4OU+7fSsR9KbQ1avvcEQRB+mrjX78ysTOrXq1fLwhThcAjTNGlQvwFt27bl8CMOp3fvk+nZswd169b1DSZTVRYLqmqnAkLhEA899BADB57FLbfczMyZsyivKEuyuVN4Tp0cunf/DSNGXMvZZ59NOBymoqKchg0bUV5ehmXZvveVJ6bk1MmpQY+dnUOhEKZh0K9fP9auW8tdd97F2++8TcGWgkrbe23LrZPL8Sccz4hrR9C/f3/Hk8I0nITediBfje0KAlpTp04O9evVd1ek8gx4p8SMjDCWbcXlOvKxvU2dkLD777+f0aNHM2bMGD766CNWrlxJWXn8OCYKAKFQiM6dO3PeeedxzfBrqF+/vrOdrTFMNy+RhpkzZ/L0M0/ToEED34Morlxb07BRQ954401HODJSzAU3788JvzuBq4dfzVtvvUU0Go3Pq0TsWN98881MmDCe/Pz8WhvchnK8n7Kzs7j99tsZcd11TJgwnnfeeYeZM2eya/euyvsEciMlUic7h06dOnLxxRdzwQUXOMmjbWe8qhNyZ4ZM2rRtw+zZs3nvn+/xyquv8MOCHygqLqa8vBylwIpa2Np2lro3FLm5uU65NoTDYfJy8lCGIhwKOznDvLBEW1PPPfdrIsQEwwwzMzO57bbbuPaaa3n88cf5aNJHLF60mPJIedoysjOzade+Heeeey6jRv2Z/HynjUqnmBNuLq/cnFwWLPiB119/jSefeJKFixYStaLx7QucayEzRN38ugwYMICRo0bSpXMXDNOkT58+fPPNN84Kg9rtUyD5+ldff0Xp7lJfFFNKkZ+XHzgHY3g5u8xQ+ltvb9zq5NQhPz8f0zCxtY5bAVJryM7O9jqS8vxAOXOjbt18NxF/TDz0hOGGDRv6oazpVu0TBEEQft0opVDa2k/rjBow7In3ma5/w9qMpmhCeLk+RTwSBKG2OEuGu/fLClrVh2cHwzFAQxtHtZaLzR4TiUSS5papCQon143naeQICjgrcNnaX4FrjzHwhRVleMvAL2Hp0iV8+79vWbp0KaVlpWRmZtK6dWt+85vf0LVrNzp0aI9pmnFJhSORCpSbiNkwDGfZeaWwbY0VjfqeD55nw8SJEzl30LmVPHQ8j5gTTjiBT6Z/ghkyffGmsLCQb//3LXPnzWXFihVs3LCRevXrc+ihh3Johw4cddRRtG7TmnA4HGe4eoKLN47u4GLbNtFo1DU24w1NrW0Mw8ntYprJDcSgR0rQSLYsi4ULF7Jo4SKWLlvK+vXr2bBhI0pB3bp1adGiBb169qJ1m9YcdthhztLxbh1+3pjAnYZt29haJw+J1GDZNiHTxAybfvhTVcfdtjRWgjgQLNMwTaxo1MmJVVNhsioC7tWRiijr169j/fr1LFiwgP9+9l82bd5ESckudu/ehdaa/Px88vLyyc3Jodexveje/Te0b9+Oli1aYobdcbOd61icSJiGmACnUAqiUYtoNMK2bdsoKipiV8kuyivKMQ0TwzTJzs6iceMmHHRQI3de2754YGsb0wz5YkUwv1XI3LPfHL35atk2hlJEohFWr17D/PnzWLp0KatXraagoICoZdGgfn0aN2nMcccdR8uWLenUqROZmZlOwusEL7iUuOeDYRpUlFUwZ84cVqxcwYwZMygo2MKukhJyc3Np3rw5HTt1okuXzhx66KHUr18/bvW0aDSKZVmYpunUq5Q/b23bdvNIGc5xc/RbotEIpmnGhWq6gwBKYXjXwFSiqOuiX1ZahmmabrLxmHiklPLzOZmGmXJuaDS2Zbtj4eQACw6dJ4aDIhQyY20UBEEQhAT69u8LIOKRIAi/DEQ82g/si+HbX8aKin/WNviRTjrhOQ3ealq+V0V1xaPjT+DTf38a+2VfJSQqDtadOM52zPhGxUQehXIEs+DnqV4nhqrVhOA4eUXYsfc9ocPzgPDEKlAYe1JnKk+KvcW+KD8xJt8dK0/8sW3bEQNCJllZWXHHI+54BsrSdvxcqw6VVnszVMrz1tEitC/gBvQn/Bs0t33KVNiW3rPj6bfN+d+fl4HzLi68LODZExzDPRX9NAHvtaqa75avtXbEpzRhs54nXWLZcYJpFeGGtcIVhdIdE1/4U86k9wXnFMKtIAiCICTDE4/2S9iaIAiC8Avg52xcJBiiWmuUNmKf1QA//84e5BlSZizMTFvaF4PivIjcNmkCApdfOSi9d/LqpCVYrzd2XviUjn9feaKRrX3xtqocRAeUfTF0gfmg3TBBw4gdU0MZ5OTlOGPkCQ6uAKcSRW23LE8srAmJ+/gCB/E5mZQnJngHr6ru2a7A5LVvD3A8X+I75Oka/sqD7gRSyvnMtmxMw6iV4KdQsTxhiQJfUONJmLKeN6K/bcI2SlcWwbx+audETS/81XIeVkcQVironRg4fkGBbi+0RRAEQfh1IOKRIAiC8OvAM8jZMy+G2ttXsTqDRl+q5NcKfO8P30thT1/X1GPEJuaB4tuenrdVoJ2BtnqfO8ZzzFMKAsJTdfiZG7JOaBXxHkBubqrE45IiBdLeawsJ88w7B5I8+yQIo8mSq+8xnnDhnwcJ9cS9BtPcyyJkkvFWST5LOTZ2wo4pxsM/E/bxXK7RWZ2sH/vay08QBEH4RSHikSAIgiAIlfFEhISQrHQGay0DcYR9yd4QfvYGB0Cs2OOQzXQcYNFlr6yyJsKRIAiCUANEPBIEQRAEITVBEama+IatTngtCIIgCIIg/Cw5oEkJ5AcPQRAEQfiZUMM8T4IgCIIgCMLPHz+H4/6ozA6E+Nsq9tAgix8JgiAIPwuc6K2aJ8sWBEEQBEEQhJ87P+HlUARBEAThJ4gIR4IgCIIgCMKvDMl5JAiCIAi1xLbjFSWlDAzluPlqDWbIxF8XXBAEQRAEQRB+RiilRDwS0qNcQyd9eKFnDalK7xjV2r92+EtCJ8HQYKv0mV4NrTHcdWttDLRSSe07pWOr2ib2RwGGtlFoN6LFwN4Xq7sIgvCT5LjjjuObr2fELT2utbfcuElWZtaBa5wgCIIgCIIg1BIRj35lBEURTwjx/gi5P4rbCfs4wojzmeUaRoZbko7JRAmCi+2/7wkroLGVwvaiJd16PVHGa4+tYnXaOLGVzvtODUorDPe1V6c2LJRtErbBUjqWZ0vhCEM6Xszx9jOxsL6djDXnc6hThza/v5xNZiMiZg6WchuibRQ2tjZBKZS20Vo5DdcGKNDFW7A/eBlKV9K4dx+MtiewJdSAqGEEVhv6f/buPE6Sur7/+Otb1T3X3icLu9yLsCxyeYBg1EQORVGioIgH+SEQQDAJmPhTf6Im0YhRNKgoIqLEqNGAoIB4RUQUZFEu5b7Zmz1md+7prvr+/qieY49hYXbnfj15NLMz3V397aqamqp3f77fr6TxpmcMpJ3nzWPnefP67ti8U7jjJEmSJGkMc8yjCSTQV0lEyIg9YUzeF9RkochDYihueSh+Vq2NEZtESMiASKyFMZFIJCMQewOSJCaUqELIi+cnCdUkIScp2tCvWCmGIpzpkYQMyDYJgIp/FxFTT7tiDAQCaYQ0S4hEupOiyiiJRWtiCOQx3aIKqHYvIURY/xTcdw38+QfsXF1JSoU0ZKQ9iVaSEJMSpAESiElC0R8l6Vkh1FUj/PlmuPf77LbhLiZl7SQx8WJRmqgixLx2YK0d86IHBEmSJI1RVh5NJLX8JA0Q8pQ87yAnEEMKpZSQJNBdgSTtfXAIgRSIOWTVKmkK5bREV+zpupX0XhyVQkaplNKZ9QQ+dQCUQ5GxZHmAElQzCHmVSZSoViKxLiEm0N1WgTSFGEiShDSBPIOsUiEpl0mAJI/EpOhWlvW0Kw/U1UGWAdWijKlUqlVSZZAlW1ZTxVAEQWlMqEaAZpLYSB05DaGebkqUAtSlRXhWyYqQLWQQ0uJasD4vQqhqCCR5WkvcEtJYoiHJKYeM7phCsOpImnBCUSXZV+LJgN1rJUmSpNHO8GiCiEDMc8gj2fKn4c4b4NFfQucySCHucQAzD38r+S6H0VE3k0oIxBjJ21qp3vFTuO96aHmELOkmm7uQBa86ie59XsmzyZwiGFr1BJWbf0ClewX7H/cmmqftz+rybKohUHnyQfjN9yBWOeSt/4enS7NZ+7830brqfmbuPZ+GXfZk+f/eACvuY5cjXs3sV72Le1umk992Lfz5J9C2lDwtU16wHzOOeBvte72USjIJKJGFlFjtpvt3P4V7fgJrHyavSyjvtT9T/uIdrJv3YmJIgIba+Ee1FZIDqx+l62ffgCd/AXk7sR3u+fanaJ+6J7sf8dc8evPPIW+BGdM44A2n8Wj93nSWgIfvhzuupj1Zx5z9DubZp9bCygeh82EInfzp5qtpvedeZhz5Vqa86LWsT2YX69PrRkmSJEnSGDQs4VGtJ1FRORL7xs8JQN5bwaKhFSHJ4eElcM2lsOJWyJ8lJBWodhOX/om19y9h15M/RGm/17GxNI2uFc/AdV+Bh26EylOEpIUkA5b9gaUP/ZrZx53FLq96D2vTmWSd6+CPP4W2P7PrK/YiTt2DtQFimpAtexzu+B8orWXWW49iRXk2PPkA3PtD4jJY3tYGG5oh72Le2tnEx++DX/y0CLe6HiMpl0grFarLbmflfdez4KTz6HzJGaxP5xLb18IPL4U/XgOdy5gU2miL7bQt/TkdD/yc/U7+AM0L/5r1aYlKKEEsKolCgNjaDHdcA9UngG5i1kXzvTdQnraAvY/+Kx4Nz8Ifb4S0nc5dpjP30HezojWh8sMvwNJfwjR4yasO5qaf3wxP/R5YRyDS+uQ98OS9zF24N3Hvw2hOZmBOK00wPeWO9lSTJEnSGBZqhSVe0U4AgZxIQplA5dc/gWfvYNJsePWb/o72Gfvy9LMbefz6b8Pqh1nz2/9mn31eTEc1p+uGq+CRn0DyLC99w9uYdsARrG3u5u6broanf8+an3yRF+++C8meR7M0Vom1dLBcCrUxlUIxvlHe3TcodymlmlWLvnMkNC9bDjFjwUEvpXGvg0gXLGTJr26Ch39DOW3j5W87h7jwMDa2ZPzp2ivhmSUsvfZSXrrny+icdSStt10Pf/oR1D3DYce+iymLD2fFmhX8+bpvka16lMf+5wss+ttdaZl1BN0hIQ/FmEtphLjzHsw//99Zd/NVtN5xAzQ0cdz/+QdaGndh9eT9mf3XB7PmqWdg9RIeveaL/OWC3Xn6+p/Dqt9AXMexb/8IT888gqZ3H8SUlfey6tufIHY+w6vedBL57kfQPO+lrE6mkFl1JEmSJEkawwyPJoBYG8g65BE6WoCEtjxh9awDaJ73GlrnNTB5ygGUl99FfX1KpVqi+7E/wiM3Qb6Cxa9/O/EvzuDO+r3pXtDErHnHsPZLZ8LaJSz/yX+xz2kHsTpGusiAKjGvANXaPNU5hGrt0/ei3iz2jHhNKzGu42VvegtNL/9b/jT5JTyyYiU8eQ1UnuGQ159C98vO4M+N+5LHQDhhT+L/XAiVpUxZ+SDTu6fResePYOOTvOToNxBe/S4eTfZi9a45NB4Al3+QzhUP0PHwHUx5+WJa0zJQzI5WitDVNJvVe7yezp2egXgLlCbRsuAveLjpxWxsmEZ3jKSn/gvZl8+Hlj/w26/+HTSvg1KJg950Gmv3Oo4VdQvI5qWsrpsO9ftAxwa65ixm1R6vZ0XDQrprk7IFK+wkSZIkSWOU4dGEUFTbVJIIi14Mj/8cVj/LnV/6f7DnQdTP24/6vQ4nOfQEqpNnsaYE3U/cAJ3rYNJ0dl18OA+WJrMhLQMQ58yHF78Gbn2ItSueYr+udsox0JVXgAxiBWJO7A2Msk2bEym6dIQUGndi+mFv4U+T96arfjosvwuqLVCewvz9j+DedA4ZCVlaJtnnZcT3Xc7U2M4TTfUsu/9RWP0waamTjlDm/ruW0FG/ClKgbS3UA+0lWh6+nZ0OPYbV5WlUQkoSE7pCkW3llGqNKQFVMqCDSGcWIaSUdz+A7PjT4JpVdDc/CbHKgv2PYMZL3sxD5Zm0Jgkx1JHEhCxWge7iPYaUSm2GutpM3g6VK0mSJEkakwyPJoRat6k80PQXb6G90gq/vwLWPgT3PU7Xn+vp+tUMmP9i5r/2ZGYd9Jc8u7EZqFBuaCDWTYc4hXKsJ4sQQh3M2LkIf/JIfbWTciwVU5/FSBJzSnlOGiMVUopAid4EJfZrV9Os2SRN+9Ke7lWMydT8BHS3QDnQ3pjSXKqnO9QVMxclTeQzX0RzgOYEiA9AtYWMKvf/7ArgSmAqRYCTAh2UqJKse5yG2EUMeVGBRd/A2QGgUgFySKBEhZRICEUVVXcs0bDo1XTWXQldKwl0Mn3+3mxsnEUrTeSxBEleC4/KQCDNc+oI1OWRrtrMcJIkSZIkjVWGRxNAiEW3tSwp0d44Hd7wXppeeQyNT/2ZtoeW0PXM3cRld1Faegsrr36QxfOncG99DiRknR2klU7SWKQ+IaFIf9orEFPqs5ymPO+rqomRNOZUQ0JnUiKECLG+N1gKvSU4RaTS0NhIVummPu2mI8+hvo5i+rd2ktBFCJ3FgOsZZLEdlj1D6NjA3J1msCpWIamnlEVe9pZ30j1zL/KkDmigM0mIMaExJDRNmsa60gySWE81JL1tDbH4BeiqhVMACWVKsQFiHXkCSVah80f/DW2rgE4iVf5080945eKjmLLLTrQmkwl5IOTUuuklxWoIkSzkRNJNpuqWJEmSJGksCSEYHk0ECYEsQNLVTH7T96BtKXWHHkay+Eg6D3kjjd1tdPzyP6nedCm0PEv7yofZefc5rLizibxjKU8+9kfC3JeTJ1WytERnywZ44A6I3dTP252Oplnk3SmEeiBlzYaNdKclSKBMoPuZp4FuSHJizAlpWjQsQJIE8jwnxgpZDLDzrlA3GdpbWPvkMppm1LEm5MX42vf+Eb77CWLnfez/3n+kNHU3ljVOotoa6Ux3ZcMBZ/B4w4JiwRsr8McfQfvTzFo0l7q6OXR3A1kb1TyHcj1JQx3Vaq0hoQh5YimnI+kkD02QBPI7fgx/vhHytbzsL9/Aklt/C52t3PaDL7P4rIVsKM2gIzYSQ+1XKUYiUCGnmmQQE9K8qD5yzCNJkiRJ0liUjHQDNPQyisKXJA/wwK3wu2/Ree3HmPXkL1jQ8gwNnZ2QzIB0MtQnVBsnM33hYTD3QMgmcf8tPyJ76OfM3fgE5aWPE6//Lqz+M9DN4iOP5tl0OjTNgabZkE7i90vuJN24khkdq+i+7xa472agWhs1OkIImwwAFIE8JMRYItl1b5i7CMJM7vvpfzPpiV+xa/uT1K9+HH71fWh7hPL0JrL5C2nf7VDY9zUQp/DQLVcz55Eb2aPlaZKNq+B334br/glu+hj7dz5NVzWD266Hz50JnzuFmQ98h507V1AOEcp1kEfobKf1mUdpWPM0U6utsPQJuO4S6H6MufsfzLyjz2TKGy4AdiF78i7W3PxN9u5+ismxnVIpQlqUZS1fvpzqumZKG9fQGDtJyIv3LkmSJEnSGDQslUexlhXktX/nPQMIOwPVsKprnET1tSfC/zxA57KHefBrH4Tpu0JXButXQ2Ujux56OI1zD2B50+6UjjuV6neWw4q7eeIb58PMBdBVhuZnIW9mt5e+ivJ+r2ZVOoNsShPs92L4ze+oPPQHHrnkHGJpcrHc2EISN5BXG6ASCXU5lFIIOSELxX5BIJJSmjqP7je+E779KB2r7uGBy94P0xdAaye0rIS0mSOO/SAbGxfR2rAz/NUpsPwh2pffwpKvXwgzv0JerYM1yyBp5qCjX0fc9QC6k3pob4ZVSyjFpRzQupB12Stort8J5u4J9ZOgczV/+PrHYfaeHHLqhdz1/e9Ax0OUmiq8+M3v4O6mAwhHHApPLId7v8Xyn13FTnssYtqL3kTLpEl0lIvw6KlfXQV/uJmdjj6HhsPewYpymWiRnyRJkiRpjEo//rGPf3yoXySGotjkx79/kMfYhY3pFIrOVDgF1TAIFNugAjTtvCeVGbvBhnZoW0VdxzLoXEM6Yxpzjzie3V7/Pp5uWsTK8izSnRaQLtyfrKUdNqwk7VhOfWUN5amT2OeYdzDn2HN4tGkRa8tzyEpl6ubPp9pWgZb1lFqeoK66nmn77M9erz6R1c3dMH0+O738WNYm02l/+jGobiCfMZM5hxzF6vJMKtSTZSnpnPmEhQcTV66ClpWkbU/TWNpA2HlXXnTCBeT7v4VH6nelM5lEecY8SgsPJNvYRmxeS2xfRl2+DObMYa9j30H5lafxUON+dCVTyVY8DRuWk09rpHHfl9M178WsTWeSTptL3l2BaifEjdQ1JNDeTMuzz0C5jn3+4s1UFx3F0+Wd6G6cQ/1Ou1BdtRLq61i5toVZCw+ma9IcOmfMKsIy2oEK8150AKWd92dDOo2s31hLGjoh9H2d1ghvPADmA029Y225FSRJkiTp+frOd78DQIhZHPL+NHmAJMAZ/3EtP+clPFO3M5GSlUfDqLh2jpRiYFKoMKlrHZNbl9OYbSRJEip1k9jQOJf1pVl0JQ3ECJVYoZTClM6NTG9bwdTuFpJQodrQQHvTAlaX5tAa6ohAOeakscKUagdNbc9S1/EM9fVl8qnz2Jg10JB1EsloT6fTXDeXpLvCrMoaSmk3G8qzaAtN5JRIgM5SlSTmzKw2M6NtKXXdG6lPUtrq61lTN5+20kw6S/WUqgkhRioJzKh2MWPDU9R1r2ZmCdoaJ9FRP53l6Rxay1MgrzK92sbsjjbytIPuFDYmM2gvzaSa50yindmdq5hc7QQCHUmZJCYkSUJHeQrry5PpTOogBprynMn5OhqzjUCgNZlCW2kyMZao617P1GwVTbGDamkq68q70JxONjwaBjEWx5lIER7tNgO+8nZ4GTArx1JHSZIkSXqB3nD8GwBnW5tQQgzECK2Uaa3biWdn7QTkBHKSPCOjTAwJ5LUxkkId1TyyvjSDDTOnUZdDyBNiAt0EYkgIxQz35CRUQj2ddfUk6XTqpu5FkkCFhKwcCFlGpEoI9WQB0rp6VtTNJ8acGPuG3upOgDxSyhPWlOawfup00lgmCRldSZUYG4qUICu6QRZDb2esL5dpn7EvhL15POQkeSBQJitBEiM50Fyupz2ZRjdVkiQhjbE3aWgrNdFZXkBdnhJJyUMgoUKMKXkxalFRtBJyWpOUNuaQ5LOAnEoIkKQkeaSjfgZt6cxicjkScpJat83e0hdJkiRJksYUw6MJoqfrWtbzDbV/kwAJISn1ziYfQt/M8oEiGIkxpSsUM9H3Fm/0FHLEfq8RISbQVYt1AGIOIUmBtDdCyQO1QCbZZBr7ottRiWpSvEge6shrP4t5MSNaqPVNCkAWAiEUba8k9M16ltTeZizGUwokEEtUQk4IRTuqIdTG7i4G4sqpp7O30QDlTVdijPSMMd8zyHdv98u8eB2SMpXam+wZ56t3PUqSJEmSNAYZHk00A2QYcYB/b/G4rTy//8+2tviwrdxki/tD7yDrmy5n05/km73uJm0Lm7+PIujZfKFD2WfTWiNJkiRJ0niQbPshkgpGQZIkSZKkicfwSJIkSZIkSQMyPJIkSZIkSdKADI8kSZIkSZI0IMMjSZIkSZIkDcjwSJIkSZIkSQMyPJIkSZIkSdKADI8kSZIkSZI0IMMjSZIkSZIkDcjwSJIkSZIkSQMyPJIkSZIkSdKADI8kSZIkSZI0IMMjSZIkSZIkDcjwSJIkSZIkSQMyPJIkSZIkSdKADI8kSZIkSZI0IMMjSZIkSZIkDcjwSJIkSZIkSVsIIQCGR5IkSZIkSXoOhkeSJEmSJEkakOGRJEmSJEmSBmR4JEmSJEmSpAEZHkmSJEmSJGlAhkeSJEmSJEkakOGRJEmSJEmSBmR4JEmSJEmSpAGVhuNFQr+vIRa3nu/jcDRAkiRJkiRJgzIslUf9w6ItbqZHkiRJkiRJo5bd1iRJkiRJkjQgwyNJkiRJkiQNyPBIkiRJkiRJAzI8kiRJkiRJ0oAMjyRJkiRJkjSgYQqPnFJN0siJwaOQJEmSJA1WaTheJAYIQCBCiIQQiPRdzIWexw1HY8ahba238Hzud+VrzIsEipRoW/u8JEmSJOn5G57wqOdrKAqdAikAeSiCpb4HDEdrxo7wfNfHNq6U4+bLClve79W2xroYa6F0kVSTU9yKO4HgTi5JkiRJL1QIYXjCI6D3oq4cK5RilYQSxFqA1O9BEzk/6r20jZt9vw39q7i2Jtn8zrjlo2PMCZtfXD/v9EraAXr2y0GGPDFCQkqsLadUC5Py2n1GR5IkSZI0OMMSHiUxkAXYf9fZxJiyPukkiSUSUnICecjpiT+K676JG1r0L8R6vra321oSilfdIjySht1gfgMKMUIIRZQaI8ydXmZnoA6IaS0LnbiHFkmSJEkatGGrPCJWOfuEI2mluH5Lajev5zYd+6m7CnWlvu+fT5yTb+P+bS1n8+dP9O2hsav/+GkBKAMN9B1njEclSZIk6YUbtvAoIaE+z6kn9CsuyDCqAEKg0tnJt//zP/nBD37Aj3/8Y9Jy+YV133muh26yigd6YO3SOnp5rbEqr+3eCX2RaSCGWNu73bclSZIkaTCGLTwKsRgsuyebCLWXj2EiD61TdK95/NHHeP/fvZ8bb/oJAJdfcRVnve/sbZcU9SxlG9fEL+iS2etrjVmh39e+HTlEYyNJkiRJ2h7D122tZvOgaOIGR9Dd1c3V11zNRz78EZ54+klSEl5/3Ot5zWteM+xtmcCbQeNEIBnpJkiSJEnSuDTs4dFEFGtTPfXWPwRobm7mygENAgAAIABJREFUgx/8v/zXt79NW0cbs2bO4sILL+Tss88mTdK+J/cfxGWwr7+N6i57qmk8cEY1SZIkSRoahkfDIKQBcshjJAmBZUuXcdLbTuK2228D4NWveg1f/vKXWHzA4r6hh/Ii7emdAe05wp/trd6ayNVfkiRJkiTpudnPY4hFYm/wk6SBBx58gDe9+c3cfvvtlEt1XHD+Bfz4xz/qC45iLTiKtUolp6OTJEmSJEkjyMqjIRYIRbc1YMnvl3DKKafw2OOPkSYpF3/uc5x19tmUSmlvQBSJRbVRQl+YFGNfBZIkSZIkSdIwMjwaKv3GKgohcMcdd/Ca17yGrq4uZkyfwaWXXsrb3/723ofHGDcNieKmy4rEohJpaxmSlUmSJEmSJGmIGB4NoayakaQp9917H6eccgqdnZ3MmzePK664gmOPPRbYNDRKklovws1npOufGNXGRJIkSZIkSRoOhkdDJUJaTlm2dBmnnXYajz3+GDvN3YlvfvOb/NVfvZY8zwkhkGc5SZqSJLWqos0qjrZaVWSlkSRJkiRJGiaGR0OotaWVd7/73fzhj3cSCHzhC1/gqNceBQHy2mxqaZpu0lWtd7rx/sVGsV9aFDarRNrssYNmICVJkiRJkrbC2daGSJZnnHH6Gdx8880kIeGS/7iEk08+mWqWEULY4va8bC04gr4Z2bbnJkmSJEmStBVWHg2BPOZ8/etf5/s/+AGRyEf/30c597xzybOcurpy0aUtSTd9Ui3ACZt9DzjTmiRJkiRJGjFWHu1AESDAww8/zCc/+SmIkde8+jX80z/+EzFGkjQpBsi21EeSJEmSJI0Rhkc7UEggyzLOO/c8nln6NDNnzeIrX/kqTZOa+mZVIxASK4kkSZIkSdLYYHi0g1122WX84n9/AcCnPvlJ9lu0L0RI0qTofpYA+ci2UZIkSZIk6fkKMYv2odoRAqxetZr9Fy9mw4Zm3vjGN3L11VcXlUY9YxYZHEmSJEmSpDHijW96I2Dl0Q4T88gH/vEDrF23lob6Bv79M/9OkiSbDnZtcCRJkiRJksYYw6MdIBK5+567ue6664DIhz78IfbYYw8cF1uSJEmSJI11hkc7QAiBL3/py2xs2cg+C/fh1FNPJS2VRrpZkiRJkiRJ283waAe4//77ufbaawE462/PYv6C+TifmiRJkiRJGg8Mj3aAz3/+8zQ3NzNt6jTefvLbiXmEUHRnkyRJkiRJGssMj7ZHgI0tG7nmmmvIY85pp72X+Qvm97vb+iNJkiRJkjS2GR5tjwCXf+1y1q1fR0NDA+eeey7EYgwki44kSZIkSdJ4YHi0na644gqSkPC6172O3XbbreiyZnAkSZIkSZLGCacEG6RI5J677uXBhx4kEDj11FMplVKoZUd2WJMkSZIkSeOBlUeDkMeckASuvfaHAOwyfz6veMUregfJNjiSJEmSJEnjheHRIMQIWTXj1ltvJRI56qjXMmvmLMgdJFuSJEmSJI0vhkeDkKYJ69au44EHHgDgmGOOIS2nI9wqSZIkSZKkHc/waJDu/MOdrFu3jimTp3DQgQc5SLYkSZIkSRqXDI8GI8Ddd91NZ1cne+yxB7vututIt0iSJEmSJGlIGB4NQswjt91+GwB777U3TU1NI9wiSZIkSZKkoWF4NAidnZ3cf//9ABxx5JGkpZSY229NkiRJkiSNP4ZHg7Bq1SrWrl0LwO677w5ASAJOtCZJkiRJksYbw6NBaGtro7OzE4CFC/fuGyzb4iNJkiRJkjTOGB4Nwpo1a+jsKsKj+fPnQ4QYTY4kSZIkSdL4Y3g0CI89+hgAkydNZvLkyUQg2GdNkiRJkiSNQ4ZHg7B02VIApk+fTgjGRpIkSZIkafwyPBqE1aufBWDSpMmkaWmEWyNJkiRJkjR0DI8Goa21FYDGhgbKJcMjSZIkSZI0fhkeDUKlWgGgVC4TnWJNkiRJkiSNY4ZHgxBCAgTyPBvppkiSJEmSJA0pw6NBmDJlChDp6Oggz/ORbo4kSZIkSdKQMTwahNmzZwHQ2tpKtWr1kSRJkiRJGr8MjwZh9913JxBYt24d1dr4R5IkSZIkSeOR4dEg7LNwHyKRtvY2urq6Rro5kiRJkiRJQ8bwaBBmzppJXakOgKeefMq1KEmSJEmSxi1jj0GYMX0G06ZPA+CRRx8Z4dZIkiRJkiQNHcOjQZg9ZzbTp00H4OmnngYgjmSDJEmSJEmShojh0SCUy2X2X7w/AL/93e+odFcxPpIkSZIkSeOR4dEgJGnCK17xCgCefPJJ2tragDCyjZIkSZIkSRoChkeDEeGQQw6hrlzHk08+ydKlzxDMjiRJkiRJ0jhkeDQYAQ488EDmzJnLxpYN3HHHEvIsJ9p1TZIkSZIkjTOGR4ORw7yd53HQQQcC8Itf/Jwszxz2SJIkSZIkjTuGR9vhyCNfSSDwi1/8grVr1hIS+65JkiRJkqTxxfBosCL89QknUC6XWbd2Hbf+9lYI2HVNkiRJkiSNK4ZHgxVh0eJF7LvvvhDgv/7rv8gqRdc1AyRJkiRJkjReGB5tp1NOOYUsz/npTT/lmaVLCald1yRJkiRJ0vhheLQdYhY588wzmTF9Oh1dHVx++dcACBggSZIkSZKk8cHwaHsEmDlzJscddxwAV155JS0bWzA7kiRJkiRJ44Xh0XaKEc45+xzq6+pZsXIFN910U/Fzxz2SJEmSJEnjgOHRdgi1Dmovf/nLeeUrXwnAV7/6VTo7u0a2YZIkSZIkSTuI4dEOkJZKnHnmmZRLZX5zy2+47Xe/IwT7rkmSJEmSpLHP8GgHOe71x7HfvvtRySpc9rWv0d3dPdJNkiRJkiRJ2m6GRztAACZPmcx7Tn0PAD+67jruvfdeCBCjYx9JkiRJkqSxy/BoBzrnnHPYdcGudHR18KlPfar4ob3XJEmSJEnSGGZ4tKNEaJrUxPn/cD4QuPGGG7n11lsd+0iSJEmSJI1phkc7UoT3nv5e9n3Ri+iqdPHpT19EtVod6VZJkiRJkiQNmuHRDhRjZPLkyZx99tkkIeHXv/41t99+u2tZkiRJkiSNWcYaO1AgEELgne98J4sWLaKtrZXLLruManfVsY8kSZIkSdKYZHi0o0WYNWsWZ555JqVSiWt/eC233XYbRFzbkiRJkiRpzDHOGAJ5nnPyySczf/4CWttb+eKXvkR3pbu40wokSZIkSZI0hhgeDYE0TZkzZw7nnXcuAD+67jruvPNOiMW4SJIkSZIkSWOF4dEQCQTe+97TWbTfIqpZlQs/eiF5XgRHEQMkSZIkSZI0NhgeDYVaNjRt+lQuuOADZHnGzb++mV//+mZCCAT7rkmSJEmSpDHC8GgIxSxy4lvfykEHHkSWZ1xyySVFsGR2JEmSJEmSxgjDoyEUQmDqtKmcddZZpCHlV7/6FXcsuaMIj4Ld1yRJkiRJ0uhneDTEAoG3vOUt7LvvvmzYuIHLLrusqD6K4NjZkiRJkiRptDM8GgZzd5rLu979LhISbrj+Bh544AG7rkmSJEmSpDHB8GiY/M2pf0NjYyOrnl3F5V+7HAIkwQRJkiRJkiSNboZHQywCMY/M23ke7z39dAC+973vsXbNWte+JEmSJEka9Ywvhljo9/8zzjiDxoZGVq5axXe+853+D5AkSZIkSRqVDI+GQU8+tGjRfhxz9DFEcr7xjW/Q1dk1ou2SJEmSJEnaFsOjYRNISymnvfc0AB568CGWLFlS9GuTJEmSJEkapQyPhkkAiPCKV7yC/ffbn46uDm688Ua3gCRJkiRJGtWMLobZ7NlzOPZ1xwLw85//gva2jhFukSRJkiRJ0sAMj4ZZSODoo4+mob6Bhx9+mIcffmikmyRJkiRJkjQgw6PhFIAIL33JS5k1axatLS388pe/HOlWSZIkSZIkDcjwaDjVBseeM3cOhxxyCDk5v/rVr8jyzHGzJUmSJEnSqGR4NJwiRfVRgMMOOxyAP933J7q7u0e0WZIkSZIkSQMxPBpusbi98pWvJAkJK1et5PHHHye4JSRJkiRJ0ihkZDHcav3T9t57L8rlMl3dXdx3330j2yZJkiRJkqQBGB6NgJhHdtl5F2bMmAnAww8/PMItkiRJkiRJ2jrDo5EQAmk5ZeHChQA88sgjI9wgSZIkSZKkrTM8GgEhFNVHuy5YAMDyZctHuEWSJEmSJElbZ3g0gnaatxMAzRs2jHBLJEmSJEmSts7waARNmjSJQKCzs2OkmyJJkiRJkrRVhkcjKOaRSCSEMNJNkSRJkiRJ2irDoxG0YcMGAoH6uvqRbookSZIkSdJWGR6NoOUrlhOJzJkzZ6SbIkmSJEmStFWGRyMhFl8efPBBAPZeuHAEGyNJkiRJkjQww6MR0trayvJlywHYZx/DI0mSJEmSNDoZHo2EAI8//jgbWjZQSsscfPDBvdVIkiRJkiRJo4nh0UgIcNtttxEIzJw5k4MPMjySJEmSJEmjk+HRCPnZz35GCIH9919EU1MT0fRIkiRJkiSNQoZHI2D92vXcueRO8phz5JFHUiqXCISRbpYkSZIkSdIWDI+GW4Bf33ILK1auYMrkKbzlLW8lCW4GSZIkSZI0OplaDLNKpcL3vvddqlmVQw85lMWL9x/pJkmSJEmSJA2oNNINmFASuP/++/nZz34OwDve8Q7K5fIIN0oTRdxGz8iwjWG3tvf5kiRJkqSxyfBouCRQrVT53Oc+x/rmdew0dydOfsfJjnWkYRHDtif029aeuL3PlyRJkiSNTXZbG0b33Xcf3/ve94DAWWedxbTp05xjTZIkSZIkjWqGR8OhVnX0vnPeR6VaZa899+Tv//7vi7uC9RqSJEmSJGn0stvaEIrE3m5pn/nMZ7jt97eRhpRPfOKfmT5jevGgnvguH5k2aiKIhAhxm0GlHdskSZIkSVsyPBoikUhIiovlu/54FxdffDEAJ73tJE488a3EPBJCKK6nDY40FHqymjyHkEPcstAw1AKlAMVjnnNx2yhU3Mbz47aenz/3CGCRbQ/arbEtxG1HjLn7gIaY+6ECz28SCYce0FAaD8eixA8OpXHF8GiI9FwGr12zlrPPPoe169ay+26788///C/U19cTI4SAZx4aMlkWqWRVqmy5m4VBdJfcIbO11R6z+aICEJJAlkXIcpIk2eQ+GP0nSNp+SRIghyzLCCFs0a3XAFHDIU0CMY9kWU6ShC0mtjA0GP9CKD4uybIciCRhyw8//JukoTbW/yYmSaBEpJwGr3mkccLwaAh1dXZz2mmn8fs7bicQ+OIlX2SfFy0kZtGDqIZcUgrc+9BTtCWNtGUJea3yJ4StV/iEbZTAbatyaNvP3/IirOeXIInFEtJSSp7nvXcF+sKjyBD9yoyiE6+tvb/hbt4WQeMwv3jo1913a4akUHMU7QMwwttgFLz+iLchRtIQiAMccCbCsQhGfj8Y6dcPeSRJEuIAO4LHoonRhpF+/RBHwd/EuOl9z+v4FyGSccie85hbgnTHtU7SCDI82pE2C4Te8Y6Tuf766wH42Mc+xvHHH0+e5bVL6FF2hqDxJUQgsLE70tw4nY5yE7G2z/V8cNU/Ctrk06vYc9/mpyTbGl9/W6cwW3t+33OyPBJCQijF3gBpOMKj/p/abXZ+NKT57taOAFtbg0N1pNjacre2jofi9QdcZiwmEQgB8jz2PnYi7QPDtQ0GWvZA63g498Ph+D14zuXV9kMCxAm6H47GY9FQtOG5lhfS4sOWGGNvY/r/FRuKi/a4WaN61sFwfN44UY8Fz7Xc0fg3Efr2w+E5FvU/+j3/1+upcG8uwdQAjdFZmqTxwPBoB4tEujq7+Pt/+Ht+/OMfE2PkH/7+fD70oQ8DRXe2wXQZkl6QGIo//kmJ7lCispV9bosTxX5nBEX29EL/zA/mtKDvOX1DMgVIkmE5Ue6/DiL9uiHUqp6GrBx8gHEMhrP8fGvdDDe/cBmu1+3ZFjFApef1k+H5hHfzvTbraRBFW4dynQzU1XPY9gP3w01/VrvloW8dvODD4GDawpZvNxuuYxEjtw2e6/VhGPbDrez//bdF7zYI2+6WvSNsvqvl9NsPJ+qxCCb0fjgSfxM3N9j3H0JxXlnBjhbSeGJ4tAP0zKoWY6Srq4v3/93f8Y1vfIM8zzj99DP4l3/+Z+rqy7XuagZHGno9Y3IkRJKYk4acFxTuTNDdNN38DGe4z3hGwxnWCLdhi20wzBLYch1MtP1gpF8fRrQNW90HhrsNI70PjtRrjqLX32IbDPfrg8ciGPk2TPC/iYN9/4EiPCoNEAxKGpsMj3aAEIor9fXr13Pqe07l+huLrmonvfUkPn/xxUyaMgnywQ1SLEmSJEmSNJLsfrojBHjwoYc48ogjueHGG0hCwjlnncO3rvoWTZOaesdMkCRJkiRJGmsMjwYpEmsD1UVu+PENHHPM0Tz48INMmTKFz1z0GS7+/MU0NDQCODi2JEmSJEkas+y2NkiBQEtLC5/6t09xySWX0N7RTlNjE9/85jc5/vjja13Unnt6TUmSJEmSpNHO8OiFCJDnOUmacMfv7+D9738/S5YsIY85i/ZbxHe/+z0OOvhAYh57x0GSJEmSJEkay+y29jz1TBfa1dnFxz/2cY466ih+f8fvKZfKnHfuefzmlt9w0EEH9g2MbcGRJEmSJEkaB6w82oYYIyENxGrOL3/5Kz78oQ/xhz/8gZycPXbfg89+9rOccMIJJElaPLYnOLLqSJIkSZIkjQOGR9sQQuCZp57hk5/6JN/9zndpbW0lSRNOO/U0LvzYheyy8y4kSUKMOUmS9AVHhkeSJEmSJGkcMDzaijzPSUoJG5s3cskXL+Hiiy9mw4YNxdhG+y7ios9cxOuOfR2lcpmelCgJBkeSJEmSJGn8MTzaijzm3HTDTXzkwx/h7nvvBmCnufP4u/e/n78962+ZOXNmERTlkMdYBEdgcCRJkiRJksadiRke1Qaz7hmjKM8jSQiQwF1/uIt/+/S/cc3V15DFDIB3vfPdfPjDH2K/ffcjj3nxvNpCQug3MrbBkSRJkiRJGmcmXHgUiYQYyPKMEAKBQJIGHn/0cS76zEVcffXVrF+3npycxfsv5t///bMcddRrKZfLAKSkhkSSJEmSJGnCmHDhUQiBGCNpmpLnOc0bmvmP//gPPvfZz9HS1gLAon0Xcc77zuE973kPU6dO7R3LKMZISMIm3dN6KpAkSZIkSZLGowkXHhGLAKmjo4MbbriBT3zin/nzn/9EJDJ71mzOOusszj77bHbeeRfyLNtkEOxAsOpIkiRJkiRNKBMnPAoQ86Jy6Nc3/5pPf/rT3PSzm0iTFIBT3nEKn/jEJ1i4z8LeKqMkTbYMiwyPJEmSJGkLwU4Z0rg1ccKjCE88+SQf/ehH+eEPf0hHZwfltMyBBx3IF77wBY488kiyLNuyO5phkSRJkiRJmsDGb3jUL/Vubm7mW9/6Fh/96EdpaW0hCQmHHnwI//hP/8hJJ55EWk6JWTEOEmBgJEmSJEmSVDOuw6NqpcpvfvMbLrzwQn77298SicydM5f3nfM+zj3vXGbOnEmeF0lRCFYaSZIkSZIkbW78hUehuK1cvpJPX3QRX//65bS1twFw0okn8ZnPfIY99tyDPCtSoiQNfc8zOJIkSZIkSdrE2A+PNgt9smrGjTfeyNlnn82yFctIQsri/Rfz8Y9/nBNPPJGYR8j79WqLGBpJkiRJkiQNYOyHR9CbBK1du5Z/+9S/8cUvfZEsy5g9azZnn3U2F3zgAqZOnVo8NCkeHEIwNJIkSZIkSdqGcREe5Xnk3nvv4Zxz3sdtt/+OhIQDXnwAX7n0Kxx++OEQarOnGRZJkiRJkiS9IMlIN2DQEiAU3dR+8IPvc9xxxxXBUUg4/YzT+e2tv+UVRxxBSBKSMHbfpiRJkiRJ0kgau6lKhEp3hc9+7rO8853vYsXKFczfZQFXXXUVX/3qV5k0eRIQCWGbS5IkSZIkSdIAxly3tVj7f2tLKx/4wAf42uVfIwkJhx5yKFdddRWLD1jcOwh2JBJjLLqsSZIkSZIk6QUbW5VHAUIC69at45xzzuHrl3+dhIQ3velN3HTTTSw+YDF5lgMQY3SMI0mSJEmSpO00ZiqPIpEQAhubN3LG6Wfww+uuJQmB0/7PaXz50i9TV1cHQBKSotrI/mqSJEmSJEnbbexUHkXoaO/g1L/5G3543Q8ppSnnnnsul156KeVyuagyKoqO7KYmSZIkSZK0g4z68CjW/stjznnnnce11/2QcqnMBRd8gM9f/HnKdWWrjCRJkiRJkobI6A+PYjHo9Re/+EWu/MaVJCHhve99L5/8138lSROyLMNCI0mSJEljVuz3td+/Q+0mSSNt1I95lKQJt9x8Cx/60IfIyTnh+BP47Gc/R5qmAMXXfIQbKWnIhBgJRJJaFWKRFg8+Me5/TrbV+ydyGJ0P3dlphOex2QIhJL1PmMibQpI0kURiiGQhEkNCOY+1E5K+v4Rh87mAQu9TCYye85cYwU4h0vg06sOjNc+u4ayzz6K7u5vdd9udL1/6ZSZNairuNIWXxq0QI3kAQk4pVinHKkVSnGzl7OkFnKWEgQ8dkeKkZ8Ia4je/tcX333JJpLcbctjsMcN1HpqP/oLcIbXlJkqe476xr2+/2jRW9rpHUqD48Gq4RHKykBOBNKZUQok8pGQkeFSSNBqM7vAogQ9+8IM88OADlNMyV155JbvM36W4bzyexUrqpzhRasy7mVXdQFPeRhKzfvcPro574MqjSL75p3oTzFCHND3rdqDXCGx9kxoejaSkr7h3vF271Pa1Yv/aVk2ipIkmkA/jYa84/vS8Yk4jG9LJtJYm05XUDWtLJGkgozc8CvDLX/ySq666CoALLriAv/zLvwQg1rpWOKuaNL4VndRy6vNOGvMOQu9lbK37WgzsqAu+COQTuuxo6G2z61qExAv4ETfgJ+0TZNP0nGFI0nCKtf8nRCqkhFpnfUkaLUZteFStVrnooovIsoyDDjyICz5wAVmWE0IRGjnDmjTeRUKtaDwPoRYXbX4atSNPqzxFG2oBtrGao5fso8LE3goT+91LGjlFHWSIOSFktQ9c+g1s5NFJ0ggbneFRAj+98afccsstlNIS559/PrNnzSaPOSEEK46kCWagbmbD9UraMYaz+5kkSWNPz3VO7P3AJfR+8uJfUEkja9QN7hCJVLqrXPbVy+jq7uLwww/nrW95axEcYXAkTRz+ro8XATYZ7rNn2uGt3SRJUp8QR+EFm6QJadRVHoUkcPfdd3HTT28C4PQzTqdp0iQvI6XtNhSfWhWzn2255NqsaNJmnqv6yOxIkjTRRYohHWPvd55TSRodRl14BHD55ZdTqVaYM3sOb37zm4tyTa8qNIzyWJQLb/fYWj1/63Pghe7HtZfuHSB+kG0JO6K//ObtDkUZdYwQY05IiwApzSCjSlJ7rzHsuJOdGOOQDh3pIWboar36L7fnpFiSpIku9hvrL9S+i6E434mW40oaZUZdeNTe1s4NN9wAwOmnn8606dPomydYGh47bDz2HLI8J02KECXWBoHedgPoveIOSRgVycYmra7Nah3znDTNySoVYh4p15WJeUYaS+QDz9k0KplnuA4kSRousedkqib0njdt+nNJGi1GXQ3kkjuWsGLFSgBOPPHEETt2xmLO6L6ppUfdmtJQiERuuPEGrrjiCv7zP/+z2AdifMFX1XnMIYHvf//7vPSlL+Gkt51ElmXP78kBmpub+daV3+Jrl13O7bffXrRhO0UgxJwkq1AfctJYpXdS6rjZA7doUxEFJUASazeglCRklU4u+rd/4by3HcOSn/w3DVTJYx0k6Xa3ebiFCX6TJEkjz/hI0mg06iKRK75xBZGc/fbdj3322WeHXDQPRiDQvL6Ze++9h/vuvY9Kd8Wrqx1lFK/HEAKf/OQnOePMMzjjjDNqs1y88AYnIWHtmrX83w/9X+655x5OPfVU0iTl+ezOMcKaNWs47/3n8bdnnclPb/opId2+lVachAQSIs88+hCPP3AvG9auIMmrRfez/o/r+T5uvoxIJCu6HNVuIUlIS/UcfewbaHv4Qb7+7/9KuvFZ0qx7TFYMhhAm9E2SJEmStmb0hEdJcbvnnnsAOPLII5kyZcqIzq525513ctjLD+PQlxzKbb+7DQLk+Si+Iq5d0PcfF+a5/j2UsVxP5RbUxqrpX73zAjZpJPa+p7i1Vm/2frdbgHKpTCCQ53kx3lDSN+7Q83l+T9XR+eefzxNPPsHxxx/PMUcfQ4yRJNn2m+8ZSyiEUAROO+j9xSRQrWZ85B/O5SNvOYrvX3IR5bxa+9WLhNhXQN0bIuWRmEdCSCBJyHp+nkAWoZpH8lDm4EMPZ79jj2fj0qf48XeupDHpJiEfcx+b9eyrE/UmSZIkSVszesKjCB3tnaxcWXRZe9WrXgUUAxePlDRJyfKMmEfSUtEFJyShNnDvKNOzJQObBG6h+AF5zIuxc+gbdycMYZ+V3pAtFOssJKEvBOoJZNh2d7AQQm1w5uKBIdl0HJ0YYzH2zg7cIlmeEYkkISGkoQhPau1/PusrSRLuvusevvud75KEhI98+COU68ovaOyiQC3IyJ/nGEnPY4l5Blk1h6wb8nYasg5KMSPPIknIKUqF+rqnESIhiSRpgLwWoMWEGCHryVBD0aczTcu89V2nwaRpXPPf32X9sscoUyWMxfIjSZKkkRTCjht/U5J2kFETHsUYefDBB+ns7KKcltljjz0ASHbAkXOLT9RrYxj1r47Z5D6K+/MYi+oTYjFezSYdkGNviJBlWbGc/tlAT9UNW/lkv99j8zzv/feAAUgC1SzbNGzZPMTI+95nHvNNXqd4eOidbCuE0Nu+PMs3fV9J7fn9V/sL3ASxSHOKZVO0qydM6g2SKNpRy342FfoCHICYxaISJwmbdIXqDcGS0BsybaGnWqy2PZ9PANSzHnvamWWGdR7YAAAgAElEQVR9QVj/fWlrW6unwurzF19MNavyqle9moMOOmiL4Kh3W/bbRv2/79mGA+4TtSAuj3lfVVdt2+UxJ69VShXhWoSYk8YMyIqgKGYEMsqlhDQNQJUkFGFPEc9lJOQkIRLzau/zklBMGRtCz77YEzpl7LHfoUzabT9aVq/iN9dfTT0VSjHnefXVkyRJUq0rOYzqcR4kTUijara1FSuW09XZSWNTE7vsssuOWWhPWFLrgtPW1sayZctoamxi9uzZNE5qLC7Ya2FHUkrIspyEQLVSIU1TKtUKWZaRZ0WQlKYpBKhWqiRJQuiZSSuPhBCoVqusWLGCqdOmMnXq1L4AJwnk1ZwN6zewZs0aGpuamDN7NvWl+lqlSegNRDaXpikhQEtLK8uXL6OxoZFJkyYxafIkGhoaiLF47ZhHkrRoT7W7Wjy3VOv6lEN7ezurV6+mXC4zc9ZMmiY19YVHtUBp/fr1NK9vZuq0aUyfPo1yuVwrhXm+q7wIdLIsqwVERZvyLKe1pZXlK5YTQsJOc+cybfq0Ld9vLN5vzCNZnpHnOeVSuW971h7T0+Ysq81m1hPE5Js0ptim1Yxnn32WttY2Zs+ZU2yX5zHzWVbNSNOEGCPLli5j48aNzJw5kzlz5hTrtRbS9CwnhMDSp5fyy//9JZHIX59wAvWN9VusuxACeZbT1d3F2rVr6e7qZvac2TQ0NFBXX9cXOA5UnVUL02IWaW9vZ83aNVS6KzQ1NTF7zmxKtfVVKpVqr5VRX0rpDDkh5IS6MiHkdHa0UalPSUMRgBZ7YEpCJImBLKvS2dnB+vXryPMqTY2TmTptJnV1DcX+Goq1CBlNk6dw2KuP4X//P3vnHR9Ftb7x75mZ3U1CKkmoobeAgKCCitgVkA5S7PVakIsK2DuKBbkKSrGgXgSvhSaCDWnSRaQqTYpISUjvW7I7c35/zOzsBlAB9V70Nw8fSNgyp045z3ne592+ni8+nkm/629DjUsnKATw1zPPduDAgQMHDhw4cODAgQMHJk4Z8kgogtLSUoKhEOmJCaSkpJwQYXH0Ac0fUkoKCgp44403+OjDjziUdQiv14fH7cbldtGhQ0duv+02+vbta3+n07nngoCysjJCoRCKUBh611BiYmPxeNzMmDGDevXrMX3adN544w1iYmP46KMZBINB/jV2LDNnzSI/P48xY8Zwzz33IBSBt9zLRzNm8NaUKWzbvo1gMIgQgvT0dAZcOYBhw4ZRr0E9pCFsJYmwlvJbNm1h3LhxrFixgsLCQnRdJxAIoKkaHTp04Jprr+WG66/HE+OxFUZbt27ltttuw+fz8/Zbb6FqKuPHj+fzzz6nvLwcIQTJKSnccsvNjBg+gqTkZD6ZM5dXJ7zKhg0b8Xq9xMbEULNWTf5x6z8YOnQo1eKrHd94CNizew8DBgxEVRQefPBBGjZqyJgxY1i8eDG6riOlxKW5OPvss7l3+L107dIVRVNsUsgwDJ584knmfzqfhIQEZsyYQe06te0iwqSK3x9gyJAh/PDD93Tq1Il/jf0XLrcLwzAwdINVq1bx5pQ3WbRoEYFAgGAwiKKo1K5diwFXDuD2O+6gYcMGx2xXZWUl0pCMe2Uc77zzDj//vN+ekHVq1+Hue+5myJAhKIpieRSZ3/vs8884lHWI6snV6dK1SxVlV5jk27x5M+NeHseSJUsoKS1BD+loLo2OHc9m2LBhtGrZ8tgGxpZiqjC/kLfefot3332XnJwc/H4/hmHgdrupUaMG/ftfyfD7HiRUWYlOiBWr1vDhO6/hqqxAP7AHQgFWLP6MLTv34NeqcfFlXRl08z/wKW4UIfAXlfHpnP+w9LPZlGcfhGAlyEoQEndaHS49vyu9rr+NtIxGeBEgJLoOl/foz5K3J5JzcD/fLVtE2ysGIqViteWUETo6cODAgQMHDhw4cODAgYMTwClDHgHk5xcAkvhq8cR4YpB6hEQ5WWRnH2bgwAGsXrMaRSiWh5LEH/AB8MWXn7N40SIeefRRHnn4YRRV4dvvvkVTNVtpJKRg586dGEhcmobf7wfgUNYh1q77lhrp6eza9SP33Xcfa79de1Qd8nLzuOOOO5k/bx4hI4QiVKQVluTz+fjXS//is88+Y/p702nXrh1KWMkkJQsXLuTqq6+msKjQqn9EVhMMBlm2YhnLVyxn544dvDj2RVMVhUl8bNq0CZ/fx+dffM7UqVPZs3cvYRZDEQr+w36ee+45ykrLqFGzBs88/Qw+q18AguWVlO0u56GHH2LLli1Mmz4NRfw2ASClqdjZ8r1pfj57zmwWL15MaWkpUppqIjA9pb5a9BWr16xmxIiRPPHEE6iaeXxFUdizZw+bt2wmMSHJDnuTsqpaKBgMsnPnTr5b/x0NGjSwX1dUhXfeeYf773+A4pKio+q4e3c5L459kQ8+/ID58+fT+rTWVd5XUJBIuvfozpIlS0zjaEziR1FUdu3exb33DqegoIDHH388QvQIWLx4MQKFevXrUbdOXTtcEAlCFUyfNp0Rw0eQX5hvE4TmZIAlixfz3XfruKLbFXbo2ZE4eOAgAwcO4pu1axAIFEVBN3QEAp/fR0lpCWNefIGP533KxGkzURWFw4cP4d+4Ar9eCdIHhPBXFOLb+g2GjMHXNhOXDOGXCRTl5vHEPbdQumU1iEoI+kCoIHRAUlmWxxd7t/H9lrWMmfgOruoNCOFCCqhVvzEkpkFBISsWL+Cc3oPxhnQMNEd87cCBAwcOHDhw4MCBAwd/UZxSUgCvtwIARVUtY+TfZxZsGAajRj3F6jWrcWkuevToweKFi/h27bcsWriIxx55jIT4BEKhEP8aO5adP+4EYMwLY3j++Re48aYbAVPlcvvttzPmhTE8++yzJCUlASCEgqqYIVEPPfQQa79dS6wnljPPOJO+ffrSqmUrKisrGXLnEObN+wRFVbjwgouYM2c269atY968efTq2QuXy822Hdu49dZbKSwssrx1IC8vjzvvvBOv10tifCK33347K5av4Js137BqxSrTiFlzoakaEydOJDc3zyYpFKHYfffs6GfJysriphtvYuFXC1mzeg2jnhpFtbhqCCF4/Y3Xefrpp0lITODxxx5n+bLlfLfuO14a+xIpKckoisLcT+ayYsWK4wq/FmCHzoFg7ty5FBYVctaZZzFn9hzWfbuOpUuWcv31N6CpLioqKnj22WeZPn267d0kDTMNvEmOCNs82hyPSEp1ANUqK1qps+2HbQwbNoyy0lLS09J5+qmnWb1qNRs3bOTj2R9zztnnYBgG+37ex0MPPRzxegrPHQwURWHp0qWkpaXx+htv8O2337Jq1Sqeeuop4uKqEdKDvPjiWH766SdbWVReWs6mTZsByeltTyeuWlwVD6o1q9cwcsRICosK8bg99O/fn4ULFrJh/QYWLljIoMGD8Hp9fDTjIyq85Ud1rJSS4cOH861FUp5//vl89OFHrP9uPd+u/Zap70ylQf0GuDU3P+7YxqKFC1ERtG9/Jt1HPEq/fz6AO7k2SEGzZq24ZdjDXDf8STp07oouPSjAWxP+RenmNWD4aNa2HY+//DoTP/iEce/NZcioscRlNAK3xsGNa/h63nu4pN+iwHRcsTHUPq0dKBqb1q9BCfpQpbSdlBw4cODAgQMHDhw4cODAwV8Pp5TyyDBM819VMcNcfm+WqdKSUpYuXQoIGjZsyHvvvUdCfAJCNY976WWX0rJVS6697lrKveWsWrWKzMxMRowYgaIoLF60mPff/wA9FOKqq66ic+fOSCSaanZbmKsoKirimzXf0LZNW8aPH0/Hjh2pFlcNFJgzew4fz/0YQxrceuutjB07lsSkRFuNcvHFl/Dcc8/y4osvsmXLFqZO/Tf3jbwPw9D54Ycf+GnfTwA89tjjPPrYI5HGSejUuRPlFeVMmDABXdfx+3xEI0y++Sv9vDr+Ve648w5cLjMN/TnnnkNeXh4TJk4AQNNcvP322/To0cM2dz6j/Rnous5DDz9EhbeCrVu3cuFFF/5m6JokktpeVRRCoRBXDb6K1157jaSkJNP7STe48IIL6dLlcm6++RYClQHuumsIvXr1JDUt1cygJg2bKJLSzHgmj1DjCEGUKiny+vIVK/AHTIXY8OHDefjhhwkGg7g0F+3atePSyy6lZ8+eLF+xnG+//Zb8vALS0lMjx0WgGzqNGzVmyeIlNGjUwE5bf86556CqCg8/8jAV3nJ27NhBo4aNEEKQlZ1FdnYWAM1bNEfVVAzdMMPoDIMJEyZQUFCAqqk8+eSTjBw5ErfHbZJmSC648AIuueQShg4dChJ0qUf61ZDk5OYwb948DGnQscPZLFy4EE3TTLWagLM6nkXTZk3pfH5nAHZs20aH3kFaZLYis2kz1ICfz2fPhqIsGjRtTZ8bh1Luqo5QVHRVo7ysmB9WLwHdxxlnd+ShMRNxpdVDV91UGga12l1ERoszePS6/iB09v64FZWw0bbpgdThnHOYt2IuxYU57N+1naSm7fD/nhBUBw4cOHDgwIEDBw4cOHDwP8UppTyKi41DAiE9ZHvD/B7+yLAznEmCwSBFRUUmcWQtYg3doH///owcMZL7R95PRt0M26wZTOWLrodsfx3VpaJpWiSTmrRMshWFpOQkZsyYwQUXXEC1atWQSIKVISZPnowQgrp16vL000+TmJhohsMZEkM3iI2N4eGHH6FRo8aoiso777xDMBREEQp5eXlktsjk7I5nM2DAlWaZuln5YDCINCTNmjZDt8iTYChYZYEuhKkHufzSy7nxphtRVQ3DsPrEgMGDB9uZ5Lp06cIV3a6okhVMKIJLLr0El8sNQCBQab1x/GMghCAlOYWXX36Z5JRk0+9Ilwhhkh1XX3M1gwYNskOuFi1chNStLHdGlfR2v4woP6FwpjdNi/CixcXFIMzXwhnXEhITeOSRRxgxfCQ33ngDWpT5tdlE889LL71kE0dCCNuXqW/ffritfikoKLAJrAP7D+D3+xFCITU1iowSgj179rDwq4UYSE5rdRp33XUXbrfbzCZnEX1ut5sbb7yRTp06oUu9KoEqwOfz06JFC1q1bMWwYcNwuVx2KKEeMvu2ffv21msqIT2IFh5TVTUpHk0FBCEMhCcWv+ImoGoEgNJyPym16lCzaXPO63IFnvTalGvxhJRqBF0J+JVEajRoA9XSAUGlP2j3lZAKEqibUR+kgGCAwtyDqOgoTsY1Bw4cOHDgwIEDBw4cOPjL4pRSHqXXSEdTVcrKytB1/fcZZgMJCfG0ad2G3Xt2s+/nffTo0YNrr7mWfv36kdkqE0VViImNYezYsTZRZeiRUDlNU02fmigVlGEY5sJcAVMrIlEVwS233ELjRo0jxJMQ5OQcZu03a9ENnQsuuICatWoCkZCu8DHjE6rRrVs3Jkx8lQP7D5CdfZiMunXp2bMnPXv0JBgMEp8Qb5IulmrK5XaxauUq3p32blXfnCiuwbBSzHfv0YOEhESkNMx2SpNoqVe/PuFWtG/fDtWlRvrb6vv4+HhcLo1AJSiKqPLe8cDQDS677DLb7FpzaXZoGpgZ6x544H7ee286qqKy9OulDL5qsEk+HMsw+ihEE4zSJPSQtG3TxuxrFF4Z/wo///wz115zLRdddBEJSQkgoWu3rlx++eXhODiLCBR2nyhCoXfv3ughHUWYGdeEapYXFxeLS3NRGayMzFUgOzvbmi+S5ORksw4WUbZ16zbyC/MB6N+/vx3+aBVoH8PlcjFy5EiWLVsWGVcLDRs0YO03awlUBsywwzAxJMysenv3/MSECa9iSANFaCANFAGaohKSEl2AIcy0dKpQkULBsLysdR1Sa9Zi/NvTcIfKiI2JxavEE3S7EALcGBzat5e5774NxUVmcjvDGoOoBng8Hvv37IP7yFSF6SAV7SruwIEDBw4cOHDgwMH/c4Q3vo+ZKMeBg1MMpw55JDFDmhCUl5eTn59PQkLC7zqky+Xi8ccfZ+vWrezZu5et27byyGOP8NSop6hZsxZt2rSmX79+XHFFd+pm1AGstW2YI7FPYmGTCtZ/o6uNYRhceOFFuDwuk4CwCI3S0lLKLd+amTNnMX/+/Mjxoo3AhakkAvD7/fzw/ffUr18Pt8uNy+PC5/Wxc+dOlixewqbNm9ixYwfbtm2jvKzcMuC2sn0dIQlSNRUqISOjrrVmVxCWbw5C4HG77c9Gq2Si1/hSStvA+2RgYNChYwfzWBY5Y0gzxEkoJoFRv359kpKSKCsr4+d9P5vhZS7XcfEMSpT3UTTan9GeRx5+lHHjXsbnNz2E5syZQ7W4ajRo0IDuPbpz2WWX0alTJ2JiY6xvRY4jkWY4mGp6WhlSokSVI4RA1VQEglAoZHMnP+37iVAoZKvNpBHpy927d9nfb9K0qVnOL9wsMjLqmeSN31vldaEKYqvF4nK7KCgoYMmSJaxcuZJtW7exa/cuysrKKC0rNYkhq0WKmQwNJIQQ6KqpPJLCNAVXkEhdoigCBYEaG08oJDiQl8/mDavYuG0Tm7evJbR/H5QUQIXlxSR1pDRNtMEg3AkeTwxhdjE7K8tqn6M8cuDAgQMHDhw4cOAgDMMwCIZCGIa5UW0YBjEx1rrEXiY6pJKDUwenDHlkGAbpaem4PR58Ph8HDhygUeNGJ7/mtFbO7c9oz4KvvuK11ybz6aefsnfvXvwBP1lZhzh06CALFy4kLi6OYcPu5rHHHjVVE8cZLRVd9/r16x31enFRMQCaohHSg5RXmARRdNa3o44lDYqsMCuhCL78/Euee+45vlm7lmDIDBuLcccQFxdH4yaNqVmjJitXrTSPGzapPuKwUoaz1mGrbExTazXymSpeQlEyGCIXLXmSoUe1a9e2+9TQDVvFEx1uFh+fQHFJMRUVFeFCOeKXIxr1y2+BGXr4xBOPc+655/Lu1KmsWr2K3JxcSktL2fz9ZjZ/v5mxY8fSvn17nn32WS7vcnmVYyqYGcyQHJM8s32YEJFwOcJ9FPZoUojiH+0sfQDx1apFQjOP0fVJSYkoqnL0DcOA3bt388zoZ5g79xNKy0oAiPXEIqWkemp1evboyccff4wvEDANxwVIwwAEKiaZpGMavitIu44KoCDJ3rudGf9+k3ULl0JxIRgl4AmCqqLEp9Ki1dns3v4DoeJis0I2cWTC7XaBMMP7KsrKwiI9R3TkwIEDBw4cOHBwCkFIU+z/5+A3HtYdIJGEQkFCoRAffPABt912u7VGpMqmtQMHpwpOGfJIIGjZqiUJCQkczsnmwIEDVVKcnyiiPZPq16/HmBfH8NCDD7F7z27Wr1/P0qVLWfvNWvYfOEBJaQmjn32GvLw8Jk+ahKIo9olrHexXiRMhFOLiqh1RAUhOMcOWdEOnb5++XHXV1RYREQmNC4dHGdI0VFZVjU7nnos0YNGixdx4040UFhbicrno2bMf3bt3p1mz5mRkZJCSksKqlStZYZFHv0R6hVVN4fKElfkq+ppU5WthIckfhEMHD9kEVpWCFDBjpiAUCuF2uSPmz1GVCmdaCyctC6unBIJAZaBK+8IQQlh91oOLLryQwsJCNm/ezNpv17Jo4SI2btxIMBRk3XfruOGGG5g/bz5ndTwrqgvMccFSdB0ZPmbXC8v7yno7OTnFfj8QiJBFGBAbG2v/1x/w222ockzMbiovrzA9jKLKFQj2H9hP33592bFjB1JKOnboyMABA2nTtg0ZGfWoXbsWcbFxzJ07l0iHSwypYwgFAahSEkQipPkX68HBMAwKcg4x5pHh5G9eC7qLFq0yObfLRdRo1oh6dRuTmFoPPRjknzcPJFhcjCENwo5N0qq9SbqZRt/x8QkghfVw4twEHThw4MCBAwcOTgUIGflZhUCSUW+anzj+g1oPsua6yQAR2aj+k5mqvySEELbNyKRJk/F6vdx7773oIR1Vcf2Pa+fAwdE4dcgjVRCfEE9ycjKHc7JZsWIF11577ckfLyrMLKzISUpKokPHDnTo0IF//OMfFBeXMGPGR9x7770EQ0HeePN1nnzyCWrXqm1/1168/wqBJbD8gKp8VJIQn0BsTCw+v4+E+AQGXzXoaBL+GKS8HjKoqKhg+PB7ycvLw+OJYdasWXTp0gVFUc2QN6t9ZkYxs0RDGlVD6sLMdZRy5r8tfVRQ2LZ9mxmuFjIi4xL+oUBRUTH5+Xnouk79BvVRFPNG43KbF03DMEyVVJiAIkIOlpSUkJeXf1S5Qon4VMUnxhOfGE/9hvXpdkU3Ro8ezcYNG3ngwQdYtHgRh3MO89rrrzPlzDcj6q0jccT4CyEQQkFioCiK6Y8F1KlT26JSoLCwsIodUOvWre3v79271yQpjSPD4czPZmVl4QtUzZ4HMHr0aLZu24pA8MD9DzD62dGmQbhbs8nDoLWDoVjO7lLqll9VuG3mDV1FN5VI0sySpmDwxfx55G/egCDANTffwuA778UXUw3hUVGJxW+oBIpz8QYloCCF+Rwgrd8R4PV57XZn1K2HrusIVXEC1xw4cODAgQMHDv7mMDd5w8r0KPKI8EayQyCFISwBgRAKZWWlPPHEEyDhrrvuMu09VNUJW3NwSuHUybZmrSzPOedsFBRWrlxJeZnlrXKS58yG9Rto3KgxLZq14P333kdRFZvd1Vwaaemp3DX0LgYNGmR/p8wqM1xkmKQwpHGUsidMT4Q9a8KhX+Hv1qpdi7PPPhuAhYsWknM4x1LRRNoc/s7IESNpUL8BZ7Y/E2kYlFv+P0IIMjNb0L1HdzRNi6iFrHqsWbPGLtEOPbMMsY+5Wlc46f6Mhq5bqhhhkVZWw4+l0FmwYAEH9h+0M5IdSchNnjyZkB4C4IwzzrCrl5KSAkgqKyvx+3xVfaekSSpt2riJ7Oyso8q85upraNG8BT269yDgD9hj53K5MHSD9me2Z8qUKaSlpiEQptLthCCilFvmHJG6pEWLFrg0DYkkNzc3+uM0atSI9LR0AD768COKi4sjGQWtv4ZhEKwMMmXKm8csdfv2HQgEcXFxPP744+ahFdOXSdd1KoNBNm7YSChkZgkMZxskKjxNWgZIijCQuo6QOoqQGHqIDd+tB0yj9G4D+xFMqU0gLh1DicEvNSqlRl5BIeTnYw14pD+s330+n8WCKaTVrIEuJYY49nR04MCBAwcOHDhwcCzIP+SZ/VeOHvkZvcYR4X+ijGB/Vwl/LYRV9UBkbfMLXSHtPyeH8CHNTV6Bz+vjoYce4uVxLyMl+P0BS6VgRrIcDyTyuFf4v6fuv4nfWHMeK9nTfwuSqLE7CVuWsGVJ9Ogb0uz3P7FHTwmcWuSRhKsGXwXA9u3b2b1n9++aUGnpaRw4cIDde/YwZcoUKioqqipLDAgFdcsXxnw9xuOJVMmaTGHSAwGKpkRImijTa5NgqjpZXG4XgwcNRlVU8vLyGDNmDH5/ABFVBaEKdu/azfvvv8/BgwdJTUszVSRAZbASJHgrvJHyFMu8W8D679bz7tR30ZRIhrdoHI9q6mShaiqbNm3iow8/Yvas2SxZssQiP6oWJpHk5uQy4dVXCem61YyIKmjbD9uYMuVNFBRUVaV37z52dRs1aoxA4A/4WbZ8WWQuWOOQm5PLuPHjLPVVVSQmJrJr1y6++uorFn61EMMw7HELm2BXVFQQskLDkpIST8oYXCBMBZFuqqpq1axFihW69vPPP0fUaIakRYtMLrnkEgSCHTt2MGnSZGtnJtIuIQTvvfcen332+VFlSSTBYCVCKAghKCoqQtM0VFVBVVQURaW4uIinn3kaIxxCFtIRQhAKBa1jWAUBgVAAqUgUTUEoWO3Q7YeG8vIyDAlBFPyGimpIQt4Kpk58FYI+s/VHzDkB7Ni5HRCoLg/1GjUiJAS6s2niwIEDBw4cOHBwgvhzF6KGqCoEOsrG4hg4kRpV3Xf/CyyqBeTm5hIIVEaF30Xeq7IuVcz3Dd2oknDpeMsJQ9d1y/7CJCKCepBHH3uUyZMnoyhmYh4jZNgZvX8LhmFw8MBBMxv0r0AirXXCCdT7RGBAMBg6mpwRUFpWSklJyVFRM/8t6KEQ2VnZlBSX2JnMTwRCCCoDlWRnZeP1epFIFFWQnZVt2qn8jdc9pw55BCCh03nnUaNmDQxp8PHHH9uvn/DlRkKNGjXo0aMHhtRZtXoVN9xwA3M/nsvP+34mNyeX1WvW8OgjjzB7zhxUVaVpk6bUql3L/L4ATTX9d6SUjBs3junTpvPB+x9QXGwaYQsrW1V4sW3PkyhSqV//fpx11lnohs6kSZO47rprWfDlArIOZbFnzx5mzZzFdddex+Gcw8TGxnL3sGEAJCYlkpGRgUTy8/79PPzgw+zcsZPsrMN8t+47nnl6NP369qOwuNBW/ixavIh9P+0zL2TRfjq/MIGPNsk+sgurvhYm2MJhWDNnzuSqa65i0FWDeGHMGADUIwgYIQQGBq+8+go333QTC75cwP4D+9mzZw//fuffdLuiG6WlpRgYPPDAAzRs2MAsQpf06N4dj9sk8x64/wEmvjqRPXv2cPDAQWbPnE2//v1YsWIlqkWeGYaBtLyjBg8ejMS8oN98y828Mv4VNm7aSFaW1e+zZjNkyF2Ulpbg0lz069svEkpnjetvM8emz49hRHYo0tLTyGyZCcCWLVvMHYPwpxUYetdQkpOSCVQGeP6557hryF0sX76CnJxcNm/azNOjnmbYsGH47ZC1iGRHKIJ69eqhCIG3wssNN9zAksVLOHjwIHv27uG9996jW7dufP7551bImiDr0EHys7NQQ0GQIZM8FRqgsmn1auZOf5ulcz9k16Z1uJC0Pb0dKCrlJUVMf2Mim5Z/QUX2Txzat4fln8/m4TuuZ9fiL6wnjRCHDmWRd/AgwUClPac2b9oIQHqN2tRr3BxdqFYgnwMHDhw4cODAgYNTAiLiIxq2IQg/doYtOACMUIhDB/YTCFQgMQkJc62hm56ZWH+ltFOoRD9H227z/zUAACAASURBVBr43/CQ/a26/m4h1C8gWkGSn5/PqFGjKC0pITs7m/HjxuPz+iJCgui6SFiyZAljx46NbPT/ShnBUJDtO7bb68gwFEVBVRTcbrdt3aEqKg8++ABvvfUW+/b9bHvj/moZlhpm8+bNvPLKKwQCgV/+sIANGzbwxJNPUFpaao6UCKuuTpQglJHkQVFjFAyFeHb0aH788Ue7zPB7+/fv58UXXyQQCByxHj1ORB0rXL5NRP1KtIPEtPeYMHEiT416ykw6dTJTUsD2Hdt5/vnneeGFMZSWloKE96a/x5dffvmnzdVTAaeM51EY8dWq0bVLV96d/i6vv/46999/P/HV4jmmOdCvQAIxMTE8/fQzbN60mX379zHn4zl8/PHHJCYkYkiDyspKApXmiZWaksrUqVNxu92EQjqaqtK4cWMSExMpLi5m/vz5zJs/D7fLzcYNG0lJTcHQdSSm2sZWkERX04CaNWvy+uuvc+0117J9x3bmfDyHzz79DJfbjZSSYGUllaFKYj2xPPLwI/Ts1RNpSOKqxTFq1Chuu+02ApV+XnjxBV4e9zJut4dgZSXBUBBN1bhv5H28/PI4BIJ77rmXSRMnsWnTJkBGwsmOA8dKF4+0CCMBgiNNxE2T69+CIQ369O7D8mXL+XDGh3w0YwZxcbEYhoHPbxIkmqJx5ZVX8thjj1llAULQtHlTrr7maqZPn05hcSHD7hlG3ENxZr8Fg4T0EH1696WwoIAVq1aYF19VRQhBp3M78eD9DzL+lfEUFRVx3/33EeOJMckTCV6fD0OaqrMrrriC/lf2Nz2ZhKiqBvoFSGlUYepN/yIDRVW4/LLLWbFiBdu2bcPn8xIT40EgkIbkvM6dGfPiGEaMGInXW8GUt6Yw9d2paJpm94lAcOYZZ7Ft21b8fn8VEuuJJ55g+bLl5Obn8vWyr1m+Yjnx1eLRdR2fz4chDTp1Oo/SkhJ+2Po9W9at4Mbel/PGnAXE1m2C6nbR4rQ2bNm1haK8fN584QkQsVxy9fWcdVomV/Toyar5HxHaX8DqpQtZ/fVqiEsEBPi8YBhktmlLwOvjp13b+Hn7Nu65th/PvjmD9OYtCfgNirdvA6OS9h064TXcGIoL5S+w2eTAgQMHDhw4cPD/CUKCpghrPQNCSqzEwRhWRuBAeTlzP5jG4KsGUKthY5DmpmClNEBRMYxI6JsQBqqQqNJAYEQil2TUAulkFtVH2Hb8oQhv0qqCt6a8RceOHUlNTWXKlCk0a96MmNiYaImA/byPhJKSEn766adjk2JRJBMGlJaU8vTTT3PHHXdw0YUXRT5mWViEgiFcLg09oOPxeOjevTuLFi2idevWNG3W5NeTGVlJiPRQiDfffJP+/foTVy3ul/tLmPXZu2cvipVQB8zojDCZI6MtOn6l36UERY1YqEhDWuILgz1WlnPzc5FkVq1bt6aivIJ1677jggvPP7lETXbdzGPaHu/Scs84Zp0l+Xn5fLt2LQ88+ABt27Y9iYLNstu1b8czo0dz5x13sHfvXtqf0Z4+ffswadIkOnfuTPXU6nZ9/k44tZRHmCfuXUPvIi4mjty8XObPmx858cI/jveiI6Ft2zZ8tfArhtw5hBbNM0lLS8fv9xMKhUhISKBpk2bcc/c9LFy4kE6dOiENaRMpdTLq8Pbbb9OlSxdatWpFZotMmjUzLyJgehq1zMwkM7MFbpc7ElJmF2+eQO3at2PBVwt48IEHaX1aa2LjYtH1EEJAeo10ul/RnZkzZzJy5Egrxbt5jOuvv54pb07hjPZnkFo91WRVDYOUlBS6devGhx99yNh/jaVnjx4kJSXhcmkkJCaguTViYmLp3Lkz7dq2IyEhMXJSRk1gRVVpldmKZk2bmZ85ciyEwO12k5mZScvMTJKSIp+RElKrp5LZPJPM5pnUrVvnmEOgCIW+ffsyb/48+vTuQ3p6mh1ClpSQRMcOHZk8eTLvvfcfMxtZ1Ikvdcmrr77KE48/QetWrUlKTCYYDOLSXDRo0ICHHnyIqf/+N6effjotW7Skbt266LqOoii4PW5GjRrFW2+9xcUXX0yd2nVMiWFlJUIR1KxRg25duzF58mQ++OADYmJizPETgoYNG9KqZStatmz5i1NLVTXatmnLaa1ak5SUhFDM8DVpQLcrupGSkkJ2djbrv1sPwoxTNk22BbfdfhtffvkFgwYOIiMjA1VVCQQCeDwxtDmtDaNGPc27U6fS+rTWNG/egvr16tvltm7dmi+++IJBAwZRq1Yt3G43Pp8Pt8dN6zatee7Z51j41Vfce+89JCcmEeP24PK48KgCj6pioHLznffQ5fpbqNXyDGo0b01Kk6akpqViGAZ16zXm0Rcn0b7rQFzpGRAXh/CXE28EaNK4PnfcezfPTphEn9vvQqTXRbgUEl0h4vGiKZLd27dBeTG4NS7u2hu/4cHAhYJj9+fAgQMHDhw4cHAqIUzsqIASKCdUmA3Fh9H8pXhECEX3ga+I+FA5Hm8BoqIU/EGC5V7cho6o9OErKUTTK9EIQWUFwaLDyKJs3L4yPAZolgVPKAQlJWXk5eZRkF9AZWXQJioC/gCBQADDMCgpKaGkpMTepC4rLeNw9mHKSst+UVUiARQzkVBhYSF5eXlUeL2RdaMC5eXlBAIBfH4f2YezKSwqJKSHTMWUlBzOOszGTRvp0qULhjTYt28fa9eupbIyaK7NDJPgKS+vIOdwDn6fmTlZUZVIVmkFysrKyC/IJz8/n4ryCrvOwVAQRVHwVnhNxY1Vt4oKL+Xl5aiaRq9evRk8aBCxsbFMmzaNyZMmo2kaxYXFvykKEAqsWr0Kr9fLJZdeYg9woDJAQUEB+fn5ZlKb8OpfAMLMklxWVsbhw4cpLSm1QugEhm5afNjEmDDbUOGtQDd0QnoIr8+LrocoLSklNyePsrIyW7kkiNqQt8oMBAL4fX4C/gA9e/Xk/ff/Qyj422KEI8faMAyMkIFhSIRClbDBX8+QLsxwPgE1a9S0RRInDKuIhIR4YuNi7bnapElTYmJiWblyVVShJ3H8UxhC6ierH/xzIKWkMlhJn959WLBwAZdcfAmfzP2EavHVCKeYt7jQ4zugNZmMkEFJaQkHDxyktKwMKU0SplatWqSkpNjhaYB9gZBSIlRhmRGbIVHSkGiahubWrIuGOWFdmguJ+Z5VRetHVF0VKC4q5sD+A/gDATRVJTUtlfT0GsTGxVRlXaOY3tKyUg7sP2CqUoQgJTmFevXr43KZZXkrvGzbtg2hKKSnpVG/fn0MaeD1mhJKl+bC7fEcxcJKKanwegGJ2+3G5XKb8tUoAk3XdQKVAVRVQxECzeWyJa6BQMAMSzNMKWVcXJw9Rj/u3Elmq0wUofDGG29y6623oOsGBw8eID8/HyklMTGxNG3ahNi4WAxdWmZxUXW0yhEICouKyDp0CK/Pi8ftoXadOqSmVkdVVfx+vy3ljI2NjaiorPYGAgFyc3PJz8/H7/Pj9nhISUmhXkYGLo+rSpmGIU21j2HKNuOrVbP7CqzdAcUal9JSkzQUwuxfxWLcpaRLly4sXrKYf971T16dMMEuwFQ2Sbvf9u/fT1FhEcFQiLjYWOpmZJCclGT1e6V5Q9dUYmJi7HoIRRAKhti7Zy8lpaVUBgJUi69GZmamTWwiYevWHaz/YRfB5Dok12tJyOXGJzXcQqIFyxC6D4mGLjUMRUFqbgw8qOh49BJyDx/CX1YGfh9ul0qdjAw8SalUSAVd0Ti450f04kOkV69OeoNWVKixvPDUY2yZ+Tb1mtbntWnz8SbUwqdoED53T+ACKqQZix9neKkZzCMhVIrC8ZkFOnDgwIEDBw4cnMqQ1jI7/GgkEBgIFCEJKG7y1XTK1QRCuDCEgsERmWuj1goCTiqJmZSgYbDj+/VsWLaQQFEeilBIqVWLy7p3xxcIsGDux/jys0lOiCWmZn16XnUr06e9yyXndmT9pg0cyDrM0KFDycvLYdGCLwgU5yMDXuo1asKD99xN03QPqiF58613+Oab1VRW+lFVlRYtWjB06FCSU5IZ9/J4VIuEWb9+PYqi0KFDBxo3bszcuXMpLysnMTGRQYMHcfHFFx/FIEkp2bN3D++++y4HDhxA13Vq1arNdddeS+vWrVE1lWHDhnHGGWfy/fdbyM7KJiYmhjPOOIM7h9yJIhRmzZ7F119/zfjx43FpLp588klycnJ4edzLxMXGUVhUyLRp0/n++y2EQjoZGXWJj4/nwP4DvPTyS8TGxvLFF1/w6aefWgmYJBkZGdxxxx1UVFTwyvhXKCouIjExiYyMDEaNeoqffvqJt6a8Rd9+/Zg0aRLPPfss+/bto2evnjz00MO0atWSw4cP06VLFxrUb/DLA2mtd58b/RyVwSBPPvkEQhHs+nEX06ZN49ChQwSDIdLSUrnqqqs4++yzWbJkCW+99TYXXngB69dvwO/zkZSUxPU33EDHjh3Y+sNW3njzTR599BFq1qwJAnb9uItXX53AE088jqEbPP/C85x3XmeWLFmMt8KLJ8ZDr1696NW7F36vn9tuv40RI0bQvl17KrxeJk6cQF5uHvfffz8ut5u7hgzh2eeeo0mTxies0Nm9Zzeff/45l112Oc2bNzczX0crpY5xPIkkKyuL4cOH88orr1CrZq0qdjMnispgJXfeOYQhQ4bQocNZGLrBl19+yaLFi3jhhRdwe9y/WJe/Gnr27gmcgmFrCPDEeLjt9ttYtnwZ33yzlq8WfkX//v1BwqyZM2nfvj1Nmzc9LombmWzKXHCnpKSQnJx87AkioybOERFyqqqiqqodq6sIU6oY44kxSYvwpBNH0+FVypKQlJRMUpsk2xgtrEZBHkE0hesgICEhgcyWmZZRcrgsy7NIQExsDGeedaZNcITJidjYOJRwyvpjyfcExMWZah8ztX3k9ei224SMAEOPEEsxMTEgzdA022z6GBfzsA+RoggaNmpIgwYNzKx3wvIXstLVh4miI/tPIklJTiYpKREhTIVPuL8MwyAmJsY6vhKpv3WiSglut5uMjAzq1q1rvi0ifWzoZtl2eVafhA2wo/sqehyllFSrVg1VU6OCuc23FVXhtn/cxuIli5k7dy6PPvootWrVMo31DBmZk5bKqWHDhiZhpwh7B0ZzaSiqYrc/PNbh8jVNo3lmc/P/Buax9bBpnzmfWp6WSYHupiimNiXEIgyTaQ9KQaUaj9TiEFLBkKAqwpZ9hlCRIpGkeskkSWnVwMAPeIVACg3D0KnR+DTcoiWqouLFRVlRHlvWLAIlRI8+A1CqpRAUyolQvQ7+H+GYobJYD88yKjtgWH5MVRL3pH0TTlFE98cf3bbwfcYwpE3+nzSkFaYrjf/pONjyd8L3Dv7c3b2oTQ0HEUTG4eTPS/ve/xt9GxnvaJuAX4xN+BMQbmekrUfemxHCfJ6xX/jjz2cH/z8gCZNB0orHicyjMEkk/ogLkwJBfyVLv/qc02qn0GtwP/LKypn72acs+/wTBgwcyKWXXMiiubPpdPbZpDRsCKqfQEUuK+bPIi4xkcs6dSAmWMH86W/QsnlTLuwxGJ/fy6w5c5n54Xs8NuxWli5ZzNKlS7j11ls4/fQ27Nu3jzFjxrB27bd07doFr7eC7du306VLV1588UVWrFjJnDmz2bhxI3fffTdpaWm8/vrr/Oc/73PxJUeTR/kF+bz80st4Yjw8+OCDxMbG8f77/+Ff//oXo0aNolGjRhQXFbNo4UIGDBzAueeey5YtW5g4YSLnX3A+p7c9nWVfL6Ndu3ZomoaiKTzw4APouk5cXBy6bjBxwkSyDx9myJAh1K5Vm2XLl/Pxx3NITU1DCMGe3Xv44P0PuKJ7dy666CJKSkoYN24c8+bN58Ybb+Cmm29m4oQJdO58Hueffz5SSt555x08MR4yMury2muTmT59Oq1ateLsjmczbdq7rFy5klBIJyEhHkNa66VfeLL2lnvZtXsXffr0QSiC8rIKXnvtNRRFYeTI+6hevTpvTZnC5MmTqVevHlJK/H4fu3bt5p///CdpqamMf2U8s2fPol270wnpIfLz86o8n+i6QWFhAaFgiGAoyP79+/H5FnHDDdfTtGlTZs2cxXvT36NHjx52CJwQgkAgwAsvPE9ubh6jRj1Fzdo10YM6NWrW4Lt160zy6IhIo8LCgl/0eUpKSqJ27dokJiby6quvUKNGDXr16k3bNm0igolfgozcT34vXC4XiiLwVlSY61lNoWGjhhQUFFBQUEDt2rWPvQb/C+OUI4/C3jA9uvegY8ezWb5iGWPGjOH8zucze85shg4dyrvvvmuSR8d1vMi/VQiiX4OtzhNVCCqBqEI8ACeWoUtG6iOin3Sjy/uFeoRNoascK+qBLfpnGOoRqe2PhN2eI4iR6HrYFyjrvqVYxIT9Gthk2q91bTgrmd0mJZLhLvozR7bRfl2AKtSjXg8TJXYdjvpu1L9HXkmO8awabteR43okCWiPSfQ1TUbmTN9+fTm97els3rKZuZ98wh133IGwx+wIkjBct6gxtdv0K/1yZHvDbY1+TjWEQkiqhBTQUO2dKSkUJIrdB0cOn65o9otSmM8t0TtaQrEyAgKKdYA1yxbBwT1Ur1uLzl164BMaelgO+hvzw8H/L0hDcvDQQVtdaCuirTkSJpfND5s/VFUlOSWFhIQEm0Q/EV+3UxkV5RUUFBaANDNFJiUn/6HZT/x+PwcPHkRVVNweN3Vq1zmp81HXDSorA+Tn52MYkrjYWNJrpP9xFT1eSDh0KAvD0JFSkp6WXlV1+mfAuX4dE7quk5OTY2/kpKWln9DcNQyDrKxsmxD6ZZ7F3LhTNRWPx0NSUjJut8taWPy5JKZJEAkKC/PZ//N+ft7/M2CGJ7Rt26ZKSEdRYSG7du/i8OEcQNKqZSuaNju+51UHDo5EhDI69m9/BHkkgGBlgKDfR8hIwGfoJNeuzRV9BhAoKcUdk0DNRk3QFTcpdRqQXrcReSEDQw/idru45eZ/EKqWyJIFn+OSOr26dkVR3cQnptC1azc+/XgmOYN7IYTkqqsGcfHFFxEKBalfvz7x8fGUl5UBEKwMklE3gwEDrsTtdnPpJZfw8cdzGDxoMG1PbwsSOp/XmWnTpuH3Bezs2OHHy++//56c3BxefnkcDRrWx9ANhg8fzp13DmHJ0iX8o+k/AMhs2ZK+ffthGDqXXXYZs2bOorCgEKEK8gsKqJ5S3TStlubmfZggz8vLY/uO7QwbNowOHTogEFx99dX8+ONODh8+bEcUdO/RnSuvvBJFUYiPr0ZiYgIVFRUkJibRqmVLNJdG/fr1adKkCcFgkObNW9C8eTNiY2LJyclBSsmiRYu44YYb+Oewf7J8+XIuu+wyXJrL9BUyOPqZ2uJBSstKCQaDtGrVCoANG9Zz6NAhXnrpJTLqZSANyc233MLcuXNtmw8hFK6++iratmkDCnTt2pUPP/zQjMKQ0tpojyLskWZ2OCSqYvrM9ujenY4dO6IoCr169WLhooWUlpYSExODJ8ZDbk4u77//PqWlpTz11JOkpaaBBNWlkhCfwLbt26psRABIaTB69Gjy8vKqnBBhH9jLL7+cm268iZtuuok+ffrwxRdfMH36dDweN1dc0Z0zzjiD5JSko4Qmuq6z5ps1xMXFkZ6eZnXf7zh/FEFsTCzfrf+O8zp3RlNM0YXf76e4uITadWqf9LFPVZxy5BGYg+iJ8XDffSNZ+803rFu3jt59erNtmzm5Fny5gKuvvvpoQsXBH46TOaGO3AEWwvSCCu8uViHh/gycAuyuJ8bDi2NepHef3jz33LNceWX/qIfqX941OGlEtVlKCYqIZNBAVhHF/SLXfjSTFvlxNMdoviclUg/iqyhn7odTAcmNt9xBtTqN8AotYrXlLLwchCFNT4JefXqd0NfcmpvGjRtz2eWX07t3b2rWqPG3UCAJIdiwYQN333s3ANdfdz333HPPcafkPR7s3buXa669BoC6dTKYP29elVDt44XH7Wb16tXcfY+ZFbRvn7489eRTyP/yRVcoCnfcfjtZh7MAGPfSOC697NLfTEt8MqgMWAkqNA1N08znDud6ZiM7K5vefXsD0Pm883n5pZdwuV3H/X2/38+1115DaVnpcX1eVVTS0tJo2rQZV155JRdecEFEAfyHj4u58yGBL7/4nEmTJpOVfch+t0njJnz22Wf4fD503WDWrJm888475Obl2p+54PwLePWVV//r54iDvxP+3LkjpEG1+FguuOgiNq1ZyqQ3JlGndm2aNGlJ8yanIUQMlYSoxEOliKVSxCEUHaFotGnXHulOoEKJ4ee8IoRQmf7Ov1E0NzqSkFEJspLs7IN07tyJ7zZu4dVXXyU3N4fy8goqyisIZ+hSVIWaNWvidrntBDiKopCUnGTXVdM0hKJU6ZPwcuLAgQNUr16djIy6Zvp5BLFxsTRu1Ii9e/eCNEOMGjSojxDmBq0QAkU1lbRICAYrcXvcVsREpP9VVWX//v0goXHjxpFNbU2hffv2LFiwAMMwaNqsKcFQkA8//JC9e/dSVFREbk4uqampSMNAN3RA2Ml9NM3F5ZdfxrKvl7FgwQKysrII+AMUFhVx/fXXc//999OxQ8dfIdXDnWDVVILf57czVe/btw8kpKfXAMMkOjIy6vLPYUORhmTnzp24XBqNGjayL6GapqHrOnpIt9cQ0dcvKSW6RSaFvWLP6nAWmuYCJJ4YD2B6zMbGxqLrOlPfnYqiKKSkpJCYmIjm0uw6ay6NoqKio67hhiF58skn0UOR+7o02SMAc5ys/ycnJXPNtdfQp08f1q5dy7x5nzB79ixGjhxJ40aNq3TVtm3bmDNnDj179ERzaSeX6S0aEm659RZGPzOaJk2a0LtXb2JjYnG5XFRUlP++Y5+iOCXJIzBPgB49ejBg4ABmzpjJ2rVrCc+qr5d9TVFRMWmpqf/bSjqoiih2IiwztNN0Hqcs/W8DCZd3uZx+/frx4UcfMnHiREY9Pcr2dpJ/BpsiLEWbfuSFUP72jecEET6cgkQVBksWfErx5k00aXc6l/YbSInwEBQqf6h8wsHfAlW84SwKNfzMECY0VFVFD+kYGBbZrBAKhdj54052/LiDzz//jGdHP0uz5s3+UJLlfwXNpeHSXARDQTxuz4kpWk8ACgoxHs/JL2StEAoFBQPTK89iqf/Iav4mFCHweKwslphmpZhV+0PvMUIIvlr4FR999BG6bjBgwJUMHDjwTyGp/oowN4YUYjwxBAIB3C7XSc0tTY08iqqKijRk1LlvhYdhUTlSkpubS05uDuvWfct1113HP4f+E93Qo64rfxTMa9U333zDCy+8QHl5ub3pI60FZbAyiGEYrFq1yk6NLTCV1bo054mqqQSDwT9308yBg5OFNBUzHTtdQLs2rSk49DMH9/zI1vXfsWfLDm68cxhSF0gRA3gwFBeEDDAMklOT8SouvIaCosUQE1ON7j26UCmF+QyIpH7tFBo3acTbb09h5Zpv6dOnHz16dCcuNo7nnn/eXrwLIVA1NXIFEQJN0yyrB1MBaBjGsTc9pHntCHuwqoqKokWyK5v3KixCSrWvKVjPG+HwU5fLZZcR3igwkxVJPJbSqbKyMlKsISkvNwkCVdVYuXIlb745hQsuOJ++fftSp04dJk2abGblRlrWG5EN9KKiQsaMGQPAoEGDSE9Px+8PMHLkCIRQuOOOOzh08BAJiYnHdW+zo0msz6qqZt+3DSlRDNMWIOfwYZKSTFIufJ0NH968jooj3osUbppbVx0DVTXtLFRVRdf1KuHxum7QtElT7hwyhPtGjuTtt98xN6Asyw0hlMj6MOqwimISUNH32+ixd3vc9thLKRHSDI3z+/028ejSjt7ISEtLo15GPbZu22p//ygV14ncxgT8+OOPpFRPoWnTpiiaSUZKQ/4tnk+PhVOPPLImnDlpQnjcHkK6bj1AmDfsrENZfLduHV27df1j1RsO/hhIqFWrFncNGYqh6zRv3vx/XaP/PqTJyI9+ZjQ1atQgGAzhrfBaPlH/3Vn7ZygzRNRvgcogIanQ+eobueq6QZRp8eiKmz90Fefgb4GwrNsOtbVe69ihI6mp1W3iyLDy/kpMbiI7O5vc3Dxycg5jGAb7ftrHvcPvZcaMGSQmHp0p8q8G2zsFayfvDz13RMQz4Bdlh8cJGR0ubPzv7r9R8+jPVJ4pQqGivIJtW7dhYFBcdKkdUvx3CZn8vYj2bDzZsQiHsRvSoH379tSsWdP2l5RWiISuG3grKjh8+DCHc3LweiswdINp06bRtGlTunfv/ofOBWGdN8FgkOXLl+P1epFI2p3enpEjR1C9enWKCovshc2qVavw+X0AnHP2uYwYPpzU1FQKiwoj558Tvu3gFIQUkuysw3z12SdceUVXGmW2pXHrM6nRZAvzP5pJYXkpiktDFyF0DFwqaDKIqgr8UsevKUihUadeQzbt3ICWlkZyWh2EUo09u3cz/cNZnPnkCFZ/s4Z2p7fnyv79UVSV4uISKsrLMazzNkzaCEuFFM4wHV7Jh6MYwsSEIQ3Ky8rN8LCEeBo3acys2bPZsX0Hbdq0QRqS7Kxs9uzezeCrBmMn/bIyYwvMcKxoZYvb7aGivKJKchuBQCjQrFkzXG43a79ZS4MGDUxiyuvlhx+2WtceyZYtW6iRns4tt9yCy+WitLSUsrJSUlNT0VTNfAbSrQxhQpCTk0NWVhaPP/Y4bU5vA8CCLxbgcrnR9RBer5eatWraPmsYUF5RTjAYJKV6ylEhWZqmER8fT0FBAQ0aNKBJk8ZIQ7Jnzx4yW2RiIPn+++954fkXeGb0M5anpEncSEwCRghL2SXMjS3TF8lvTRbYvHkzLs1lf04IpWrYsYy6L0iJoev06duH2rVrc+111zL131O5+KKLaNPWbK/P66VW7Vr2ZpBN0BuSsWPHUlhYeMSENX9cfMnFXHPNo/LppAAAIABJREFUNQgE+QX5fPbZ56xcuYK01DQGDhxIx44dj6kqqlWrFjfccAPPv/A8RYXFJFnEnM/nI1gZNEk1YRGDFRUYhk5SchJSN71pS0tLAUFiQoJdn6VLl9KrVy9atWyFoRtUVFQQCARISEj4W173T0nySCAoKipmxIjhTH13qvWysHe0DAw++/wzunXvZhpx/d1G5W+A5ORkJkyYAPaO4Z8cqnYqwoDGTRozbtw4i0xS/jYz1bajEQLNE0ffgVdjCDMsxh82Nf4f1c3BXwfhBefddw+jTes2ZqpT68HQ9gFTFBRF4PP5mPLmFN759ztIJAUFBXz11VcMGDDgf92MPwTRKs0/W6l5svdMW+Vj7cyFyb3/lvAofA8xjKoJDf6se4sEc2FjtdeQBhL5PzcLP1VhyF9QBRwHwt+78cabuPjii8zkEmHVbDgZiEUkbd60mUcefYS83Dx0Q2f8+PFc0e2KP+182b17t12/u+++m7ZtT7cyOdUipIfQQzqFhQUAuFQXw4ffS6vTTsMwdKqnVo8s0Jzp4uA48d+cKjo6ycmJxCoqX382i/Yd2iE1la1bt+KpBu44qNQDCHeATZtWUlacTevT22CEDKQWg24EkaqbDuedx48blzN1xmzOaHcWbsXN8qWLOOf0TGKrJVI7oz47du7i62XLCAVD/8feecdJUeTv/13dPTOb2MDukiQHEVDSomL4niioiICnhwnELCd6Z0JEQc87w6lgvPthOvOZA94ZEBUDIHoqYEJRUBDJacNsmtDd9fujuntmZyPRFfrhNcCErq6u7q6ueur5PB9mv/UWkWiEFSuWU7xVEQRCCE+toQmHVHYWkxJWCqrvraqq4sorr6SwVStuv/02+vbtx4AB/Zk+YzonjT6JzMxM3przFm3atuHoo4/xhPDJfquapqEbhhNOBkVFA/n+h+89o2fvREhIT0vn+OOPZ9ars6iqqmK/9vuxaNEi1q1bSyiolLAF+QUsXLiQl19+mfz8fD755BNKSkox4yY//vQj7dq1Qzd0Pv/8M2zbokePHliWxdy5c9m8ZQtr1vzC3LlzCQaDfPPNN4wcORJN0xxvIuXzeMstt7J8+Q/MenVW4iQ67VNQmE9eXh4fffQRA4sG0q9vP3oe0JPbbruNP5zyBwLBAK+99jpdunahXdt2rP55dULZI/GSlei6CgXu0KEDGRkZ/OuRfzFkyBB+Wf0L73/wvkP4C0zLRjjRJu7ioKc+dfo8XdcJGErRNWzYMBYuXMhNN93Eo48+SjAUYuu2rYw4cYQ6v3biPOu6zowZM2qSLyn+GeFwOc888zRfffkVPfbfn0lXTaJ3796JMWQdwh8hBLl5uSqM0ckaLhDcc889fPP1Nzz44IPktsxF6IKbbrqJFSuW85///gdbSuy4xWV/vozMrEzuu+8fGE47VVVV0bp1a298VFYWJiMzw1N37W3YPdr4nYWERYs+57PPPvNu8oQUWp3kt99+W8W07muExG8EiixyVhS1fZA4cuAahavMaXsAEi+EY7fPa5wVBhsNC3efLnG0b55vH9sPl1i2pa3uE5HUXwiQzoQ0GAgy8ZKJdO/eAxBYlsWzzzxbf9+SdP0nyGuxXfdFcnY3wBvAJb5vWhluOW44mqY5Mm2p4voh8a+rsE0N/3GNK2vUawdJeY/4cCa1Ndo8qfy6jkWkjN7q3L+s+W+i/J2VPtUNr/yUgWXy+RNJ+xaidsKGuuF0cu47t/3tpEQS9dQnUS/NWaGt/X2du6v5S2efiRCC+ttP1NHedZWZsktZ+xx610QNjWnj5e3MM8dtI9uyMOMm0VhU+Wo4CoNkpdeggwdx9dVXY0kbTWgUF5dQkeQt4R6POv+NXG91tHlq6IdlJUixFi2ylDJCE+i64U1043ETgSAjM4O2bdsSqa7GNE1HTWHXeX0mny9nz422YSKrblKfIGv2BT6puRdA7riSb/t2o5QjWVktGH7iKPJa7ceSz5bw5Uf/I1MPcvKYUxFp6QTTszj8/47BNk1KN29CmjZduh5Aeot8NCEQtoUUgjFnnUf7/TqxfNkyflj2DYMG9ua8s88loAe59M9X0KVbd15/4w3+9+n/GD78eMaOHUs4HKa0rIxu3bo5qejVdWwEDIqKimjZsiVu1uFWha3o17+fR6j0H9CfPo45dEZ6OpOumsTw4cNZunQpH86bR9++fbn++uvJy8slHovTr28/2rRtk2gAAb16HUDLvJZIWzJ8+HDWrllLRbiizn76tNNO5Zyzz2H9+vW89977FBYUcuqYUxlYNBAJDD9hOMcddxyLFi1i/vz59O7dm/PPO4+c3BzWrV1HRkYG48ePJxAIsG7tOtq3b89FF11ESWkJc+bMobKykiuvvIojjzyS1T+vJhQKEQgEPGNq27bZf/8eKoqhxol0/rEkhx9+OF9++SVm3CI9PZ3JkyczbNgwPl+0iIULFzL40EO56sqryMjMIDsnm379+xEIBJEowi4vryUHHnggQhPkZOdw5ZVXkpGRwZw5cygLl3HlFVfSv39/QqEQoVCIAf0HeB5LQkB6ejqDBg0iEFBKq4FFA8nNzUUTgmAwyMSJExlYNJDPPv+MtWvWUFxcUneEihuN7twLrkLbfSGhrLSU7Oxsrr/hBq64/HJ69eqlrmmt/n7f9eB1nytu39zrgF4cOvhQFQ7n9Kv9+/Xj8MMPVySYoTKeFw0qUu2TdH1oQkskf7FhyeLFdO3alewWv31lfF1ofsojZ3xw7HHH8vVXXzNv3jweevghZs+eTWVlJaAG1itXrmTR54s4dPChv2JlfTQEn0Bw8CuM44QQqWrWXb8P3ENTA/S6JiE+fOwIkie/0pbYliKWdKEz5Kij+PHHFYCguKTYia+vTaLY0gYbSkpL2LBhA+XhcgoKCygoKCC/ZX6jYUdueeFwmEgkwuZNm6morCAzM4vc3Fzy8nLJzMikMV+vUDBEZWUl5RXlrFu3norycvJatqRdu3a0yMryBjmugkcId4kkdUKvoWsa4fIw0WiU9evXU1FRQUZGBvn5+eTm5pKZmUXjbIE7eILKqgo2bdpEebgc0zLp2LEjOdk5ZGRmYprx2ptKSSweo9EJuSP5BgiXhdm0aRMlJSVkZWXRpm0bcnNzHS+LXdM5egSdwxXYtk00GgWUjN/QDYQmiEQilBSXsHbtWmzbplXrVrRp04a0tLSk60cRk5FItee34dbTNONUVFR4RquBYKAWCeVmFS0pVUapxcXFZOdk07ZtWwryCzz1TCpZZ5om8Vgc3dCVKawr3UdSVlrGL2t+oWXLfDp16qhMUSMRL1tOWlq6CiGpjrJ121Y2bdqEZVnk5uZRWFhAixYt6vXRcolMTdcoKysjGo2yefMWSktLyEjPICc3h/z8fPJy87As5UPmhSWkYFd0/655rjKUdUIpkgfpmvIPOrDPgerXUmBacSLVEbKyshBCYJomQggqKysxjAChUNA7Z4lnlltpqK6qxvUMDAQCOKw1cTMOEiLV1R6Za5omFRUVqu2FhtAE8XiceDzm/aaivMKZbBjeBKrm81Fg2xZl4TLWrl1LZWUlhQWFZGdn0zK/ZR0ktSIrY7GYN4k2AgGv7Fg0xpYtW1i3fh1t27al/X7t1TXrP473AuzeAaQQAiEFJjo57Toy5JSx2FYcXUo0XcfUDSIITGnT7+ChpB18NFLaRDXBsFPGYto2UhhoqBDTYE4hx558NlbcREdgaDaBzDQksF+7/Zg29ToV/iMEaCBt5W8bCAbo3LkzmqbCuqRUJMSf/vynRKi7gD4H9vGIDdM0+fOf/6yUSUItnGZlZTF27DhAhbzphu6Eq6kw2GumXOM1qcogJrjkkktUW2iCHj32JxAM8NXXX3HEkUfUav5QMMSIE0cwYuQIb1ziKWMkpKWHOP/8853FIKXUtUyLI444wiOahw4bytChQ9XZlYpwOv744706gFJApYY7WZYyAT/ssMP54osv6j6fumDYsGG89trrrF79M507dSY7J5tzzj3H84zSdd17Rg/oP4BBgw7GjVSTUrL//j3Yf/8eykjctDnwoAPp06eP157YMGjQIKf+kuumXVdjwSg3N4/rrrvOeyb/6U9/8vpK27Jp37491029DmnDY48+yoAB/Wnbpm3t54obbV/Pg0UCHTp2YNxZ49R7N/S/gYUdd0OXiLNMC8tWz9Hfn/x77/ltmiZGwGDcWeNqjFM0ofGnP/1JlaELj8gyLdMJq4RwaZjPPv+MCy+8cDf48DUPNN+jkspk8Jihx3D00UdTUlLCiy++yLPPPsvSpUspKSvhv//9L4cedqgvBfbhYxdge28jtztf9/MqCrLTyM7Nx9IMTGFgodSiQqb82IePJsAddLiTMXelSEpJ5y6d0TQNy7ZUVhZnxceTtDuTxyVLvuDOO2ewcuXKRHlSEgwFOfjgg5k0aRIdO3b0FBapSp8N6zfw/2b+Pz788EM1UbetxATUlmRmZTJs2DCuvvpqMjIy6jgINdhb8OkCbr75ZoqLi1XqW2cQGzACHDr4UG644QZvsqj8BmqqaNy6bdiwgbvvvotPPvmESCRSQx6uoZGdnc1xxx3HpX+6lBYtstFE7WNS1ZKEw2H++c9/MmfOHKqqqj2jS9uyyc7OZvzZ4xk7dixpobREpsykwVZ95yx5cvzTyh+5/fbb+fbbb5UCw7JBKKl7t+7duPbaa+nbt+8uMQdP9TVYt24dF5x/AdWRai644ALOGncWzz3zHI8/9jjlFeXeoFzTNDIyMpg4cSInn3yyQxxIli5dyhVXXO547VgekfPMM8/w0ksvYZomffr04cEHHiRh5Qy2bbFq1Sr+8pcb+eH77710xhKJoQc48MA+TJkyhd69eyd8cFDX7OzZs7nrrrvQNI0777yToqIiPvnkE+65517WrPmFWCzGX//6Vzp37sTPP6/mwgsuIBaLMXLUKCZNuopXXnmVxx57jI0bN6psOE4YRl5uHn/84x855ZRTCAaCNa8J5x7bsnUL9917H3Pfm4tpmmogjPC8LNLT0znmmGO49tprSUtLq9MEtC5j1R0/oYnBfa39OEquhJpPYCWFOijPTI2pU6fy2aefEYlGuOuuuzjssMO8SWhqyOHUaVP56suvsKXNjOkzOPzww3niySe5f+ZMgqFgDcLw4j9e7E02VGipwLJMYrEYhmZQVVXFmWeeiQQCAYM77riDQYMGJXzcpOTb75Zyy8238Msvv2BZljfx0IRG7z59+MsNN9ClSxevH1Amuxqv/udV7p95Pwi4/fY7OGzwYN6Z+w4zZ85k08ZNRGIRrp1yLePGjcOMmx4Z7eO3iz2hPhJSw0ISE6DpIWw9hO6QId4YzoC4lJgSbGdu7voGmVI6TymJJYJELRsjmI4ArLhFRKhthAAs51YVSiUjdKFMjSUqDb10/Y5QhIZN7WeEs0DgTvSFEEhLeooT6fgJuf5C4ChDhPRUzsIWXoIOdZ+osoyAznnnncdTTz3F4MGD687qLVNT1yf+lbaqgzoW53i0mmMUl8wCkuqono0uYaKe76Cjec9WTdOwbckHH7zPtVOuRdopQ2unH8zLzeOwwYN56aWXuHbKtQljak2NMdR4SLWPbiiSPjlczIv4sRPt6RqIq2et8PoVgcA2bS/rGqg+Ofn8aLiqUuczTZVdWlrKBx9+wM0336yU501SAyddBpoq01PKaiJVLFwnpC3JyMggGAzx7HPPMmbMGLp264qQwhsbGAHD66+TQ441Q/PM1QG2bNnKBx+8j2maFBQUAPD6G6/Trl07+vbtp8g2Gq/Tbw3NM2wNEheA0zHktczj4ksuZt78+Xz2+WfcftvtFJcUI2tllvLhY9+GSFlwTIRuNPzafkgE8PH773Lx749m9mP3YG5di2GZaO7DCKcu/m3qoxHUCp1KneTaalK4YsUKb2LcvkMHpUxIkihHozEeevAhJk68mOUrlnshJ7a0sVHkx0cfLWTcuHEsWLBADWaSrn8pJV9++SVnnHGGUrxWVXr7U4oBdWFXVVbx6n9eZcKECd5gNRmmZXL77bfz5z//mQ0bNlAdUeoFXejomk40HmX+gvlccMGFfPP1N95EvoaKxmmHJYuXcM7ZZzP3vfeoqqrCsi2HhNI9cikcDvPSyy8xZcoUYrEoVh0Tb1Cx+RddNIHXX3udyopKQKI5WWoQUBYu45//759MnDiRisqKGqFfhhFwCJba8AacUvLKKy9z1rizWLxkMZFoxCFRVD9j2RY/LP+BSy+9lNdfe51dwSx7dXQGsNKWhMvDVFRWEIlEmHHnDO655x7C4bBH6Ni2TSweI1wW5rbbb+PJJ5/yzq1lKXVJdXU1kUjU8d3SqKqqoqS0hPKKco8IdM+SGY/z4gsvMmbMGJZ++w2mZSqVDmrwbFpxvvzqSy668CJef/0N0kI1ww6i0RjlFeWEw2EEgjdef4Orr76aH39aQTwe945TkSpKtRKuCBMOlzFjxgxuuvkm1q1bp64HO0EqlofLuf2O23n88cexkszqQQ22ly1bxumnnc4bs98gGo154ZMAtlRtVVVdxRtvvslVV16FlTRY392oM5xOtQQ//vQjoK6ntm3akZubm/ihhJKSEopLS6iqrnJCx2qXLaXKpqbCZkopC5ep1XHbJhaLUhWpoqysrMYEoqy8jIrKCsLlYcrKyygLl1JRWYEZd0LUbElZeRnl5WFKS0pVdZztLcvi2eee5eyzz2bFihVEo1HlqSXVcVi2xddff8UZZ5zBvPnziDsKKinV/RWJRNQ5Ly/HMHRmvTqLadOuZ/Uvqx1FYOK41P93x1nxsbdBOgSlgUCzwZAg7CTiyIUQSKeP1Zz7wQ2rdXQ2oBnoetDr1aUQWDWEINJT6bgG0O7HuN7Y7hjWG0MmSAHNycylCc175njEtZNswl2McX+T/Du3jERV3BBm6RG8hx9+OEcffTRbtmytt83csLnkuapbHnbqsTj7SDo2T13s1EdLuVk1TSmNVbMLr/66pnHJpZewX4f96n5yOg19/gUX0KZNW4pLitVM32lft/3ccXkNlY773j3dSX9qtLW7H5dQSQrDd8vxjjflmEDVQyD45Zc1jD9rPF26dklkTN0eJB1PjeunIQg1TsjLy+PGG/9Cfn4+27Zuq7ltUlmpx+XW3f28PBymsqKSyy+/nG7dugFKvXrBBReQkZ6e8M3ay+ZAzVd5lApn8oCE7j26M+XaKU66wAbg9V67vXY+6oN/DlKYnD20nxSotKQNjyRF0m+hfqloAjagE9IklBbz9J3TeP7xmZxx/mUMHX0awcL9MNGx0NBxBhn+YNZHCpKVG1CbRHJ+hKbrbNq4kTffeNPLzDR+/Fm1fD4effQR/vXovxBoBPQAQ44ewgknjKBlyzw+//xz/vOf/7Bu/Toqqyr5+61/p3XrNuy/fw+vnOLiEm699VbKK5TnQZvWbTj22GMZOHAgGekZrFm7ljlvvcXniz8H4NvvvuXdd99lxIkjFDHh1OORRx7l9TdeVyl6paT3Ab05ceSJdOvWjXA4zLx583jvvff5Zc1qHnjwAY+I8AyzNTXELCkpZsadMyguKUagMoUcd9xx9Ovbj7yWefz000/MeWsOi5YsQhc6n3/+OXPmzOGkk06qs723bNnCli1b0TRBUVERvz/593Ro34F169bxn//+h0WLFmHbNl9+9SWXX345DzzwAIFAwBlAinq9BNz6z5kzh+nTp6vQIQSHHHIIJ554Iq1bt+HnVauY9eqr/LD8ByKRCNNnTKegsIAjjjiSnekcU1fn3VACgeCNN95g8+YtGIbB0UOO5ndH/Y78/AJ+/HEFL730Er+s+YWAHuD5559j2LChdO6sjESPOfoYLNtm7do1LF++Ak0TdOnchc5dOiOEoHOnzmpS76x2vjVnDnffc7dStxlB+g/oz0knnUSHDh35+quveOWVV/h59c9UVFVw001/o0P79vTt19ers9uqmtBY9v0y7r//fmKxOAEjQEZGBgUFBeTk5Dg+Ok4fjWDhwoVUVFQQDAQZPHgww4efQKtWhSxdupT//vc1Vq/+GU3oPPnEk4waNYq2bdsCiiCrro4w+erJlDvKmvz8fEaMGEH/fv3JatGCtWvW8Oabb7LkiyUAfLboMz5euJCjhhyVpAao2fZ2KkuznVCTQOUt4ZpmJxpIqXxWrVrFXXfd5bSXzqWXXEIoFPKMXy3bxjACXt2EE5JWV9VSfTV1TceWkp7792To0UPRdI3FixZTXFqMQHDYoYeRnpGBricmR7aULFmymHC4HIlkyO+GoBsG0rbJycnxVFQvv/wyd951p6dY+r8jj2T06NFk52Tz/fc/8Nxzz7JhwwZsKZk6dSqPPPIIB/Y5EF1PqAgFGhKbr7/+mqeffhqQGLpBfn4+WVlZ5Ofnq7AfVOYk/5nrY3dB1PGursvNVcCpMeDuGwjujOpR3ZOOokloKjtbcxInOISbRIKl3jd0vGlpIc455xy1UTNNDNq370H069e3huppj0FCt+7d6NZdET472kbdunWjWw9Vhm2qAznt9NPAVtYJe6t9y2+GPEo2UHVPsqGnVD/1HCURF76BYANopBPaKfjNvufaIHk/Qj2tNU2vpaxobPu6jFHrun+ksNSPpAnxKJoQWMWbePrOG/nvvx/iiN+fzhkXXEoopzWmrTsUgfCK3ju7VB/bC10zAOlIpGsbC1uWWtH//H+fc/fdd7N121aEELRu1YaioqKkcnQWL1nMY48+BkDAMJg+YwZHDxmCZSuPmQEDBjBmzBhuv/123n7nbTZt2cSDDz7AnTPuRHM8Vj793//46aefEELQs2dPZs6cSWFhoZNe1+bgQw5m1KiRTL56MvMWzAPg408+ZvTo0cTjcXRd5+efV/PEE48TjUUBwVljx3H5FZcTDAY9dcuwYcdy7rk/MmHCBEpLS5OOOREaJ7GZN28+y5cvR0rJAQccwH333Ufr1q0xdAPTMhlUNIiTTz6Za665hvfefw8k/O9/n3LqqacSi8VqctcuMSUEU6ZM5bRTTyMai5KWlsaAgQMYceKJvPHG60y7fhoCwZIvljD33bmMHDWySc/QTRs3cfdddxOLxwkYBpOumsSYU8d4cf+HHnoIo08azZ133skrs16hujrC3/72N+bMmaPW8howuWwQdWymFvsk69avQxMat9x8C8cPP94jJwcPPpSRI0cyYcIEVvy4gm3F2/j222/p0qULbdu15bbbbgMBL7zwAjNmzMCybU444QQumnCRNx5R3kUaa9au4e677sKyLEKhEJMnT2bMmDEqvNKy6N+/P2eceSZ/+csNzJkzh1g8zp8vu4wPPni/VkiGJS3un3k/1dFqOrTvwFVXXcVRRw3BskwvXEwmZTUrcbyJpky5ltGjRzkeTTaHHHIop5xyCueeey6rVq2iKlLFhx9+yLixjj+EJnlv7lxFVmBT0LKAZ55+hjZt2hCLxzAMwzlfJ3HjjX/hzTffBOCrr7/iyCOPRBg7cb7qgHs8CxZ8xKZNm525Uk0FXjhczjfffM033yylxCFzTjxxBMcPPx5N0xNZgxzUFY5aP7w9IqXN7373O4488kg0XWPixRNZ+PFCJJIrrriCA3odUEPhU1VVxTWTr2HBwgVkZWZx419vJCsrS/k2ITBNi3Xr1nLX3Xd5Kom//e2vnDT6JC8l+f/93+/4wx9OYdq0aXz44YdUR0zuuOMOHn7oYUJpIRUyIlVLCARPPfUU4fIw7fdrz7Sp0ygqKiItLQ3LCWf1/Qd97Fn89q83l0AClMKkOd1DyePzJo7n66fzmgdqqXr2BJL3s7OkmluWU06ysgrY7jC83xJ+M+RRkyHwYl8TWSn2TNaC3yxEYpBVb8fUxOZTYxu/rX9dSKSQSCMEQqILE8PSQOgNPkaElPXeK3VtZ4k4mhQIaYK0sQkCJogY5Zt+Zs6D05nzxMOcdP7FjDzrfDLy2iJJw0Zga85q1K46ZB+/aUy9bqqaIOl6YsDmMIzhcJjS0lLKK8ox9ABCCNq3b8+MGXcqw2oXAh599DFFFKFxzZQpDBlyVI3Ye9uW5ObkcsUVV7B8+XJWr17N/Pnz+W7Zdxx04EFICd9+9x0SScAIMHbsWPLzC4hFY8obwPH/SUtL45xzz2XhxwsxLZPycqVS0nU1wXv22WeIxqLomk7HDh2ZNGmSE/uuVj9cA9zu3bozffp0LrvsMi8MyovdR6kMVq1aCQgMXefMM8fSqlVrAC9MxbRNDN1gzJgxzJ8/n7gZp6KivIYvTfI9LYRg3LizOHXMqViO15FlWU5oj2TEiBEs/2E5T/77SQCee/55hg4bSigUQhdGnd27bUs0IXjmmWcoKSkBJKecfAqnn346lm07oYNqRTcUDHH11Vezdu06Pv/8M7Zu3cqzzz7L+PHjE8aoTYSUsvYiknu8ThtLJJdMvIThJwz3+je3bVq2bMkZZ5zJ32+9FUtayjjctDAcnwIhBIFAwPPYklLWqKNL8r3wwguUhkvRhc6pY05lzJgxICEWi6HrOvF4DF3XuPnmm/nxxx9ZvmI55eXlzJ83n2OGHlPL2ycSjdCj+/48/PBDtGzZEtuyVbigTITmuWEZlrQYM2YMJ5002glXU+GdtmWR3SKb8WeN5283/w2AVatWOX5I6hi++vorQKl3Lp54MXkt87BsS5F9UpmG6rrGCSecwNtz3sa0TCoqKt24C6+ta9yzOwghVD1efuWlRkkf4VTg8ssv56yzlPowFovuxGRPoCGwSTwDTcvEjCvT1LgZr+WTlPys1HU9oQxyVEYqc5p6yGlCcN9993nbXnzxxZz8+5MxLdMbr8bjlWRmZDJ9+gzOOON0Vq5cydfffM2y779nwID+qDDVhF9TRUUFRQOL+Mc//kl6WhoSmRRe68NHM0WSf0xzhLfA6SeA8fFrw1GbNUfsVeSRdOIPjzr/y8CkAAAgAElEQVTqKDZs2OCs3CoTS588qh+JsA+VJteWdlK2j4R8qylt6Mqxffw6cHU9tpTYmkG5bSBFAGQ66EGQDZ2bBmj4WudeqKB4LLCqIaBB3FT7l448UEhkdBv/feA2Xn/uYcZeeAXHjTqLtPzWRGUIK/ny8rEPQ7L6l9VqcuRkbHGJbI/QdmBacQ479DBuuvlmWrUqrDGBW7t2LatWrgSgbZs2nDB8uJpk647ZdlL4S7u27Rg+fDgPPPgAAPM+nMdBB/UF22bkiSfSq1cvggFlaC1QyRvcECV3crh1yxZP6VDDr0BKXnjxBQzdwLZtzj7nHJW1JMUg2cXAgQM59NBDmTdvXo1WEULDNE2GHjOU3k4q4qKiQV6YlGsMrOs6pmWydctWlR0KteLlGXqmIBQKcf755yl1UMCooUZy63Xa6afx2muvEQ6H+eH779m4cSOdO3V2Qg9ql6tpgtLSUuYvWIAlVZuc8odTHKLGzUajJ9UhjXPOOYdPP/sfAsGnn37K2ePPrrO+DUEIgWnVH76uDLEzGTNmjLcwIkj4Vkkp6dihgyLQTIs1a9aAe00JvIl6wlNJS5ifOvuvrKzknXfeQRMauqEzYcIEhzByfYpA1w0sy0RKyTXXTOHii/+IaZnMenUWxww9pra3D4Lrr59GQX6BMlPWXJNTcI1O3WsgPS2DMWNOTdTZvV+cMK9OnTo5bzU2btzokRlSSkaPGs0Rhx+BaZkUFRV5BGg0GiOQZBhaWlrqERPKI6/+FVU3Lf32j7ncbVQdapllOyEb7p2saxr//Oc/+WjBR/z1b3+lU6dOyuC8HkP3JtfCIeVsaavwOZTnkJudMfn817lAKfGMrl1UVlaydOlS4mac/Jb5jD1zrCKXdZeMFRi6gWXbZGZmcOGFF3L99ddj2RZz5rxFv359PWLdTa0eCASYPHkyGRnpXqiNj70Rv/1BUo2Q0d+If4FPHPn4teEac3uiDpdMagZ0xl5FHoF6sG/bto2SkhJv8OajaXAHL8lEUdMl3z6aC9QjT0NgoGNgYlJjqbhe2E0m/jSpoWFjCqV+MDDQsLGwsRJxBk5nZ2OXbuHpu2/hhcf+xRmXXM6I0y/BNoL+1eUDy7YIBUOAQHMmyfGYQ4I4aW5d42GBYPGSxdxzz91MnjyZ/Px8j8DZuGEjW7duRSJp27Yt69avS5psCW97l5Bq17ad99lPP/2EZZkYhkGfA/vQu08fpJuWFkBCOFxGNBJlw8YNzJ07lxdeeCExSRaJCeS2bdvUJo5J93HHHVuDrKhtAqxxYJ8D+XDehzU+t20LIaB///70k/28vliFQtlUV1VTVV3Npk0beffdd3nhhRecUDYLRP3KjYyMDHJzc70Jel2D5LZt29K7T28+/vgTLCvOjz/+SKdOnTzz3lQIoVFeXs56J0QsNzcX27JZs2YN27ZtIxqNesodgLS0NKLRKJkZmUSqI6xft55INFKvGbeLpvuxKVi2RatWhaSnp9cgVpIVI0bAQNN1MJXSxpY2Oq4CLom0QZmVumofVRCUl1ewafMmBILMjEyKS0rYtm2bdz24zaWIR807f5rQ2LhhI1VVVaSlJcyzNaGR3SKbA/scWCv8SF27sgY5kZebS0F+fn0t5rWpEILy8vLEVwIGDByQSN1MIhV0JFJNcXEVmzdv5t1332XWrFmef8PuMstWZuo2V0+6mqKiQRgpGd1s595atXIl8xcsYMmSJcTNGIuXLGbChAk8//zzZGdn7/Rqraf8s9Q5q7VskkSMef/aDY+ZflnzC+FwGIC8vDzKysrYuHEjumHUIJ7dMMfCgkIAdKHz4YcfMnny5ETIomL0KCoaSOfOnb06/Qbm4z62A14GKZ/E8OFjn4S3aOSML5uTf9JeRh6plItuFhUf24e45ZNtewPU0NVGEsPGBHTARKVcaCgm0XbjDqk5+q69jY0kkW1UcygjN7MQ2G60tTt5khppaZmceubZnDLmTKo1d+Pm0xn6+DWgwkWefPIp+vTpjabpzqTbRk/y66qoqGD69OnMmvUqsXiM2W/Npn379lz258uwhbrutmzdgmmZBANBFn+xWJkWNrp3gWEYrFm7JslPRoU1VUaq+XzhIt5+ew5ffvkl5eXlVFVVETfjaGhOiFqCzPD8T6qrADylRiAQ9PaXrFrw6iBUEghX7ZD43AlRccj8aDTKRws/YsGCBXzxxZeUlZZSHakmFo85k3o3O4v01B+1jlcIsrKyVP2s+hUauq7TrWs3/vfJ/7AkbNiwwcsWVddcxrYtNm3chGmaaJpGWVkZZ447s7Hmd45ZheBs27aNNm3aNLrN9qJd23ZoutYkNYxl2+hOGJxnsmwn6ACPWHBPk4AN69d725eUlXLS70c3qV5SwsZNm4hFY4rc8iA4+JCD0Q1dmY6nZuERCRWbRJJfkE+L7BaYplmj7NS4YFvatRVDEgJGgOpIhE8+/pg5b89h6dKllBSXEDdNFQqWoiZOqGx2bd/tmoB37NiJnj33r/M3PXp0Z/DgwYwdN5avvvqKP/7xj0RjUdZvWM9NN93M7bfd5mTt2XH2qPY1IpXaqpFQurrgZn6qrKhUSkE0Vv60khNHndjkMjZtVvdVTWJVMmDAAILB0HbVx8deDEGzV/UIl9ht5qFrPnw0B0gJ69au47TTT2PmzJkMGDgg6ctfr16w15FHkJGezuzZb6E7HgV4K2Wpv9yRDnZ3n63UOu3q/dVdfp0DarljqiN/laS5QBKPWaxas4lyPUTUtNBxssok2VOoBfV6zrOUKvTMGdQnR7xpMjF7mvPqy/z32SecCY3m/FG5Sm0CtO3QldPPGs+xfzgLO70VVXoAU6vbO8XHvgaVJl6gTGddQ+lAIEB1dTWgQsYMw+CGG24gK6sFjz3+KBoa/37q30y4aAJGQD3GIpEotrSxTKvJEz2JJG7GKSsr84gMKW2effY57p85k6qqKi/kzA19y2+ZT8eOHWnTug1z3p5Tb9mGHsCyTAIBo0HiQghBMBj0QpESn6v71XbSe98/836qIxEMXfeIfoEgPy+fjp06UlhYyDvvvqOOq559SSlp2bJlwpelnv7atm3SM9K9cmxbkXluKuO6jqE6os6XZVvomt4k3xpVviQSjRKN7IxnTf0IhkKNh1B5ShIbXdOS6p2ooxMFVmv1r7KqMrkgZ6uaaiH3s9SMWbquYRhGSv0kB/Q8oHbYVgqS1XQ70m4uGTjr1Vk8/NDDbN6yuQZ5CZDfMp+CgkI6d+7EO++8s9372D4kzoGmafUev3BWYfv17ceNN97I1GlTAVi48KMdSvfsCWTd90lt4JHDiCaRj/XtwLItYrHYDiu5U0NQJZLMjExPqelj34arefN0crU4pPr7B3d8t8vh9U+JKtWoTvIHasWx5nsXtbncfRNu8MCuzJzW0GOjKe28O7dvShm/9vaNlbGT2wvUguMn//uEgUUDOXbYsdxxx3QGDOyfKP9X8kXaq8gjgUA3dA468MBa6WJTfRoaitmvD+4gcnegtlfQrjf5buyYtV0wcN8T5NGeGCzVdxyN7bvO7ZIzGrvP9t16DM5kR9ep1JcTCLQhrofQnOgL21k4t4R6yaSne0NXiF1nk9jony1Fahkgq0C6+iOb3Bb5XDTpOo448WT0vNaE4xqWCGCSII58qtGHLW1saXsZudzQDXci6IZ6xaIxxo0by9NP/5tYPEZ1tJpl33/PQQcdCEB+fks0oWNJi/79+nPuued6ZdZ1pblqAnff1ZFqMtIz+Ncjj/LP//dPb7uDevfhhBEn0Lt3H9q0aU2LFi0IGAGWr1jOe++/TywedY5D9dnBoFIamQ7BE43GSEsLeceSCtO0qK6O1PrOtiyEpvHcc8/xj3/8E9OMI7Hp138gI0aMoFu3brRv34FQKEhGRgZff/0N7777LspYt/47ecuWLcRisaS2qQ3LtNi8eTM2KrxKJi0m1DUBllJSUFDgtJggL68l1113LRnpGd7gRjrKYEg8a9wSA0aAgsKCeuuzM3Cf/Q31ud6xJYWaNeVRJqUiE90y8lvmc+NfbkRoQhFoDRTiGl97oZFJyGqR1ei+bbuJhq71/MS2bR57/HHuv38mEomu6Ryw/wGcfvrp9Ondh3bt2imTdEPnhx9+UNfWHnr2Nhau4353+OGHA0qN5foduRlvrDq8sBL+jgnFoGWZRKNRdnRs1xgx7CoH3Wusa5euXHnllZ7Re0OEl2VZGLpBKC0NIRKkpkBzSNGax+VjX4VQyUsApEoXnqJvrXdLTRf1rh/uUE0cfyP3khRoaswpwHbHmPWtVybX1HbCdFNDMvdV8shFQ4P07Z2iyiaUVx+a4oTR3MmfXbH9zpTRlO29nwrenfsuc4sGcsIJI7jpppsoGjQQ27R/lfDWvYo8AkCqB6me0pAyxSh4Rxt6tw2eUlY0VajPriaPUttk9/fCv9VVsfq8NbbrukntGJLei7qZmJ1Coq3VbE1KpXqwhE5UBrGFM6BwCCPvOZN0iho6W3UuUAmwRSaQAaISJGRmF3L+5VcwZOTJiKwCKkUa8XiQZMNc0bzV1T72IJIzYNWlhnGvayNgkJ+fT+vWrVm/bj22tDFN0/s+LzePjIx0KiorsG2bAQMGkp6WhhEwamQeSxSsBqeuB42ua2zYsIGXXnoJgFAwxMUXX8zZZ5+NEBpC4GRu05G2TTwe9yaobpYrKSUtslqo+uoBbMsiFosSDAQS8evU7EektFm5cmUt1Yem62zevIlHHn0E01QZ1SZeMpFx485y1EoBT9UAYJoJNVJ9E1pN04nFYl4GsfrUHUbAYPXq1WhCx5YW++3XDsuyvFA9j5BJ8npp27Yd6enpjmJMMnDgQLKysgiFQti27YQlucevKZWPrkITNU0jHo9vd7a1psAjhGQD2UQbK8P5W/lYJQzGkdCqdasavz36mKOpro6ga1qdqex1XVcqLmcxShEXNREKNSUcqXEPhIbasqqqiueee84jJC655BLGjx/vkV5SSoQmsC27URXUrkBNZVbTBsOuh1Pyb5VfUdMX32zbpqKyIrG90BKD8QaKcBf81M8aICZtSds2bcnKzFJ9k2UzePBgj+AVyQb4uuYkK1HfufdGNBpRRvmJUp3x4W9zfOVj18HtmzSpQsDjzjhLSGototfV/UmUDUFyabugQt6/trQxMTBxxpDudestSAiEnZzUIuW99MlRYLuJoSbPvZqYXyB58ScZgsbPT63r0PtC/dOYcCHZO3CHtq+n7k3dHho4BpwFj53avraiWX2B40OcgK7pvPXWW7z99tscf9xx3HbbbfTt39fZSSOV2IXY+8ij3Ywdli43Q+yWDjmZxbb38k6/LsY+uYOvr7PX6tl2J1Gz81EDiLhtYwXATNpf8phTkPi3rtUnkfSD+k6lsC0wo7Qs7MBJ487mtAmXExFpVIsAcXRsd5CctM+94w7ysSvgKmXqIw5S1QJ5uXmsWbsGSBAmAN26dSMrS03QtmzZgm0r9ZKUTthHStFLly7l1lv/jiYERx9zDBMmXETxtmI2btqIQNCzZ0/Gjx/vZZ4UQiRUDRI2btxY41ngEhSZWZnk5bYkHC4jEAjw4IMPcc3kyYlVVAeKQLCxLIuFCz9C1/QaqbalVIbTJaUlGLpBh44dGTd2HLqued5QbvtIW7J+3foa6qC61UeScDjMTz+tpEuXzt7xpOKX1b/w7bffeoSWm+0toQrRQNqJtPEIcnKy6dq1K0u/XcrWbVtZv349vXv39gg+ReAljn/tmnVMnTqVcHmYXgf0YvqM6bvt2brbVuYEZGZm0aVTF35e/TPhcDmbNm3yQgPrwrZtxUyceDHxuEn37t244447aoWONKiS2gW+JkITfPfdd5SHwwg0OnfuzDnnnOOF0HlZXoQglJbGunXratRpdz7XXYKuKfjpp5+88Edd10lLTycWjRIIGGRlZeGa41dWVio1Y+r1LiFcHvaM9psCTxHpqcMbb4t27dqRmZlJRWUF24q3EQ6Hycpq4ZmCJxNIZtyktKyUq668ilg8Rq9evbjuuus8Ly4XQmuaj5ePvRnuQqFEC8D3S79hS+k2DKnGW+7VKZzVwrqv8aRPd6UECbzw6KrlWbQPRQnY1eiOH59LvrokUfKiR+p7tz9IneTv1fOLJmKHoiHAI+Z8NGMIpRRX6m91T7hjRNu2mD1nNrPnvMUB+/fktddfo8f+PYjH4hi6sdvvDZ882gHsiQ5LqB3t9v3ALuhE6mJNU8rbKwc4O5oReOcyCdcNkXJdOnJU05RYQTCJoxNMkECiaeOE5DlNncMOaZNTWMgF0/7KiJPGIHNbsimuE5ABTMORKaeUIf3nvY8UeHxrPYq/ZLRt15avl34NwPr1G7zP09LT6NmzJxs3bWTDxg3MmjWLiy66qF5j6BdffJHvf1gGwOiTRiMQhMvD3v5d8kXaUoUWiQRBFIlEeORfj9QThmYyceJE/n7brUgpefPNN5g4cSItUkKR4qaJYejMn7+Ab7/9VimgbMtrDWlLT/FhOkbVCVVCYtIqEMTMGE88+USjShRlvB3j4YceapCsmfXqLBXapuv06tWL/Px8z+xbtY3ARksQSU6ndtxxx7Fs2TIs2+KRRx7hjjvuUCoaiTcpcOs8f/58vvn2GwCKBhbt1meEZz6+nftIhF44fZejuvLCMiSEgkFGnzSa+/5xH3EzzvTp0/n73//ukY6pePedd1ixYgVSwmGHDfYUPi5qpH3fbRDE46ZDDqqMbPG4WVP9LCWaoVFeHubRRx+tMfEUSb/ZVRlgaoYONr6EWlFRwQ033AAOeZSdnY1tW+iGUjAWFRXx3vvvIZEsWbyEYcOG1SpDaILHH3ucisoKXB+qxrAjCu5QWoghQ4bw4osvUlFRwb333svNN9+MtKWnSHQJRN3Quffee/n2u28xLZOTTz4FTdNrTJwVOSxqqLV87JsQjqRdCPjX3beyccE7QAzk9gw0d8egzC3TAtLQiGETxZVHOLVOUj1R63r2r+8EUtWYyc9TH3svgoGg94ypyz9R1zSWr1jO/j3357hjj+Pee++jV68DdjsxuBv0D80TyXH0PltdE8npd+t6NSWm0xvw1qO2EZrYuZee9HI/a6DOO3u+t6fsRl/ajoVKbDckNdvfkS0rs1+BZdvYlo1l2VimjWk1/rLspJdV+yUlHDHiFI4c/2fKc9pRIdPACBDXnemtGyLnvPxQNR91wRO4NXC/ug/QwsJCNDQM3WDZsu88QkPakokTJ3peIg8//DAPP/wvqquqvXTkUkosy+Lll17mww/noQud/drtx5CjhgDQokULDE2pL35a+RMLFizACARAQDxuEgwGWbNmDVOnTmXVz6u8FdJoLOqFmNiWzSknn0x+Xj5SSsLhci6//DLWrV3n9ZOaExoze/Zsbrjh+hqZslxomjJTFqhwhPXr17Pw448JhYIglXJJ13TWb1jPtKnTWLlqpbdtZWWlSj8PTshYchY3+ODDD7hzxp2eEbjb5pmZmTzxxBM8/e+nATAtk7Fjx5GRnoHt9AGK5PLyLXrknBCC4ccPp02bNmhC44MPP+Dee+8lHA6j6yoUStd1AoEAc9+by0MPP+SdqzGnnlpnGzQGb+K+mwZKti0JBAPeQG3VqlXoukF6ehppoTRH2SYZNWoUuTm5gGTevHnce8+9VFdXewSSYRhoQmPBggVMnz5dEXHYjB07tl71V711knZKCNOOISc7W50XBOvWrWXx4kVeuJxu6KSlp1FSUsItt9zCihUrPJKorKzMMXjX3OiTXYJkhaGULnEqFHHiZF6UUrJ27Vrefvttzjv3PCorKtV9jeTOGXdiWZanYDz0kEO9Oj/3wnMsW6aIYvd7geDpfz/NK7NecYjixJFYll0vKZZ6vhoaX0iUgsu2JWeeeSaGoUJo33jjDe69916qqqq8+wJUuOhzzz3PRx99hGmZhIIhjh4yBE1TCg5pO4oMNH/y6AN3wCelwJKOMkerwhARdKJoRJr0MqjeZS/deQWoIkAVgighrRJBBPWk152kKonFD/dPY+/35T8S6flDuorgX7tO/p/d/yceT6jr3c+S/588tnvn3Xd45JF/EYnU9tDc1fCVRz52LZKv16aQBQ0t9NW1/XbG/XpF1TXAa6h+uzJ21I3Z3t1UbWqdBU66c0MNvhupQGNKpPoUQ7quYZk2Qk/6gU8S+dgeOKqaxjxvVLawfGxssGD+/PlMnnyNeoAK6NmzJ6eeeirPP/880ViUmTNnMuuVV+jduzf5+fmUV5Sz/IflrFm7RnnsSJvzzjuPwsJCLNuiY4eOtGnThnXr11FeUc7UqdPo1+8FOnbsiG3brPllDd8t+47yinIlDUag6wbfffsdf/vb3zjjjDPo2rUrUkqmXX89V026CrBZ8sUSxp01joEDBpLXMg9pS5YtW8YPP/zgGFfX7IxcMqxnz560ad2GDZs2EIvFmTr1Op599kBatWpFIBBk06aNfPfdd5SWlqr2ccisZcu+54brr+e000+ja9du3oDDJbdM0+S555/nnXff5dBDDyEYCBKNRVm27HtW//wzpm2iazrdu3dn6NBj1ABGCDRNTYQ9ZYhUf7mqnsLCQv506Z+4btp1ADz33HO88867DBjQn5ycHOKxOCtXruSnlSupqlZZyoYfP5zevXolFBhNGPQkqzA0oe3SSbQtk8MLJa1atUJD7WP2m7P59NNPSQul0at3L6ZPn47QNHJzcrnsssv4+9//TjQW5YUXXmDue3Pp168fubm5VFZUsnzFcn788Uc18LfgjNPPpF27donj3Y4+U2zHj+u7n7p260phYSHr1q+jurqaSZMmMahoEJ06dcKWNqtW/cy3S5cSjUY9E3td0/n444+59tprOe300+jTpw+7ij4SQiCk4Ppp1zv+P65PWUKR5JJV8XgM0zQdo2yT8849n+49unvlSCnp1LkzmRmZVFdXI4ELL7iQI444gsysTGzbZunSpaxZswYpJfvttx/r163HctQaDV2DbnsKhKf4rc+g3iVmdV2jffv2TLpqErdPvx1d6Dz7zLO8/fbb9OrVi8LCQsrLy1m9+hdWrvyJSCSCQHDpJZdS2KrQI3k1hyhzQ5V8+PDU3LYifdEDmEJQ0+QlZXDofedk9JSJ/+8qWG6/Y0tMQ8e2qtGkjUAR1u54c/uU6GJPBWQ0O9RYKGmkDXyBxN4FdwHQHd+lQkrJyBNH8egjj1DYqnC7xgc7Cp888rH74BI99V3HTRn77M7x0Z7sX3eQ9Nrp3SaZxTY2wWqML6uPXJISL+yioWeWP9b14cJ9uOnC9e5pOHV8Mg44oCegiJItm7ewYcN62rXbz0tbPemqSeTl5fHUk09RUVXBxk0b2bpta43JVtyMk56WzgUXXMAfTvmDd2dkZmYy5dop3HD9DZSGS4lGInz22Wd8+umn3v1jaAZdO3fluqnXMWXKFEpKSigpLeGVV15h1KjR3v02dOgx3H7bbdxyyy1UVFZQVlbG/PnzvVVD998OHTswcuRIHnjgQfW5ZXshLFlZWVwzZQo333wTxSXFyIjN4kWLMe2aKp3OHTtzzZRruOmmm9i4aSORSDWzXp3FMUOPoUuXrgnZsy3p2KkjAwcWMevVV9i8ZROzZ8+u0Ta2VKqLY44+hltuvYWAEXBPGgCBgOGF2HmG46blxloz7NhhxOIx7rv3PopLi9m6bQtz576HSzLZ0vYm26efdjpXXHGl8o/ZjpTRrpeVmyUsFbalVmcbI8wty1KTcs3N7KfIcFf1IqXk4EEH02P/Hvyw/AckkpLiEizbIr9AZVkTAnTD4OSTT8EwDO666y7KwmXqunsvcd25pEbACHDqqacyadIkL2wJqLGCaDfQFu4gUkqJJS1saTdIJFhemnep6qrrxGNxQqEQ1113Hddccw3V1dVEY1EWfrKQhZ8sRBe6d3126tSJm266icmTJ7Nlyxaqqqp4c/abDB8+3CNQPVPPHXimCqE5ZSjiptIhFZuCnJwczr/gAs4880xlOuoSO0Kg64L7H7ifiRdPpLK6kkgkwtz35gJOdjapMpmdffY5SGnz+BOPO98JXANU956v6UWWCCFw/2/LRN+V7JHmvlyj/T+M+QPBUJCZM2eyrXgbmzdtZusW5bfknn/byZZ1/rnncfrpp3tqIwRYSeo8zfc82qvRVCJdALqwQWpMv+9fhLT70Gwt5VasZ3Qn3BCYXT8Ydvkr27YZ0CWf1ukQEjZSKtWc5t5HO7TrfZFEEh6JIMDL0tmYUnun9tiERm4K0b7D29N41MaOej41l+2R9XmRqe9+WfMLnbt0Vh6ZzjPC/X3LvHzOPOMMpk2bphT5upOkYw8YZ/vkkY9G0ZQbuEHsaB/mj4l2Gm4ojaYlZML1obH+Zp+JcfWxWyGEQArJIYMO8cJ+0tPTmuR3BDCg/wB+93+/IxaLg5S8//4HnH32eG9b3dCZMGECw4YO46WXX2Lx4sWUFJdQWVWJEIJWrVpz2ODBjBw1kt69+2DbFp6JvFDpvx977DFefOlFFi5cSHV1NZFIhIz0DNq0bcOoUaMZOnQoeXm5TJ06lVtvvZVwWZj8/AIyMzNVJaXyPho+fDgHDzqY559/no8/+YSNGzdQXV1Neno6rQpbcfQxR/P73/+etWvXceSRR1BaWkr79u29FaZ4PM6QIUPYb792vPTiS3y+6HPC4bCa/KeF6NSpE8cdexxDhw0lP7+Aa6+9lnvvvZcNGzbQqrAVWZnKZymvZR4D+w8kEAzSrl1bpk2dyqhRI3nxxRdZsmQJkeoIpmXSokUL+vTuwxlnnsHAgQO9vsObMEtJMBikqKgIgaBd23ae6ss9cMMwGD1qNEVFRbz99jt88MH7bN68hUon01R+QQG9eh3AH075AwOLBu7QKqlpmhx04IG0b78fkUjE8btJ9GDZ2dkccsgh2JZNjx496nPrgCAAACAASURBVLwGQZEI6ekZFA0sIhqL0rFjB8dYWQfnHITSQtx3333MnTuXL774guqqahCC7t27Y5qWE5Knyh01ahSDigYxe/Zs3p07l23btlJRXoFu6ORk59C7Tx/OHj+eHj16KAPkJFK/bdu2DD5kMJqmVCr1QdM0sjKzOOyww4jH43Tp0sU9Kup6aLbMy+PgQQej6zo9evTwjKMFGocfdjgvvviiuj4//oTibduIx+NkZmXSpk1bRo0aybHHHkt2djaXXXYZ99xzDxUVFRQUFBBKC2FLmxbZLRg4cABm3KRbt+7bfT4NQ+egvgcRiUS88MaGIISgsKCQww47jL59+5JfUEDChKom+vbtx1P/forHHnuMb75ZSnFxMZZlkpGRQb9+/TjppJM4bPBhvPb6axx5+JHE4nHS09Nx5MIIqcJFevfujWEEMONx0kJpnjIQ1D0RCATo3q2710+4YXGCmhkWDd3glFNOoahoEK+88jKLFi1m08aNKhTFssnJzWHQoEEMGzqMI4880iMGXQVTx04dGXyo8skqbNVqj2TB8/HronH/L6kyqwExI52Ilo6QeC8kpCb3Tb1VdqcPpZSSak3Vwc0iiFTkTxNENDVQq2/Yhwgk25YOGU3Sgomo3eU7j4HG5m01SI+65lpNtCupF004N40uGDUy6fCsUuqrQiPh3bt9+0aJJ/evegtIJGmxLW/RNS2UxoUXXsSVV15Bp06dnDEauyScvakQ0vKXLXz42CuhwbwvV7IpvR1VIoj4jdE/whn0ZNhVtI5voYUZRtstbuM+9iSSPXbc915o5/aE7jir+tKuW1Xn7qO6OkJlZQWRSIRQMER2Tg7BYCDhseJsr94LT8EgpfSII8uyCAaDpKelEwgGsSzTW/kvKwsTiVQTCqWRk5ONGTcxDMMJf1J10TSNSHWEyiqlgDB0g5b5LQk4ZojuBCH5mNzwKbcMy7KJRKqxzITiJxgIEkoLeb4plmVRUVFJpLqaUFoaLVpkOSuVAtMyPaVNWloaoFaFy8vLvbh6wzDIzclVKdqd7VLPiZSSWCxGMBBE0zVnUFvXQEmNYqurq4lGo446SZCRkU4wGMIw9J0yh1ahPIBMpDhP1BES4U5OUGDqwMpRTLr+Ou5EXNdrK5lc9YjKiGcTi0WVf5MR8BQoqX5d0WiUqqoqTNNECI3MzAwyM7OwbaselV1NtUujMyuJCmNyybuUFUzhzs6cMoXQkEkKmUS7q41jsRgVFZUOGWKQFkojEAh4BK9AUBYuwzRNdN2gRYsW6HoipbxpWtiW5a2INx3CU/tIJKZpemFadUETGkZAZZPxlGNCq7et3HujuLiYWCyOEAkCzi0n+dylEjLuuU+cL+Hcr4m+wr2/NE3z7kM3w2NdnlbuYL+6qopYPIZl2eiaRjAUJD09XR2bo+arbxLoq472DrhhiImrS2A7f0e0IFuNAir1FlgigI2GjYGNS/hINO+e15rGxmwvY7OTkFJySCdBxzTIct57aroU+OFW9SN53JQ6hvKx96BGny6UH2GHjh0AMHSDSy+9lCuuUKRRcpZO7zmxmx8JI0ePVHXZvbvx4cPHrwkvZG0nxWM+fOwqeIMeZxDrvW/iBequsLiTPE3TkM782SWgXEJACEFGRgYZGelYlqUm0A7p0NCKrhtKl56eTmZmFpZlJox8LUv57NgSKSS5uTlAjlefQDDgPMwTxyttSTAUJJSWhiacEB2JN0kW7mqh5qgVhKyVlljXNTIzs5xwADVhTjbOtCwbITSyMjM90shTVGmKGFL+SjVXvHKyc9Tk37IwDB3TtNDs+gfymtAcw2ThCjSA2pNu99yEQmlkpGcAyoBb11Tmup1VTXgT/iRVVLJXUWIMJpOyPia+B2flUybq6pWTMmF3Dddd4i4YCDoXHPUO1oLBIGmhNGdyKLAtC9OMe/uqPfF36uxdDI0cv6aUabquJWSjSdukli+dcMHkEKzktggYAfJbtgShyBFXzOOWY9kWWVlZSk+jKXJDOoScMk13shJu7+RUShX25vQFrtqtvkKEc2y25RhfN2F12LIscnNyvZCw5OOCxH2o6wlj7mS1nXQG6JqmrrdU8luZmGvomo4ZNxVppNe/WOOSlcFQkLT0NI/405wQPill48dlN36N+Phtw1MQNeXHsolzx1/5mhF1dVa7GDLp770FyX2OTxztvaixKOCMY4OBIOPGjeMvf/kLnTt39p6x0ga1brJniKNk+OSRDx97IbwJUNL7X3vQ4MNHDYh6/t/YZqKuVTj1nSRBBiSUBFbS++RJWV07rUk6AFiW6W2fOmhzVQk1Sqgr/M5VEJBQFLm7TybPGvcmS9TPTiK/3P97Yw5PDl73JFSJrBKZO9wMXsqbpZFJK0ltn6x0qaM93XPj1k9lGWtY6t1UJNotpZ8j9eNkf4w6dizqrnvqvmzb9si91P3VVvMoJM5RzfNQr2JE1FPHOqDIDi1pu8aR7M1T177VuXGPqebXqQqaVIXR9pLAyfutu051t4P3qUveNQE176vke9wpylU+1aOEq3FP1KUCcj60bKtR0idRZlJ7Otdgso9So/Cf5z5+i9iVMXJ1FCVlA1/68PEbgPssEpogPz+fr776mh49uitVtPvcs1EXuy1UeJ+NZ3ewJ+CTRz587CPwpa4+fOw6+PdSCvzm8LEH0azuv2ZUFR8+mjd2gUSiAeJYJBe/d4mPfOxDcJ9vmRmZKklM8vWeskBa43rfQ88inzzy4WMvRF0KCZRi34cPHz58+PDhw4ePPYx6wlE9g0DnAyfkOlWp6nm5+cSQj30BDSlsXaI0lUzaA/DJIx8+fPjw4cOHDx8+fPhoDnD8vLwMZb9F7GqSx1/89LEvwVUS1bZH/NXhk0c+fOwjaKoXgw8fPnz48OHDh49fB/Xbxf92UMtdsBlMen34+E2hYQvMXw2/YUrbhw8fPnz48OHDhw8fPvZWaM7rN0QepZrSe3/tOPaUGbAPHz4ahq888uHDhw8fPnz48OHDh4/mAplY4bedlxTJNihJhiiieQl7BKAJsJ1slyLJzLdBb5aayUsTach9+PDRbOArj3z48OHDhw8fPnz48OGjGUA2KyrIhw8fPhLwySMfPnz48OHDhw8fPnz4aA6oxR350zUfPnw0D/i9kQ8fPnz48OHDhw8fPnw0E8ikf+2GfujDhw8fexA+eeTDhw8fPnz48OHDhw8fzQXSD13z4cNH84NvmO3Dhw8fzQTaPj5WlChDUB8+fPjw4WNfh88f+fDho7nBJ498+PDhw4cPHz58+PDhoxlBcUcafqCIDx8+mgt88siHDx8+fOyz2NfVXj4ax55QxPnXYfOHvZuvASH9rOTNHXtKHZvsd+Qrcn348NGc4JNHPnz48OGjmUDgT5987HPwiSMfPpolJPL/s3fnAXJVZf7/3+fequ7qLQnZNwIJiEDIBmGRH6iIICBEYYYgDiMaBXRY5quDXx2+DqOjoDKjiLjAjCDIsCmC7IsiKEsW1oSAISSQkD2QpJPeq+re8/vjLlXVXdXpTnqp7v68NCTdXXXr1r23qs956nmegzXFX6BRYGevmGAbUeDQEgQpDb0frOxN1uhtTWSwUvBIRKRMDOTB4kClVWyk3xnwNdMa8nokGCE9y5T+QKMnPuqw1mKw8XaMzW3VicvVVLImIuVDwSMRESkT/TB9UsBOyoGuQ9E1MAS1+50XBqsMPhT8GXisCRp+KyAqMrgoeCQiUiYcO7Q/YQx6OwzMgbKIiIiIyGCm4JGIiJSRoR1AExGRcqFiQhGRfAoeiYiUiSGfc2NAR0FEREREpPwoeCQiZcvYYAnrIdMKYsiXbBn6P/NoqJ8DKY9V/3Qd9r/+fi9S1ouIiJQXBY9EpOwUGy4PhalUf09V+l//T5bMUApWSlGdLc/dVxzFDPpVOfRf03tR/+u7Jed1pkVkYFDwSETKjqXYUGp3WSn9H3iQ7jEEE6SuCiZ0vbU3AQ3hZXfXZV9ch9K/uvLe5OsakL1WKsuxHLIfRUQ6UvBIRMpW/vDJAdxBHhvSULH/aUIo5ZDxoeuw//V39lffZb1IKX3xkZQ1hYHK6GtrjEJIIlJ2FDwSkbLSfqBm8v7WIEpEREQGgyhQZGg39tFgR0TKlIJHIlIWOvuEzxL0POp0PKXB1iBgVA8k/U4FsAJDo8+edM6xvfhuYMBag7FBhlE0xrHYYLEQp/+z30RE2lPwSET6VZSuHYUMrCkctPtEQzer1cgGPYvfz42KRRSIFkDXgeCY3g4lG6wx8SN4gHEMWJtbblahbBEpIwoeiUi/at8cO3+o5ABJ65DyDW6f75n0h1xL9OKBQs3npLd1Zaqm63Dw2911oGtg8Ov9sE1uxGMBjMViwPgY44eN23WliUj5UPBIRPpX+CFbu28BwWAqawxpx5CyFrfTQoKB3hXJYtofiEGr9Kp5uUMQ3Cb/jPfeGVZGm+QUftbf8arTdTg0FJ6Nju9Zna39ueeUadL/dldE31PnJ3gnifod+cZgrY3fX6yFCgOJgTysEZFBR8EjEel/puOXBsgaaHQNxoEGbySQ3M1GynyUZTufcDhDZvJo2/07+GOxWBscg/wPW4OfBt/o6R4Qu7tibFduJENCdKV2ZRn37trtdahrsGxE79IO9GicR+9F/cvEB7hD++roFvT0CYjeS6wJStZ8A8YYXCweSZqcOtKmokcfU0Rkbyh4JCJlJT/rKGiUbWg0Y2lyHToPvQyA4BGd76GxQyR4VHLm3fH7Nv47OHI9fYaD7ZU+7soBGBpKX1cmvvZswXd7+vE7z2jQddj7Oj+nTt57UVduv6ePr/ei/tTxnJb+ndQboiCxsVE2kkvn2U69k/8mIlKKgkciUp5MNCxysLhYs5tB0mAYWRt1duqgt+OBNv5P/zy+lIeSl4Dpm2ugs+tQ12Df6PR3SB9cB3ovKg8FUeJ+KiM0+f/QiReR8qHgkYiUrbBQiS4NnjS+kj1h4v/IUNbfl4Cuw/7X34df10B5KDgF7Zf06A/9/fgiIjkKHolImdPASURERPqaw+BIaxYR6RkKHomIiIiIiHSgD7BERCLqtCYiIiIiIiIiIiUpeCQiIiIiIiIiIiUpeCQiIiIiIiIiIiUpeCQiIiIiIiIiIiUpeCQiIiIiIiIiIiUpeCQiIiIiIiIiIiUpeCQiIiIiIiIiIiUpeCQiIiIiIiIiIiUpeCQiIiIiIiIiIiUpeCQiIiIiIiIiIiUpeCQiIiIiIiIiIiUl+nsHRKR3GWN6ZkO2ZzZTUg/tpoiIiIiIiPQsZR6JiIiIiIiIiEhJyjwSkZ6hzCEREREREZFBScEjkSHL78ZtDbuPDln2prbNdukxRERERKTcWQ3pRAYdBY9Ehqze+K2+59sM7tnbjZVEREREpDcZDMGHlOqQIjKYKHgkMkSZLn8k1MWATg98xKTQkYiIiMjAZgBrFTgSGWwUPBIZonylE4uIiIhID/ONPhAUGYwUPBIZIiw+TtiXKMg6spiw01B0i8719idI3enBJCIiIiLlxGDD0aWDtWA01RQZVPSKFhkirPV4ceFzvPTcM1SQBXywYZtqY7A2CCyVCiEZDBgTbSz3XUN438KvbYkNBZtof79gH/aWxcb7pk+8BhYT/9fQ+aUQnl+b+7dIjzIm7NexN2z8/qardGDJfy8K/19C7szaUr/wRPaK6YGxkS24PnvrSjVA1rd85bL/g5uqwTcJPEBTTZHBRa9okSHCwXDAtAOZPHofKvDx/Cy+ZzEmGpxYfGtLjixyt8sNlDv7utRgOrpNLmBV+H0Z2nZ/GUTXmK9JufQKk/ffHtmeoWQwXcpX19+LbCcfu4jsnb0PZPcN37c4iQSeSeIbF886WGP0yhAZZBQ8EhkCDGBsglHjJ+OPnxB+Hf0kDNzYzvKOyN2OvGBR+LFsqa872x/ysp2C7xXeJ7eNrg49DPkTPtP5R8ZSlmyH66BQ4TkOJm0iPS33vrRnCq9TUHB8IDK7LaXOlXJblH0kvWVvS/oLWw701nuRteTGda4T7rZeEyKDjYJHIkOFAc8CxsWnyKeqJv5PF7Zluvd1J/sUP6Zt9/magb0deNi8EidjOv8Ez1K61E56l8n7T7eCfkHCnD71lx7X05/2578XATi7eY/09WbUb6JTY0h0+wMIvRdJTzO4Pbq9nn4vcnIvmPBvA77FwYQ9j0RkMFHwSGTI8IMJUbn+Mi+6U93Z047ZAsFSsTYXy+pscxaM0cC/f5kuBB7bfQqrBDPpcR0zh7qv8Drt1nsRHTMxpR+Y3S0Sofci6W0D4L2o/f0tWGtwjMGU63hTRPaYgkciQ4AFrOmJQUjv6cmU/4K07Lx/d/oI3cm8kl6z+6tA50h6X0+9H+3Re1G720r/0HuR9D9T9u9FHe4ftkGAgdOvSUS6TsEjkSGj3H+J7+0AKVqpq+Pz7NI8rHSv8D6zu/0c/JUsXek1U+7XsQx0+b3Y9txevBfR/691vReB3oukPPTM2KjYd7tyCe/Ra930/3hKRHqHgkciUhZ6polj8W0MlInOQNlPkcHM9EgWot6LRGTv7f3YqMR7Ufyf3tMTYXgRKS8KHokMcgPnF7c+xRVdA1IOdB0K6DqQ8jAwr8O8BX1FZBDZXTdAERno9BGyiIiIiPQhjT5FBh8Fj0RERERERKQHKXwkMtgoeCQiIiIiIiI9xmIVPhIZZBQ8EhERERERERGRkhQ8EhERERERERGRkhQ8EhERERERkR6jxdZEBp9Ef++AiEinLFgT/K2BiIiIiAwJBnKDIAbkIGgA7rKIdELBIxEpf7bgLwCMyX2noCGjzR+qlGrVqOFMOSk4Szo1IkD/vBTU3LZQdA5su69lkLGA6f/rP/96cyyAjwm+Cr5viQY/pa9JW+ybva9gfFbi+yIy8Cl4JCLlJ28gZ4xP0nqYvFU7DD7G+hQLHllLEEAylu4Gj/p2kGOK7Iffp3vQcR86O2a99/i24KtCtuRPenIf8uWuq76p7C72jP28n/XFLKD9Y3j9/PhD5xyU3rLfB0e+8BEKX/15E9S8SbUdhOGTwql44deuDa8Gk/taBpvw91DRTzGC9yLb7ra9uSfRYyUseFh8Y7Ak835uCl6rBXtjC7fRl4o9pikyRhORgU3BIxEpO4boEzZI2jTDs81U2jbAx4mHTfkTzBxr4y0U/bmULwM4HQbmas0n0jsKwybx3wbAKaiWKQweDa4AUvBscsG66GsIP4MgNwkeXM9cyo0FsvFF5tLgVtHiVJUY7ZQ/vV5EBh8Fj0SkrCV9yzCvhWFeIw4ZTPy5W/HhlK/g0QBVbFpq2pUhikhvKfVSM3ZovAyD51n8d4aJf6+I9B7fQMaAg0+WKjK4tJlqrLGDMutPRAYeBY9EpGz5QMZxSBuHjHFwcfOCRyVKz/KDRyUmAlJuOgn0abws0us6vlXmVigYMi9BA9aUiqANzpI9KS8Wg2/AWEvWOGSNGwZu+6mRkYhIOwoeiUjZsuF/HII+R0EvFkupYIONx1eFmUcmmhDYwu4FXWXyJhTWdrz/3v68C3tA/BRK3D96jD39+W73IL4/FDv2uzvGe38MRKS3dMwsMp38TER6Ry4D1+AFfw/guJHRKrkig46aSYhI2QqCRiIiIiJDl8ZCIlIOFDwSkbIVNFAWERERGZqcuFx/YAl6NYnIYKJ5mYgMAAN1rZHBSOdBRESk75T/AiDFMqN8LL5SpkQGFfU8EpGyZWyuZt5aG/bSKd3zKLxXh+/sbY+d3d1/b3/ehT1gd5vo7X3o/2MgIiIi5aj9aqnqlSYyOCnzSETKWtimWQX/IiIiIiIi/UTBIxEpW+0/yRIREREREZG+FMzIFDwSkTJX/rX+IiIiIiIig5mCRyJS5nzUMFtERERERKT/KHgkIiIiIiIiIiIlKXgkIiIiIiIiIiIlJfp7B0RERERERGTgad9UQAudiAxeCh6JiIiIiIiUAWMMjjEYMzDCMMU6UjoWrFpVigw6KlsTEREREREREZGSElZhYZHByYK1NvdnIK1WZnOfZBU8B2uDH8Z/drORgfScRUREZMjKjW7C/+WN3wr/lzdGar+B9t/rA8Uez5I/fgtvoyGZyICnzCMRERERERERESlJwSMRERERERERESlJZWsig1WQM5z7M5DyhfN3Ndx/la2JiIjIYNW+bK1w/NaFsU+5DXlUtiYy6CjzSERERERERERESlLwSERERERERERESlLZmshgZemwWseA0X61NZWgiYiIyJAxOFZbQ2VrIoOKMo9ERERERERERKQkBY9ERERERESkx5j+3gER6XEqWxMZrKKFOvLW7hhIcinZeat1aLU1ERERGYQKV1uDYgVr7cdypUrG+psFDCpbExlcjDKPREREREREyolRsEVEyoyCRyIiIiIiIiIi0lFYh6rgkYiIiIiIiIiIlKSeRyKDlc1fJtUGtecDRf6u5vU7Us8jac/a8MMQU+T73enWGV0q6vApUqDbr6UOGwj/br+NuCdfjolu1E+vw+B3jNm75yuyhwp7Htl4DFc47rEFoxvTfgP9oOTD2ryelZ3eUEQGikR/74CIiAgQddhk3br1OI4BDHV1tQwfNrx0w3draUunee/993AcB9/3GT58OLU1tZ3OeFtaWti+fTvWtziuy8QJE/B8D9d1u7SrO7bvoLmlGTCMHLkPVVVV3X66e8/Q2NjAjh31JFyXylQlI0eO3OOtNTQ0UF9fj+M4jBg+guqamqKBud5j8H2PzZs3BxMO3zJmzBgqU5V9tQOSJ92WZut7WzHGkKpMMXLUSEw3oirZbJatW7bi+V7ufiYIELXfjjEOyWSCmpoaKitT8SXXncfbU4lEku3bt7Fp0ybef+99kskkU/abwvjx4wHwPZ+Kykq2bNnMzp072bRxE8mKCg484ABGjtrz15tI5yzW+Dj4eHmFIvmBo/zvGmuxxumX+IwD+P3wuCLS9xQ8EhGRsmEwfPOb3+D9998HC2fMO4PLLrsM6xcfEhvHYdHiRVx99dUYY/A8j8su+2fOOOMMOvuY8/nnnueH1/wQx3EYNWoUt/3mNowxQZZeFyas9z9wP3fddTeel+XKK6/k+OOP39OnvMeMgWVLl/Hd730PsJx99tksWLBgj7f39NNP89Of/hTXdbn88ss56aSTgCgbo/f5vk9LSwtfvujLtLa1YX2fH1/7Y2bMmNEnjy+FVqxYwb9c/i8k3ASHHHoIP/7xj7t1/40bN/L1r3+dHTt2xN8zQfQol2EUfd/JBaimTZ3G2WefzQcO+kAcUO5Nd991F7+/9/ds2LABL+uR9bKcd955XHLJJQCkM2nuuvtu/vCH+9i0aTOZdBqL5cwzz+TKf7uSdCbduzsoIiJSJlS2JjJYWfJShjsu71rWbG7an196p7K1wc9a+OAHD2bVqocwxvDEE0/w1a9+Dc9rK3p7xzE8//xC6nfUx6n+Tz/1FCed9HEqKio6BIKi4NBLL7/MjvpgUnvUUUcF9/SDgIwxNp7kdtzB4KpKp9Ps2LEd3/pkMpk4wGKtxXEcbr/9dp566imwcPElFzNn9pwefw0aDOlMhm3b3ifI2vH3KtDjZT3qd9YD0NraChZ823efJxvA+pbtO7aTTqcxxsl73fec6Bz97ne/49FHH8VxHC644AKOOfqYPn2+5S7rZanfWY9jHJqamoDuBRK9rEd9fT319fVxsMjHxzFO/LW1Nv6eb302bNzAsteW8fjjj/PNb36T0z55Wq8GL59+6mmu/clPyGYzADiOg+d7YbA6KF979tln+fnPfkYmm8UQBKwJy9s83+uz4KoMfu3L1qL2Ax3/l7t9/K9+Hue1f+SgTE1layKDjTKPRESkjFjOmT+fhx56CLBs2ryJtrbWktlAnufxwgtLgglomMS/cuVKWlpaSKWqsO2CAQZDNpvlzRUrMDhYfObOnYtjHDC5HiyWIIBU0O8l7NES9BAzcaAhm80Shj7ix9m8eTPLli3DYtm1cxfGMSWzp/boKFnACbJ1on3uasld17ZvC8uN+ohv/VwvHOt3yFDpCY5xcByX999/n9eWv4ZjHHbu3DmwAuy9zFqL7/nhv8Fx3O4HSaJKNROUqX34wx9h5MiROPnXlIFsJsuuhl2sfHMlW7ZsIZPN0NrWxg9/+EP2nbIvMw6b0SvnJgpOZ9JpHNfh+OOP59RTT6OqqoqqVArf9/G8LPff/wBZL4vF5yMf+Sjz5n0K3/cYPXo0nuf1+H6JRBy9JYlImVHwSEREyohh4sSJVKVSNLc2A/DWW6s46AMfKJoJtGXLFjZt3ASYOINhy9YtrF+/nlEjR+G1G3wbY9i6dSubtmwCLDVVNRxxxFwc1wVr8a2P7wfbCW6f1zA46teC4YSPncCkyZMwxjB9+nQguJ3ruPGEuKD5rw3u27OT4PYHpCcDLaZXAjddedyCfeiN4JUhCCq2+/g+yHTy+qRUaiCJTkF3Gme3P2+JRIIvLljAgR84MNxYx9s3NDbw6KOPct1112Gtpbm1mbvvuptD/+NQXHcPgle7YS2sXbsW4zjUVNfwla98halTp+J5Ho7jxH231q5Zg8FQWVHJZZf9M5PD1731ez4rTkREpJypbE1ksMpfoSwu9xog8nY1LrtT2dqQUZlKMXnffVn51psYDIsWLuSDBx1UpKTI8Mwzz5D1swAcPudwXn31VSyWxYuXcNj0wzqu5mQM7777LvXb63Fdl2kHTGPkPvuQzWbDJt1BEMG3PtYLStyME2Qg5Zs2dRoHHnAgFovvW6zvY5ygdMy3Po7rFJQe+DavpKwHghOFKxDmf7+nrvlcGV6fKdkTvef3wfd9PD/MrAkfOAgUBiUWpscCSIUZaQNF4TE3Rb7XvW1E2UfR7yXf2rBENHeQq6urOfvss6mvr+eWW24BDCtWrCCTyexhELHzY++6QYN93/epG1ZHXd0wjDFx4MiYoHS1ARnZkgAAIABJREFULd2GxZJKpRg2rA7f98P9CSPLIj2k2GprubYDnY19ynScp7I1kUFHmUciIlJGLK7jcMbpp/Oja9/EcRxeePEFzv/8+WEZmQ3LaIJ/P/DAAxgMjuNy6aWXctGFF5HOpnnppRc5//zPdSjl8q3P0qXLyHgZwDBz5iyqqqvwfT/o8xNKuAncRALf8/CyHk1NzTQ3N1FdXc3w4cPJZLNksxl835JMJkgmK8imM2QyGdyEG5eTOcYlk83Q1tYWZDQ5DolEMi7dMQTBqba2NtLpNK2trbQ0t+D7PjW1NbiuS01NDa7jYgHXcUoENYJBuuu6tLW20dbWRmtbK42NjbiuS21NLTW1NSQSibi/TGcT8lI/s+EMwPM8mhqbaGltoaWlhZqaGmpra6mqCo6l67q9ksHj+z5tbWkcY0gmk7iJICOlsbGJdLqNnTt3kkgkqamuprauloqKijhjJugRlcbzfBzH4HnZeLttrW00NzfHwQPHOEG2WBhQtL6Ng4MNuxpobWulra2N2tpaEokEtbW1HbJjosyt1ra2+DErkhW4ieCabEu30dLcwq5duxg9ejTVVdX41uKHPXcc1yGRSJDJBNdVw64GmpqbMMZQW1NL3bC64Pn5uUBHx/MVnKvW1layWY90Org2qqqqMMahprqaisqKuGzTGAffb1+KtfczvqjPlHEcjA1LEo0p6C3mOEG230c+/BFuuvkmABqbGuPyueio+p4XlIqG90smK4DCRvc2DE6l02m8rIfjOlRWVmJM8Frzsl4Q+LU+lqBvWVtrK62trblzaMDPhpmIjovjOLS2tuI4LslkgoqKivAaD4JU0esvk8nEr410W5raujoSCZe6urrgOggD0vnPqa2tNb5e3IQbHhdDJpOmsbGR5qZmxowdQyqV2utzISIisqcUPBIRkfJi4Ii5RwDg+R4bNmwgnU6TSAS/sqIMkbbWNtavW4/FMnfuERww7QAmTprI2rVrWbZsGbt27WKfEfsUTKrTmTTLX3sNCAIxRx11VDhpNSxdupTf3PYbHBzOnn82xxxzDCtXruSBBx7gr3/9Kw0NDXz5oi9z3j+exxNPPM4TTzyB53ks+MICZs6ayeIlS7jnnnvAWt5ZswbXCYJIt956K/fddx++H/RXWrBgQdD/KExeWLNmDU8++STPPvMsmzZvYmf9zmDC6jpUVqaYM3s2p552KscddxxO3jLm7SUSLlu2bOWRRx7m8ccfZ92768hms1igprqaD33oQ3zqU59izuGHB0GorgZ3othBMJ/lzRUreeTRR3j2mWfZvGUzWS9Lwkkwed/JnHDCCZx++unsu+++QXZJDweQ3lr5Ftf+5FoSiQRnnDGPj594Io88+ggPP/wwb7zxBulwJazamlqOPfZY5s8/h8OmT48/zV+xYgU333Qznuex9t21OAQZYr/93W/545/+SNbLMmvmLC688MLgqUf9rfB5829v8uBDD7Jw4UI2b9qMF2bCHXjAAZz4sRM5/fTTGTtubN5hCwIaT/zxCZ7805NYa/n3K/+dkSNHsnDRQh555BFefOlFtm/fzk+v+ylHHnkka9as4Rc//wWt6VbO/cy5HHnkkTz11FM8+OCDvP766zS3BKWcw+qGccQRczn77L9nzpw5QXDGOB2O1+bNm3nkkUdYuHARGzaup35HfZAZRxBMmTlrJqeddhonnngiyUSSooGiHsgWMGEJomMM1oBjO+5rFDDxwuCVwVBZWYmbyA1Vfd/j17/+NUuXLSWRSPL1yy9n4qSJWFuYZRSsnAjX//R63n7nbVKpFP/6r//K2LFj+cXPf8E7a94BG6wIZzDU1+/kO//xHySTSawNgrxRmenOnTtxjENzczPf+Y/vAJBMVPB//+/XmTBhQu5xLSxbtoyHH3qY555/jq1bt+I4DslEkpGjRnLWWWdx8kknM3rMaBzrxMEu13W4++67efHFF3Ech+9993vUDatj4cKF3Pv7e3nxpRdpaWnl5ptv4oMf/GAc6BMpdz5KNhIZbFS2JjJYxU1nB/Zqa9H+F6Zsd/ZcOq5DIgPPpEmTSDgJfN9nw4YNbN36HhMmTIh7rmSzHiveXEFrW5AtdOyxx1JRUcHhhx/B+nXrSWfSLF26lI+e8NFcZgawq34Xq1avAmD0qNFMmzY1KFkzDtu3b+eFF17AdVw+esIJvPTSy3z/6qvZvHVzvF+e7+F7Pps3bWbJkiX41ufv//7vMWHT5UWLFsaTc+MEk88331yJJQg0jB8/Hghem67j8vzzz/Nf//UjNm7cEE+aYz40Nzfx/MLnWbxkMZ///OdZsGBBkL1BxzKiNWvWcMUV/8rSZUs7HM+Gpgaeevpp/vzUn5k//xwuu+zSYLKeF9zpUAKX/xoKS4zuvfc+fnnDL9i5c2fBbT3fY/269dx6y6089dRTXH755Rx55JHdfhnurgyvfmc9r7z6CgDHHHMMP/jhD3j0kUfDTLKcxqYmnvjjEyxatJjvfve7HHP00fjW0tLcwsJFC4kaohMGCFa8uSK+b21NXcFjZ70sd999N7/+9S00NOwqOC4Gh9WrV7Nq9SoefexRvvWtbzFnzhz8sCTOGIctm7awcNFCAFpaW3nooYf4rx/9V5CNFgagHMfFMQ4tLS0sXrKYdCbNx0/8ONf/9Hruf+B+2tL5qw0aGhoaeOrpP7No0UKuuOIKPv7xjxf0JLLW8vJLL3PV1VexYeOGDsfZx6e1rZUlS5bw0osvsXLlSv75n/85LtfKL4mMyme6I248H97PcYJgiY9f/JqwuSSepUuXxtvYf7/9SSTceJ88z2PVqlUsXrIY13FpbWsNHqtohVpwXpe9toyqyiqiPl5vvfUWL738chg0Dp5vOp3mlVdfLvl8POvhpT1eeOEFACqSFaTT6fi1k0ln+PWvf83dd91NY3NjHHjyfA8/Hbxf/OznP+Oxxx7jyn+7kg9+8IPxth3H5e3Vb7NkyRJMuILbbbfdxk033Uw63RYEZ91EECB0nWBVyG6dDRloggTPwrYD5b7aWvtr0jcQZeSpbE1k8FDmkYiIlJ3q6mqOPvponlv4HBB8oj9+/Pg4CJRIuCxatDiepM+ZM4dEIsHJJ5/EH+67D4Nh8aLFfPSEjxZkzqxbty5Y/QyHSZMnMWLEiKDxrZsLMBlj2Pb++/zsZ9fT0tJCwk0wrG4YtbW1DB82PC6/cRwnLqlxXYcxY0Yzc+ZMsLBu/Tp27NiBwfCBAw+ktq4W37dMmTIl7LNi2bp1E9/+9rdpaGgAYML4CcyZM4cJEyZQUVHB5k2beXXpq6xd+y6+5/Pb3/6W4447jkMOOaTDJMHB4YnHnwADFYkKpk+fzqHTD2VY3TA2btrEsmXLeGfN27jG5Y47b6eiIslFF10UlwphDH6JAIFvfVzH5a677uLaa68NygSNw2EzDmP2rNlUV1ezYcMGFi5cxI4d21m7di3/9m9XcsMNv2T/qfvvxYSh4x2jc+QYhz/84X7Wr19HKlXFrNmzOOigg6iurmbNmrW8+OIL1O+sp6GhgWuu+SF33HEHyWQFVdVVzJkzB8dxWbPmHd7f9j4Gw9SpUxk1chQWywEHTIszw6yFW2+9lRv/+0ZcEwR4ps84jFkzZlKZqmTduvW8+OILbN++nXXr1nHFFf+P//mf/2HixAnBM2hXHvj226u56uqrghInx2WfEfvgJlxqa2uJ+mdF5+TWW25l2/Zt+J7P4XMOZ+bMmVRUVLBh/Qaee/45du7cSUtrCzffdDMfOuZD1A2viw/Zxo0bueqqq9i4aSMODuPGj2PmjJlMnDSRZDLJ5s2befnll9mwYQNZP8vtd9zOGWecwdSpU/f0ZHXKcaNsmSAI1CFJygC+5Y3X/8bNN90crJxoYN6n5oU9xwoDmdCutLKzNjDhfcLiMg459JCwbNNhxd/+RnNLMzXVNew/dSrJZJTdGGzb93yWv748KE9NJDj00EMxYclkZWUl1gtK32655RZ+/etf41ufqlQVM2fO5LDDDsNxHNauWcsLLwTX4+rVb/ONb3yDW39zK8OHDw/6ofleXjATlr66lBtuuIFsNksykWT48OHU1dZRkazA92zcm01ERKSvKXgkIiJlxzEOx/5/x8bBoxdeWMIpp3wi/rm1lldfeSWY7E89gPHjx+Nbn/32248RI0awo34Hi5cspqWphVRVKs6cefmVl8l4WcAyc+ZMUqlUvNx2NGH0PI+7f3s3ba1tTJ48mX/4h3/g2GOPZcSIEfFtrJ/rwxJlRRx51JEcccRcrPW55ppr+MP9f8A1LhdceAHHH398uOPB7V3XcMftd1BfX4/jOBx22GF877vfY8LECVg/yLBwXZf33nuPb/7rN3njjb/R2NjIypUrOfjgg4uWnLVl2qipquHSr17KvDPmkapKkclmwEJTYxM//8XPuS8MrN11512cdupp7Lf/fsFzKHIOjDFx6dXq1av55S9vwDEOlalKLrn4Ek4/43RSqSqC7A2Hd955m+uuu47Fixazo347v/qfX/Htb3+bRHLPhhpxgKzIczXGsH79OkaOHMnll1/OcccdF/RAcl2ymSwr3lzBxf90Ma1trWzYuIFVb63isBmHMWPGDK6//nqSySTXX389t/3vbQB87nOf45RTTglKDck1S1+69NWweTNUVVdx2aWX8YlTPkFNTW2wYhvw9tvvcO2117Jo8ULe3/YeN9zwS773vavwslmMW7jj3/ve9wA48MAP8PnPn8+cOXNIpaqorq7COCZe3c91XDZv2cywYcO4+J8uZt6n5pFIJPA8j0QiyfLXXuPyr3+d9957j3Xr1/HGG29wzIeOCbOE4C9P/4VNmzZhjMOcObP51re+xcSJQeAok8mAgZ31u7jk4otZtWoVPj6LFy8pGTyyHZrVd082m+XVV5eyadMmsIQZNEGmhOf5NDU2suSFJTz55JO0tLaQqkjx6U9/muOPP74gcxByvaQKgkfFMo9M4epwNlxN8ZJLLwHAy3qcd955rFmzhlRViu9//2pGjhwV3ToOWJ356TPZtn0bqeoUV111Ffvss0/QVJtg+8uXLueO2+8AYNzYcVxyySWcfPLJJNxEEKTCsPz15VxzzTW88bc32LxlM1dfdTX/+V//ied5YXYJYQDX58p//3d8PwgYfuazn2H2rNm4boKKimSXV7sTKQdxrriuW5FBQ8EjEREpO1k/yxFHHBF//eqrr9Lc3Ex1dTW+b9m1aydr1q4B4JBDD6Gurg6LZfSo0Rx8yCE8v/A5tm/fzqbNm5g2bRrYoPxo2dJluGFD5BkzZuYmbnnRCcc4NDY2cuCBB3LVVVex3377hZkRYdma9fNWfjO5+4Z5+YlEIm5s2z5DKArGJNwkS5cujSf7CxYsYOy4scHEPpwe+77P6DGjOeGEE3jjjTfwfC9o9hsGljpsF8N5553HmWeeCUC6LR0Hzaqqq/naV7/GypVv8cbrr9OabuWGG2/kP//zGrLZbDwhL9imjVYhM/z2t78lHa469aUvfom/O/vvwsyOILPG9z32238/vvWtb3HJJZey+u1VLFy0kL+t+BszZszo9vkv9tza75sxhnPPPZfjj/9w0MMpPGaO63Do9EM54ogjeP755wF4d927zJg5E+sHWVTW2riHluM4JNwEjuOQ9bJBI2fX4Hs+999/P5lMBse4fP4Ln+f0M07HMQ7ZbCbYJwf2n7of3/zmN/jKV77Cps2b+Mtf/sKqt97iwAMPbFfiFpSbzZ41mx/84AcMHzEca8EPg5fWt7huAuv7cQnjBRdcwCc/+UkwwfULkM1mOOiDB3Hqqadw+//eTtbL0tDYkCsP8X1eXfoqPj4JJ8G5557LxEkTwUI6nYmzfoYPH8YXFnyBK664AoCNRcrb8u1N4KKtrY1rrvlhHDAyxsFav8PxsViSiSQXXHghn/3subnMuGL70+G118m+Y+KbeJng9ZNIJOJV4KJm58YEgTvjOHieFzci960f95TyrYWwIb7ruPz+nt/T3NpM0k1y3j+cx0knnYTv+WRs+Fo2wXvUt7/zbRZ8YQGtLa0sWryILVu2MGb0mHgfrbU4GFpbWzjuuOP4f1f8P/bZZ5/gsTs5DiLlTJVqIoOLeh6JDFaWwmXuB9Kv8LyeR9G+RxOjghsVZbpwGyl3vmcZO2Yso0aOYtv2bWzcuJGd9TupqgoyXVatWkXDrqDc6/jjjieRSAYpGwaOOfponl/4HC2tLbzzzjsccMABWKCpqSnubVNTW8P06YcGk1g88jMNfOtTVVXFP/3TPzFlypS8ABMQNv611galTdg4K8P3/Xg1M8/zi2dIQJxJc/InTuaoo47CYjn4gwfje348SfUJGiC7ToKmpqZc/5m813TUODzarwkTJvDJMz4Zlj6ZuG8GYS+cRDLBRRddGGdeLHz+eRoaGoJAl9MxOEPYN23nzp0sfH4hvu8zatQoTv7EJ/CzQeMV100EU/gwS2nkyFGcfNJJ/Pd/v0NLcwvPP7+Q6dOnd22pdZsXsAoDCfm9d6JjH+1fKlXF/PnzC3rixMuoW5g9ZzbPPPcMAFu3bsWGQb/C85fLSDGY4HsOGGt47733WLI46Gs1Zd8pfPLUTwbvQU50WC3GD577uHHjOfXUU/nNb24jnc6waPEipk6bimOcuOk2BOWY3/rWt6itrcXLhkEj8vbD9+K3sPHjxvPhD384OHk+YRld8H7oOA6HHnIoWT8IKG3ZvAXft1FlGMcddxxTpkzBTSTiTDU/fL7GN3HZVn19fXz4vaxXcJ11OD3daFoSrYwYnYv4/IS9v6xtv6JbFCR0yGaz3HnHHaxft45LL7uM6uqqvH0o0hPLltrf9n2b/Dh4BcHrNbpmKioqgNyKb9YGq6JZguvEMXmrB1qLNeC6LuvWreevzzyDwTBmzBjOOussnCh7zfcxDkEzb2uZsu8UPvvZz3LzzTeTzXo89dTTzD/77Ny+4mMxpCor+epXv8qIfUbEwWaN1YeGXEdHG2br5MZv5d7zqJioZ5N6HokMHso8EhGRsmOA4SOGc8C0A4K+L9Zn8+bNjB8/nkQiwV/+8hcyXpbKihT77b9fMDEMR6izZ8+muqqa5pZmXnjhBU488USwsPy15fHKSfvvtz9jRo8h6+VNYvMGtuPHjeeII+Z23C+TWzmqYKAejvptGMCKGpxGE+doAhhk6fik29o4Z/45QcYDuQwemw2ym3Y17GLnzl08+eSfuOOOO+JMlFKTSGPgkEMOZp/h++CES8oH3zfxcTHGMHv2bCqSFWQyGdLpNDvrd5Ian+pQlmTymtKsWbOG995/H4CxY8fS3NxEW1tr0MSXXJApMmHiRBLJBF7W4/Xly+OlzruaudLVCVBNdTWpylSw3HpellR0nOrqhsVBqHRbOuhRFQWXyJ2/XIChYCdYtWoVuxp2Bc97zFiamptoaGwIn48TLzUflTDtt99+QWaTGzRC/+y5n+2wz9MPnc7+U/enrS3XADu6nqJzZm2Q/bbffvsxduy4XIZO3g56nhcu6e5g8WlsaowDRwbDGWecEQRConMTZon5ns+Ohl00Njby4IMPctedd+E6bhyE6o1ARZSh85nPfIaRI0cRNXt33CCwls1maWtrY8vmLby2/DXeXfsu9fX13H///WzZuoXvf//7VFam6PbMMzcTLykKqGUz2fi6INy/qLdXtPAEhrjfmQnL5Nate5eW1mbAMGz4MHbs2BEEpfKC0VHQyfd89tlnnziDbOXKlZi8oK2Dg5twGTduHJMnT46vBxERkXKh4JGIiJQdx3HIZDIcc8wxLHlxCWB47LHHmHP4HNra2sJVjyyTJk1k4sRJBatbTZw0kfHjJ/D2O6tZ8bcV7Ny5kxEjRrB0WVAm5lmPj3z0I0HpWZFGvABTp02lKpXqsAJatJx4vlzAqPCWkD9xt3n3J5hQOsG/d+3cxTvvvM3Spct4/fXlrF27lu07trNr166Cx42yEIqx1jJp0qQgO8UvDKS0z8oZP34869atwziG97e9z7jx44psr3DiasOsqjf+9gbzz5lfZA/iPKsgE8kJVo3aunVrQSCqp1gsY8aOwfO9osfERLP7vNsX3N/mMsMKtxpkvziuQ2trK17Ww2B4+ZVX+Puz/z7Ydrv7Bc8vyF5KOAl8z2PdunW4CTduqB5tfe6Rc8lms0WfU3SeHGPI2iDzrpRcGVOR6zeMM2UyGZqbm1m9ajVvrnyTl156ibdXv82O+h00NTeV3Ifg+PRsACmRSPJ3f/d3YcN4GwdLowyl6DXR0NjAAw88wK9+9StaW1t58cUXeeyxx5k3b173y+byqtryBcG+wtyNbNz3rDCYaCBunh4FYKOG1Y7rsGXL1ng7K95cwbxPzQNMWNZamEWX263g63ffDRrhuwk33EIQSDv55JODR452QEREpEyobE1ksArSGXKfmg7QfOFo/208Ac//0/k9B+pzlmBpbICjjzkafhbMoRYvXozneTQ2NAbNgDHMnj2HqlQq/jTf97PU1dVx8MEf5O13VrNm7Ro2btzE6FGjWbJkSfzp/ty5c8lkMiUny6NHjw5WefLaXUPh66rwW3nloVFJWf7P25XPmLAxbjab5YEHHuAPf/gDq1evLphgJtwEValqxoweTWVVJW+9tapgW7lt5u6zzz77xL1b8negfSlSbW1dnDHz3nvv5223XcAofP9obmomamwMuUyZ/Iyj9g2NfT8ov2tobAhK6DqUnRbRSflRsX+74fLlxQQBncJJe3zcfFuYrZSXbRL98T2fTCaDZz1cxw2CVFEpXfv3lbzePcFKYobm5mYy6UyuDCr8eV1tXdGMEt/3o8oTCLPaUlUpfN8LyhiLNKzOL8Fqf2yy2SyPPfYYd95xJ2vfXVsQBDUYqquqGTFiBGPGjGH58uVhL6/ccygsF8zfftffU/Pvb0wQzGpra4szojCF12a0X2eeeSZbt2zljrvuAA+efvppTj31FJLJZIf9KrWv+Y8fB/vC6yvK8soPAlrrxz/Pbcvi2yhomzuPcXmr58crJUai8xT1Y2p/veQ/ZnNzU8H2gsCl4bDDDsPLZos3AZdBLTe6ySvXLxjzRG8SJe5ZbnO6+PUZXspltnsi0k1GmUciIlLG8pstb33vPYwxPPPsM7S2tQLwkY98uGh20Ny5R/LEE38knU6zcuVKxk8Yx7p16/DxmTB2AvvvPzXM9CDu2ZMfAKmprol70uwR0zHjIJ/vW37yk5/w0EMPkc1kcRyX8ePGMWvWLGbMnMns2bOYNGkSFRUVPPboY1x19dVksumSD2exNDc3k816QQ+gIikLxgQ9fdJhyVQmk+m0n0wkVZUKs0Rgvyn78bGPfQzXTYC1HYIS0b44YVPy3vyAKspeKaZDm6l49kLHyXxU7wUFQQLXDY6jwTBt6jQ+9rGP5TLc8jLQTG5juE6QReJbn0w2S2XYSydSXVPdzScJ1nT9GEbX3K23/oZbb72FTDaD67hMnDCRgw8+mLlz53L44UcwceIEkokkixYv5mtf+2r39qmL+12wX+FrDUwcoInLP/NKDo0xpCpTHHnUkdz927vxfZ9NmzaRzXokk8lu7YIxhkw6U3z3bOE1EjfULnGoi15mxhSc3wOmHhBkNHrhdWkMruvkrtEwOBU1wK6qquoYoMMycuTIIHBdboEAEREZ8hQ8EhGRspXJZJhx2AxeX/46np/ltWWv8ewzz2IwJJNJDj30UDzPj0tJoqyew6ZPJ5lI0NrWypIlixk3biwtLS04xuHII48My0/ceKUryPU/gaAkpVi2R6dswV8lGWPYsH49jz76KJ7nkaxI8sUFX+S8887DTbi57IdwQ5lsBs/L9TyKAhrG5JWmYVjx5pvhCmK2YEKez/M93lnzDlEfmvzVnkpJpVJUJCtIZ9KMGTOWBQsW5DUWzjtmYcAoypjIb0zcpYbZ3bSn2yzIOMFirIkDFyavKnH48OEkkxWkM21MGD+B888/P3xcJ+59VUzc68rp+PNEonS2VNF97WYPIgusX7+eO++8g0w2Q0Wygi98YQGfP/98khVJMpls0H/bC7KlEolELnss2kYPBC2iLJroGu54rjoeGxumI+Xvh8XS1NRIa2sLVVWpvHvv/tx7WY8NGzeUPoZ5rx/HdYnyPbrKWp+p06bG+1NXV8eXL/pysGJfGMTLXyUtv99WdGCs3/HxKisryy6BREREBFS2JjJ4xdVqFmvKbxWOTtm8CXjRMh2VrQ0Vra2tfPzEj/Pa8tcAw6OPPcqy15ZhMEzZdwrV1dVxWSPkJttTpkxh/MTxrH1nLW+88Teqa6rjpbenTz8M1w2WCvdtuGqZH650lcfEvUvyFClbi8tdsGFmign6usQz5+guuWDKK6++QktrC45xOfqoozl7/tlBaVjWi8t5PM8jVZliy5YthaU6eSUN+Zf4u2vX0tzURFV1VcGEOfrbcRxWrVoVZwsZxzBx0qSSJT/Rc9p3330ZNnwYW9/byrp1QTPj0aNHB/158ibHUbnc2++8zWOPPo7nZTnkkEP42Mc+1rWARJGbFCtTinTWn6dYiVX+cyoo9yIo2bO+jc+TtZYDD/wAw4bV8f62NtatX8fO+qB3VnDtFO6w9S1vv/M2f/zjHwGYNu0APv7xE3MNlzvsW/HnX6xUrKvv3VFJ1qpVq2hqbsJg+MAHDuLCCy8ISsZa2woy4hzj8NZbK4sfo70sW7M2t7Ja+20H/849Zz8sGcOAj4frOmzevDleAa+2rpaamprwvobKVCUGQyabLcgIar+/W7ZsoampucTjF5ZRRg3325/Xjk+s8HHGjR3HsNph7GrcxfYd22lqagr2z3GCo9zuMVeuXMlTf36KtnSaww8/nA996Bhc63Z4mCDQVHo3ZHAqVrZG3nuWJRrP5W4f/ysc65WT/N9TKlsTGRx6vouliIhID0kmk3zy9E8C4GB48skn2VEMdpmNAAAXPUlEQVS/Ax+fs846C9dNkEgmimbYHHLwIVgs27Zt469/+SsQLJU+a9ZMjDFxNk9Rhi5P2ovcNe/f+VktQUAnkUiybdu24AbWMmr0KFy3cAKZcBNUJCvYsnULz/z1GWzeRDw/6yIoJwsyftavX8+9990blE7ZwskyNlih65e//GVcWnXIIYdQWVlYVlVMVVUVs2bOwmDYsnULTz/1NL7v43kevu/HS54H++Pw0IMP85vbbuX2O25na9xQuHxFExy/XXBk2LA6Zs2aBQTZPI89/hiJZCLIKgoz1xzHCcrbHMPv7vkdv7ntN/zv//4vmUw6Xv69L0RlYYmEy47tO4LvYaiuriKbzQaBvqiEygTnqbGxkbvvvrtX9ieII+Y1je8kEBJfO06Q+bV+/QZu/9/bgWDVuemHTo9fH67rMHbsOKKqwdWrVpdcleyWW2+hfR+voo8fnv8o86zrz9Gy75QpHBaW1m7auImHHn6oYH+CgGTw/Lysx72/v5dbb7uVu+6+k127dhYEX4vsmIiISFlR8EhERMpWNpulqqqKYXXDsFh2NeyKJ6WzD58dlODkBS8ixhg+9KEP4TgO6XQbO3fuwmKZNm0aI0eODEvU2nWk3YvJWn5wyBhDws2toLR163tks5l45a1sNsOYsWNIukksluefe54dO3ZgjAkCEWHp3fbt2/n+93/Am2+9GT9OS0sLjuvGzznMd4ozSf77xv/m/vvvj8vSjDEkE0nSmTR33nknL7/0cpzBccEFF3bpuTmOy6c+/em458yPrv0R99xzTxhAceIAiud5PPnkn7jvvntxjMOIYSM47vjj9vyg7kb+0urdu2PwV65IyrBx40bAxs8pusZOO+2TuE5QSnjDDTfw8MMPB2VJYfDCYGhtbeXhhx/m8UcfJ+kmqa6u5phjPhRnuvVFgneUFZTJZBg2fBgQlF6ueWcNG9ZvwHGcOCvOWqivr+eKK65g+/bt8XNtbWvtlfJCAOuDbz3S6XQQtLU2zPYLXhO+9WlqamLJCy9wwQVfYtPmTQDU1NZw1pln5VaicxymTNkX3/r41ufGG2+MXzsQZNdlM1nuvONOHnzowfjYFHt/KGjyHq1I6AVZUF0piwufGWd++tMk3ASe73HDDTfw5yf/TDabya16GGYi/vFPf+KBhx4InldNLSeccELBe07uMaOl3bpxgEVERPqAytZEBqv8zINulD6UhbxqnI5lFCpbG0qiT+ZnzZrFM88+AwQTvdEjRzN+3HgymWBFqw6/yywcffQxVFfX0NjYEE/iZ8yYQU1NTd7EvrC0K//+7Vezir5Pu8lo/vVpTLBE/bgJ4+Kf//CaH3D//fdTUZHkuOOOY/78+Rxx+BGkUimam5vZ+t5Wzv3suXxxwRcZN24c6XSaFStWcO+99+L7llRlFdlshqyX5dlnn2XM6DEcedRRjBo5Ms6e8q2lMpmgrbWN7//w+zz44IOcMW8eFRUVNDc388c/PsGyZcvABsf01FM/wdy5R8THodgxiINT1uPww+fwqU99invuuQfHOPzkJz/hkUce4ZRTTmH06NHU19ezcOFClixegh9O8s/97LlMmjS56z10SpVtlbi/6yYw4XPvsKkOZUn57yPBY40ZPZpghu5z882/5s9P/plhI4Yxc8ZMvvSlLwUByGOO4cwzz+Se39+D7/t893vf5d577+WUU05l2LA6mpub+dOTT/LSSy+ScBNkvSwXnn8hY8aMJpPJUFFRUZiJ0snzaf/8c8e/+O1LXYMHHXQQNdU1tDS3sG37Ni666CLO+ruzmDhxEtlsltWrV/HAAw/Q2NSIY3KBsldffZUHH3yQY489lrq6uhKP1/WytXwtLc18/vzPd+w/FJatRaslQhBEiQJ45557LgcffHBcwub7PoceOp262jpaWlpYt2EdZ88/mwu+dAGjRo2ipaWVe3//e1atWkVlRSV1tXVs276twzEKvg5L/TAY4xQEoUv9vix2/o46+ijmzZvH/fc/QFNzE1d++0ruve9eTjrpJIYPG86uhl08+uijvLb8tbhk8IsLFpCqTBWs+hdx3I79xGRoKFa2ll9qa9uNazqUrZXZmCf/PVdlayKDgxpmi4hI2YoCMqeddhrPPvtsHCj62Iknkkwki064o9Kc2tpaDjroA7zyyitY6+M6QX8h37cdMix868ef9EcT3M4G4vFy41AQHIiWAT/++OP51f/8iubmZlzX5c03V+C6Lvvvvz+JRJIJEyYw79PzuP3223FwaG1p5fqfXd/hccaNHc+FF17Aj398LdnmRpa/vpzlry/npl/dFAY/4mfOvHmfYtXqt3jppZdYsWIFy99Y3mF7rnE5/vjj+frXv94hcJa/mpXneR0Ssy6//HIcx+Xee3+P9SyrVq3iup9eF/884SbijJB5n/w055xzDt2aLRggDDw5jhP0Zio4TTbvpoZEwi3Z1DzIUsk1E4+3H27HYjn6mKMZO2YMW97bgudleWv1W7iOy/Bhw8OgRtAP6+KLLyaZTHLnXXcCsPLNlaz42wo8GwTuHOPgGpesl2X+2edw3nnn5Y6tn5vsRavPxddokecf7HOu1LBknKldECNo4m3wPZ/x4yfwpS9+ieuuvw5jDdu2bePG/76x3UMZ6mrquPLKK/nmv34TLGzetJmrr7qam26+iWHDhhU0/DZOu4thN6Jm7hYbH/9MptjKZ0GpWOHKfIaEm+DLl36Zc+afE+9vrp/Zvnzuc5/j57/4OQk3QbotzfXXXx9fC1GA5nOfPZ/m5iZ+97vfBd8t0sA86kllDLiui+N2DEQnEomCEk1jnLgczlqoqKjgsn++jMaGRp740xMYDK8uXcqrS1+N98d1XFwTXK9f+PwC5s+fH6/O5/t+HDCCoDy3u43SRURE+oLK1kREpGxFk+QDDzgQCHoZ+dbnsMOm4ybcohPCvHszd+7c4NN9LFVVVUycOJFik+D8Mhbf+mSz2XjZ9g63DTYdNwRun1kCMGH8BG688UZmz55N1stisWS9LG1tbWS9DNbCJRdfwnU/uY7xE8YXTHyjR/nHf/hHbvvNbzj11FM54vDDix6b/J4pI0eO5Ec/+hFf/T9fjQNfTvwcDJMnTeaqq67iqquvorKyssj2cv9u30fGWks2m+Xrl1/OTTfdxMEHHxw33o5kvSyTJ0/mZ9f/jG988xt71PPHtz6tba25bbc7VcFqckH4p6W5peQ5stbGz90SNB8vmItbmDBhAj+85occOffI+Ph7vof1w+Ma3qGiopJLL72Um351E1OmTCHjZbDWxr2jfOszed/J3PCLG7j44n+KewxF+xEFTbqyep+1lrZ0GxBdk6VuWdjMPZ1uC4JYrksi4XLOOedw3U9+ypgxYwoaV4cdsjjvvH/k3vvu49hjj+XMM8+Mg36RZLICLyyztFiyGY/u1FFFmX5tbW3YTv/nx49tsUyaOIl/+drXeOCBBzhn/jmF2UBh0M36lnM/cy7f/Y/vkkgE2V7RvrvGpba2jmt/dC1f/vJFYS8rn7Z0a9F9TKfTADQ3NZeMjbW0tMZZIEHwuuNrI5lI8u3vfIef/fRnTJ48mYJAp3HI+lkOPPBAbrnlFi666MK4h5O1NihVDQNe0fEWEREpR2ZX/S79lhIZjBx4Zuk7bK0aT4tTiTOAYsXGRv1IoMpvYVT2fWq9JhzrARbTaUla/lLIensbDPb0U/j8CVmP7k83thv3BQozQyy2ILgAwWTR93wy6Qye5+G4DqlUikQiie97cTZTS0sLAKmqVHxpx824g2W0wl5OwWS2samRTDpDIpnAdVySFUlc142XEu/2884v88OSSWfIZDLxpL6yMkUymQhjLr1w3ItcB/mZLXvDMU4ciLS+xbN+ya1a39LU3ITv+VRUVgQBm2SiXfZMLgiwN/vX2bXWvm+PDTPqokCKYxww0NbaRjqdxmKpqKiksrKiw3FsbW3Fy3pUVVeRTFbEKw/mn++eOM49zVpLui1NJpuJg3mp6hQJN0luBbXcc2h/jrorOL620yMRBaXS6TS+FwTFUqkUlZWVcUZj+2OpTCOBcNRiwMWSMRW8nxhNg1uLb1x8nOCPceJ3hLy1LjHWYksE0/uDMWBthllTkuxfATUAu4+fi0iZOve8zwIqWxMRkTK3p5Oq3voEvzvbtdZ26OfSnmMcjGtwq3LZCNZafN8jWgXMEKx6lrehvMcgjrgGA3ZIZ9NUVlYGE9a8/fV9P5eR083jWlAmhSFZkSSZTMZBjCiDpLeCDMX2t6cey7c+5CVSdRoccEzcE6hjxlgu0NIT+7a7ay0ugYtKKPOyYnwbNH9OVYWBC6Lro+M2K1OV8f56eddruWfBGGNIVaWoMlUFzyt67RTclh4I0Njd51/51ieVSoVloAbHGDzbcX+i/e+0D5YMcSbvj4hI/1PwSEREpBc57T4NLtYUOl/+ym2Qy6MzEGeaFN4naEga/SzORIq2127i0VMT1SjbKdpmOWam9JbcuTGdfq+39yHOTLLg52VbRqvIGYibqhP+pLBXkil67vKDRuV+Xvsy+NKVRzGYvGMeBX+Lvx4VNJLdCV7V5f0aFJGhQ8EjERGRXtR+st4d3Sln0UR06IkCRz2lMGipCWtHeo1J39NVJyLlIqHBpsggFfUdyVvqdcDInw/Z3BK0Vp+/yQC3p6Vipt3XIu2ZvP8GOr7r7y7rTYEjkf5l47/DjLp4/GbyGs0X3jYe65XZOC/KCrQ2NyQVkYGtfDqriYiUpObXIiIiMnRYkx9MUkBXRPqfgkciMkAoeCQiIiJDg8kb9mgEJCLlQGVrIoOVJU4XDv/T33vUZTbqDhw9h7AhcO79qivPZ2A9ZxERERm6bPwnr3gtLkfrWKxWcM9yHOdFZXcqWxMZNNQwW0TKj8n/p41TJE2cuN3ZCKSzAZaIiIhIecutsubkjXxKdSMzGvGISJ9Q8EhEylo8ZLJ0IXAU0TBKREREBq5cn6Pwb9OxLX6smyt5iojsCZWtiQxWBSVf5bcKR5fYYiuODMDnISIiItKJ/LK1oMwr/Cqcqw20cZxWWxMZfNQwW0REREREpGwps0hE+p/K1kRkALCAjz62EhERkb5goG+HHQYcG1SgGcDmxYusgkciUgYUPBIREREREcln+z7fJ1psFto9tmJHIlIG1PNIZLCKlra3FmsGaM8j8mvmB+5zEBERkQGmj4cchT2PLNa3WBNkIA248U/YsxL1PBIZVNTzSEREREREpMwEwaSBmXZkoj8KGokMGipbExERERERyWMNfZotY/P+RI9vowhMmWt/mBzCxeJEZFBR2ZrIYGUJ04VtvNzrgNPuOQy4tG0REREZkPo4dhQHW2xUvDaAxm/5exj3bLIqWxMZbFS2JiIiIiIikqc/Yx223d8DUZ+vVicivU5layIiIiIiIu30aeYRUXPsvn9sEZGuUNmayGBlo6qvAbxSWbxiXJDGPQDK/kVERET2SC5wFJasDZDxW/s9tARlaxaVrYkMJipbExERERERERGRkhQ8EhERERER6We5Ze2Vay0i5UdlayKDVVzyNQDSnm27VU1M7vvW+nlpz2X8HERERET2UH6vIz9cbW2gth0oaJugsjWRQUMNs0Wk35m8v6NFaXOfuQ2MZWpFRERkcDF9Ofwwuce0huDDP41/RKSMKHgkIv2uMFiU+170TQ2fREREpC/1deFY/Hh5C4WIiJQTla2JDFY2P2XYYsp8EGKDpTnCf+eGbB4WjyCF29H7lYiIiPSBPh9xhA9owlJ98AdM9lGxPVTZmsjgo8wjESkPBqJKf4ODxYTfNPG/ZCjo7zOt0a309zUIug7LQX9fB7oGykGflq3lHhVjDAlL8KFZf1+KIiIhBY9EpIwYLA7gBAEjC671ca2PGSCfvsneKIcRsq4xgf6/FnUd9r/+vgZA10H/s314GeStFYLB4ipuJCJlRsEjESkPYZMja0wcOAoGTQYfR0PoISHIPOvf4bLfj48t5aEcch11HYo+MBmS/v/27m05cSMIA3CPTNZOKte5zivk/d8riSu2OheSAGMG7OUgafi+rS3voXatKgbRNP3PlOHe00XGU4noLAFgQex5BK0azkmNWMlRryX3TlrL3clr/8VT/F1eIp6GKaT539RxOxmZ77Nfgzdsj07ziIiIbubv7140t3vdCaZDQ0pE5Ng86uPX+Dd+iT5KrOG92uEVDrXcVIPa8whaYfIIWISpptgVan1kKfFaNhHxe/zT/Rax3QuJNl3ePCrl0jd8czevmFtenFMZ9iu54ApC82h+l64D96I2lAtqjhxOLjnz/++e7V3smkcRz/Fanq0CYFE0j4BlKHtfSkZmiT4iMp4iu5dxMqlsR7ppUObJ3Um/8qHlZW/aI2JcdTywPD1vcPt1qHk0v3J2s5tz68C9qA2fP9j63j8+tYz29ziKmJpH0yTSZhvi/vCyqAQCZiS2Bq3K2MXVVrjZ9BRfG5Td1btnNa5eGX+pZr7K8lCdP7bTzaP7rENrcH6nH4Ozj5B7URPKwa+/+7B+5RH88D223+B9DE4eTLCtpAQaqs5x2wSxNWiGySNgsZaw8wgAwPo+hgO4Ls0jAACAM3ygBTwysTVoVe6NDJfln7Z2ynQSm6qtcXn+Ib54L+OvXggP68S2W1u3X4fW4LzKcFLUCe5FD2bvFNib1CJ7r3+7tfUzQbl5HL3KFFuD1pg8AoAtYUmWYO5j4pmfe9GilBvH1jzUwApoHgEAAJyhxwM8MrE1aNV42lqMP9ccW4s07fwQvhIXuv1V8OisQyLOPsjWABw3TWj1YmvQHHPRACxDUVsyv3Nr0BoFOK+Pe+0NBtyL2BqweIqPB6KBxNysQcLrDnzH4dPF8wfaZPIIAAAAgCp7HkGrxtB5jpnz4rN0AADuILc1qD2PoBUmjwAAAACo0jwCAAAAoEpsDVq1F1nLzEjzwgAA3EEOuTWxNWiIySMAAACuxoFr0J7N3BcAAADAOu0PFWkaQbvE1qBVuRsZDrE1AABu4LDCLBljZE1sDVoitgYAAMDVdDE2kYA2ZGoeAQAAAFAntgatyoicfmRGMS8MAMCVHaswU2wNmmPyCAAAAIAqzSMAAAAAqsTWoFX7J12E09YAALi+wwozI6KE2Bq0xuQRAAAAAFWaRwAAAABUaR4BAAAA8Nm41ZE9j6BVORyTGpkRJUPYHACAWxu23bTnEbTG5BEAAAAAVZpHAAAAAFSJrUGrcn9kOCPNCwMAcGXHKkyxNWiPySMAAAAAqjSPAAAAAKgSW4NWjQetTSeuia0BAHBL0/m+RWwNmmPyCAAAAIAqzSMAAAAAqjSPAAAAAKiy5xG0agqYj5nzImwOAMCV7VeYZfz9ds9Nex5BM0weAQAAAFCleQQAAMD1pLeZ0BqxNWhV7o8Ml0jzwgAAXNmxCrMfa9AQW4NmbOa+AOCWSkScfr1eSgO5lDL3JQAA8E2HM0Z9RGRZRn0JXI/mETQoxz7MW8noI6KLPj6+hueHL0vQpQYSAEAL+uwjy1O8lRhrUWDtxNagQRkZb5nx4/k5njbP0XXTDNL092X/N7Oa+kU5/tQ+AgBYtxKb6EpGyen0tbmvCLiUySNoUIkSmyjx159/xOuRbszSGjSH9YT6AgBg3bqM+JER3dIKT+CnaB5Bi0pEvvdRSsZLPwwKd2ciYXN/IiSxBgDQhmmiXFwN2iG2Bi2aXrGzxDTHs/RnulsRAEA7tlXorhwFVkwzGAAAAIAqzSMAAAAAqsTWoEXvn//Icx0AgLs7UpcC62PyCAAAAIAqzSMAAAAAqjSPAAAAAKiy5xEAAAAAVSaPAAAAAKjSPAIAAACgSmwNAAAAgCqTRwAAAAAclaF5BAAAAMAJYmsAAAAAVJk8AgAAAKBK8wgAAACAKrE1AAAAAI7LNHkEAAAAQJ3mEQAAAACfTFk1sTUAAAAAqkweAQAAAFD1P4Vcdr+SF+pfAAAAAElFTkSuQmCC;" vertex="1" parent="1">
          <mxGeometry x="80" y="-10" width="1167" height="573" as="geometry" />
        </mxCell>
      </root>
    </mxGraphModel>
  </diagram>
</mxfile>
